PowerlineExtraSymbols.ufo
<glyph name="uni2630" format="2">
  <advance width="1228"/>
  <unicode hex="2630"/>
  <note>
uni2630
</note>
  <outline>
    <contour>
      <point x="102" y="205" type="line"/>
      <point x="102" y="0" type="line"/>
      <point x="1126" y="0" type="line"/>
      <point x="1126" y="205" type="line"/>
    </contour>
    <contour>
      <point x="102" y="614" type="line"/>
      <point x="102" y="410" type="line"/>
      <point x="1126" y="410" type="line"/>
      <point x="1126" y="614" type="line"/>
    </contour>
    <contour>
      <point x="102" y="1024" type="line"/>
      <point x="102" y="819" type="line"/>
      <point x="1126" y="819" type="line"/>
      <point x="1126" y="1024" type="line"/>
    </contour>
  </outline>
</glyph>
<glyph name="uniE0A0" format="2">
  <advance width="1229"/>
  <unicode hex="E0A0"/>
  <note>
uniE0A0
</note>
  <outline>
    <contour>
      <point x="168.93" y="-509.62" type="line"/>
      <point x="516.52" y="-509.63" type="line"/>
      <point x="516.52" y="8.86" type="line" smooth="yes"/>
      <point x="516.52" y="98.5"/>
      <point x="533.31" y="168.78"/>
      <point x="566.9" y="219.7" type="curve" smooth="yes"/>
      <point x="596.29" y="264.88"/>
      <point x="650.02" y="309.34"/>
      <point x="728.11" y="353.09" type="curve" smooth="yes"/>
      <point x="822.57" y="406.88" type="line" smooth="yes"/>
      <point x="912.41" y="457.08"/>
      <point x="979.79" y="518.93"/>
      <point x="1024.71" y="592.44" type="curve" smooth="yes"/>
      <point x="1069.63" y="665.95"/>
      <point x="1092.09" y="771.54"/>
      <point x="1092.09" y="909.23" type="curve" smooth="yes"/>
      <point x="1092.09" y="1323.37" type="line"/>
      <point x="1355.31" y="1323.37" type="line"/>
      <point x="987.56" y="1691.26" type="line"/>
      <point x="619.81" y="1323.37" type="line"/>
      <point x="883.03" y="1323.37" type="line"/>
      <point x="883.03" y="969.46" type="line" smooth="yes"/>
      <point x="883.03" y="876.23"/>
      <point x="866.87" y="801.11"/>
      <point x="834.54" y="744.1" type="curve" smooth="yes"/>
      <point x="802.21" y="687.09"/>
      <point x="748.27" y="637.43"/>
      <point x="672.7" y="595.12" type="curve" smooth="yes"/>
      <point x="481.27" y="488.63" type="line" smooth="yes"/>
      <point x="384.71" y="434.85"/>
      <point x="313.77" y="379.63"/>
      <point x="268.43" y="322.97" type="curve" smooth="yes"/>
      <point x="202.1" y="241.93"/>
      <point x="168.93" y="137.23"/>
      <point x="168.93" y="8.87" type="curve" smooth="yes"/>
    </contour>
    <contour>
      <point x="168.93" y="573.61" type="line"/>
      <point x="516.53" y="765.08" type="line"/>
      <point x="516.53" y="1980.62" type="line"/>
      <point x="168.93" y="1980.62" type="line"/>
    </contour>
  </outline>
</glyph>
<glyph name="uniE0A1" format="2">
  <advance width="1229"/>
  <unicode hex="E0A1"/>
  <note>
uniE0A1
</note>
  <outline>
    <contour>
      <point x="861.6" y="776.91" type="line"/>
      <point x="861.6" y="918.9" type="line"/>
      <point x="419.54" y="918.9" type="line"/>
      <point x="419.54" y="1745.04" type="line"/>
      <point x="224.33" y="1745.04" type="line"/>
      <point x="224.33" y="776.91" type="line"/>
    </contour>
    <contour>
      <point x="1069.41" y="689.79" type="line"/>
      <point x="869.16" y="689.78" type="line"/>
      <point x="869.16" y="519.82" type="line"/>
      <point x="895.61" y="58.35" type="line"/>
      <point x="584.53" y="689.79" type="line"/>
      <point x="376.72" y="689.79" type="line"/>
      <point x="376.72" y="-278.34" type="line"/>
      <point x="574.45" y="-278.34" type="line"/>
      <point x="574.45" y="-68.58" type="line"/>
      <point x="550.52" y="350.94" type="line"/>
      <point x="859.08" y="-278.34" type="line"/>
      <point x="1069.41" y="-278.34" type="line"/>
    </contour>
  </outline>
</glyph>
<glyph name="uniE0A2" format="2">
  <advance width="1229"/>
  <unicode hex="E0A2"/>
  <note>
uniE0A2
</note>
  <outline>
    <contour>
      <point x="313.75" y="-117" type="curve" smooth="yes"/>
      <point x="981.25" y="-117" type="line" smooth="yes"/>
      <point x="1099.64" y="-117"/>
      <point x="1158.83" y="-66.44"/>
      <point x="1158.83" y="34.67" type="curve" smooth="yes"/>
      <point x="1158.83" y="775.83" type="line" smooth="yes"/>
      <point x="1158.83" y="884.12"/>
      <point x="1108.03" y="938.26"/>
      <point x="1006.44" y="938.26" type="curve"/>
      <point x="1006.44" y="1267.42" type="line" smooth="yes"/>
      <point x="1006.44" y="1365.67"/>
      <point x="971.18" y="1447.42"/>
      <point x="900.65" y="1512.68" type="curve" smooth="yes"/>
      <point x="832.64" y="1575.07"/>
      <point x="748.26" y="1606.27"/>
      <point x="647.5" y="1606.27" type="curve" smooth="yes"/>
      <point x="546.75" y="1606.27"/>
      <point x="462.36" y="1575.07"/>
      <point x="394.35" y="1512.68" type="curve" smooth="yes"/>
      <point x="323.82" y="1447.42"/>
      <point x="288.56" y="1365.67"/>
      <point x="288.56" y="1267.42" type="curve" smooth="yes"/>
      <point x="288.56" y="938.26" type="line"/>
      <point x="186.97" y="938.26"/>
      <point x="136.17" y="884.12"/>
      <point x="136.17" y="775.83" type="curve" smooth="yes"/>
      <point x="136.17" y="34.67" type="line" smooth="yes"/>
      <point x="136.17" y="-66.45"/>
      <point x="195.36" y="-117"/>
    </contour>
    <contour>
      <point x="647.51" y="1466.43" type="curve" smooth="yes"/>
      <point x="703.75" y="1466.43"/>
      <point x="748.88" y="1448.5"/>
      <point x="782.89" y="1412.64" type="curve" smooth="yes"/>
      <point x="816.89" y="1376.78"/>
      <point x="833.9" y="1328.38"/>
      <point x="833.9" y="1267.42" type="curve" smooth="yes"/>
      <point x="833.9" y="938.26" type="line"/>
      <point x="461.11" y="938.26" type="line"/>
      <point x="461.11" y="1267.42" type="line" smooth="yes"/>
      <point x="461.11" y="1328.38"/>
      <point x="478.11" y="1376.78"/>
      <point x="512.12" y="1412.64" type="curve" smooth="yes"/>
      <point x="546.12" y="1448.5"/>
      <point x="591.25" y="1466.43"/>
    </contour>
    <contour>
      <point x="718.04" y="484.32" type="curve"/>
      <point x="718.04" y="136.87" type="line"/>
      <point x="576.98" y="136.87" type="line"/>
      <point x="576.98" y="484.32" type="line"/>
      <point x="519.89" y="509.42"/>
      <point x="491.34" y="549.22"/>
      <point x="491.34" y="603.72" type="curve" smooth="yes"/>
      <point x="491.34" y="640.29"/>
      <point x="506.66" y="671.67"/>
      <point x="537.31" y="697.84" type="curve" smooth="yes"/>
      <point x="567.96" y="724.01"/>
      <point x="604.69" y="737.1"/>
      <point x="647.51" y="737.1" type="curve" smooth="yes"/>
      <point x="690.33" y="737.1"/>
      <point x="727.06" y="724.01"/>
      <point x="757.71" y="697.84" type="curve" smooth="yes"/>
      <point x="788.36" y="671.67"/>
      <point x="803.68" y="640.29"/>
      <point x="803.68" y="603.72" type="curve" smooth="yes"/>
      <point x="803.68" y="549.22"/>
      <point x="775.13" y="509.42"/>
    </contour>
  </outline>
</glyph>
<glyph name="uniE0A3" format="2">
  <advance width="1229"/>
  <unicode hex="E0A3"/>
  <note>
uniE0A3
</note>
  <outline>
    <contour>
      <point x="1069.41" y="689.78" type="line"/>
      <point x="869.16" y="689.77" type="line"/>
      <point x="869.16" y="519.81" type="line"/>
      <point x="895.61" y="58.34" type="line"/>
      <point x="584.53" y="689.78" type="line"/>
      <point x="376.72" y="689.78" type="line"/>
      <point x="376.72" y="-278.35" type="line"/>
      <point x="574.45" y="-278.35" type="line"/>
      <point x="574.45" y="-68.59" type="line"/>
      <point x="550.52" y="350.93" type="line"/>
      <point x="859.08" y="-278.35" type="line"/>
      <point x="1069.41" y="-278.35" type="line"/>
    </contour>
    <contour>
      <point x="844" y="776.91" type="line"/>
      <point x="844" y="918.9" type="line"/>
      <point x="417" y="918.9" type="line"/>
      <point x="414" y="1594" type="line"/>
      <point x="844" y="1594" type="line"/>
      <point x="844" y="1754" type="line"/>
      <point x="449" y="1754" type="line"/>
      <point x="224.33" y="1754" type="line"/>
      <point x="224.33" y="776.91" type="line"/>
    </contour>
  </outline>
</glyph>
<glyph name="uniE0B0" format="2">
  <advance width="1229"/>
  <unicode hex="E0B0"/>
  <note>
uniE0B0
</note>
  <outline>
    <contour>
      <point x="1315" y="730.65" type="line"/>
      <point x="-20" y="1980.61" type="line"/>
      <point x="-20" y="-520.39" type="line"/>
    </contour>
  </outline>
</glyph>
<glyph name="uniE0B1" format="2">
  <advance width="1229"/>
  <unicode hex="E0B1"/>
  <note>
uniE0B1
</note>
  <outline>
    <contour>
      <point x="29.12" y="1934.36" type="line"/>
      <point x="-91.79" y="1832.17" type="line"/>
      <point x="1082" y="730.65" type="line"/>
      <point x="-91.79" y="-370.87" type="line"/>
      <point x="29.12" y="-473.06" type="line"/>
      <point x="1315" y="730.65" type="line"/>
    </contour>
  </outline>
</glyph>
<glyph name="uniE0B3" format="2">
  <advance width="1229"/>
  <unicode hex="E0B3"/>
  <note>
uniE0B3
</note>
  <outline>
    <contour>
      <point x="1386.79" y="-370.87" type="line"/>
      <point x="213" y="730.65" type="line"/>
      <point x="1386.79" y="1832.17" type="line"/>
      <point x="1265.88" y="1934.36" type="line"/>
      <point x="-20" y="730.65" type="line"/>
      <point x="1265.88" y="-473.06" type="line"/>
    </contour>
  </outline>
</glyph>
<glyph name="uniE0B4" format="2">
  <advance width="1233"/>
  <unicode hex="E0B4"/>
  <note>
uniE0B4
</note>
  <outline>
    <contour>
      <point x="-121.32" y="1888.07" type="curve"/>
      <point x="-121.32" y="-526.65" type="line"/>
      <point x="74.68" y="-526.65"/>
      <point x="273.29" y="-467.85"/>
      <point x="474.52" y="-350.25" type="curve" smooth="yes"/>
      <point x="874.36" y="-122.89"/>
      <point x="1074.28" y="220.76"/>
      <point x="1074.28" y="680.71" type="curve" smooth="yes"/>
      <point x="1074.28" y="1140.66"/>
      <point x="874.36" y="1485.62"/>
      <point x="474.52" y="1715.59" type="curve" smooth="yes"/>
      <point x="273.29" y="1830.58"/>
      <point x="74.68" y="1888.07"/>
    </contour>
  </outline>
</glyph>
<glyph name="uniE0B5" format="2">
  <advance width="1233"/>
  <unicode hex="E0B5"/>
  <note>
uniE0B5
</note>
  <outline>
    <contour>
      <point x="474.52" y="-582.25" type="curve"/>
      <point x="325.52" y="-582.25" type="line"/>
      <point x="722.64" y="-350.17"/>
      <point x="925.28" y="168.76"/>
      <point x="925.28" y="628.71" type="curve" smooth="yes"/>
      <point x="925.28" y="1088.66"/>
      <point x="725.36" y="1613.62"/>
      <point x="325.52" y="1843.59" type="curve"/>
      <point x="474.52" y="1843.59" type="line"/>
      <point x="874.36" y="1613.62"/>
      <point x="1074.28" y="1088.66"/>
      <point x="1074.28" y="628.71" type="curve" smooth="yes"/>
      <point x="1074.28" y="168.76"/>
      <point x="874.36" y="-354.89"/>
    </contour>
  </outline>
</glyph>
<glyph name="uniE0B6" format="2">
  <advance width="1233"/>
  <unicode hex="E0B6"/>
  <note>
uniE0B6
</note>
  <outline>
    <contour>
      <point x="1245.32" y="1899.07" type="curve"/>
      <point x="1245.32" y="-515.65" type="line"/>
      <point x="1049.32" y="-515.65"/>
      <point x="850.71" y="-456.85"/>
      <point x="649.48" y="-339.25" type="curve" smooth="yes"/>
      <point x="249.64" y="-111.89"/>
      <point x="49.72" y="231.76"/>
      <point x="49.72" y="691.71" type="curve" smooth="yes"/>
      <point x="49.72" y="1151.66"/>
      <point x="249.64" y="1496.62"/>
      <point x="649.48" y="1726.59" type="curve" smooth="yes"/>
      <point x="850.71" y="1841.58"/>
      <point x="1049.32" y="1899.07"/>
    </contour>
  </outline>
</glyph>
<glyph name="uniE0B7" format="2">
  <advance width="1233"/>
  <unicode hex="E0B7"/>
  <note>
uniE0B7
</note>
  <outline>
    <contour>
      <point x="1065.28" y="-582.25" type="curve"/>
      <point x="1214.28" y="-582.25" type="line"/>
      <point x="817.16" y="-350.17"/>
      <point x="614.52" y="168.76"/>
      <point x="614.52" y="628.71" type="curve" smooth="yes"/>
      <point x="614.52" y="1088.66"/>
      <point x="814.44" y="1613.62"/>
      <point x="1214.28" y="1843.59" type="curve"/>
      <point x="1065.28" y="1843.59" type="line"/>
      <point x="665.44" y="1613.62"/>
      <point x="465.52" y="1088.66"/>
      <point x="465.52" y="628.71" type="curve" smooth="yes"/>
      <point x="465.52" y="168.76"/>
      <point x="665.44" y="-354.89"/>
    </contour>
  </outline>
</glyph>
<glyph name="uniE0B8" format="2">
  <advance width="1233"/>
  <unicode hex="E0B8"/>
  <note>
uniE0B8
</note>
  <outline>
    <contour>
      <point x="-195.57" y="1970.18" type="line"/>
      <point x="-195.57" y="-534.17" type="line"/>
      <point x="2310.56" y="-534.17" type="line"/>
    </contour>
  </outline>
</glyph>
<glyph name="uniE0B9" format="2">
  <advance width="1233"/>
  <unicode hex="E0B9"/>
  <note>
uniE0B9
</note>
  <outline>
    <contour>
      <point x="-194.36" y="1970.18" type="line"/>
      <point x="2311.77" y="-534.17" type="line"/>
      <point x="2189.36" y="-534.17" type="line"/>
      <point x="-316.77" y="1970.18" type="line"/>
    </contour>
  </outline>
</glyph>
<glyph name="uniE0BA" format="2">
  <advance width="1233"/>
  <unicode hex="E0BA"/>
  <note>
uniE0BA
</note>
  <outline>
    <contour>
      <point x="2276.57" y="1970.18" type="line"/>
      <point x="2276.57" y="-534.17" type="line"/>
      <point x="-229.56" y="-534.17" type="line"/>
    </contour>
  </outline>
</glyph>
<glyph name="uniE0BB" format="2">
  <advance width="1233"/>
  <unicode hex="E0BB"/>
  <note>
uniE0BB
</note>
  <outline>
    <contour>
      <point x="2189.36" y="1970.18" type="line"/>
      <point x="-316.77" y="-534.17" type="line"/>
      <point x="-194.36" y="-534.17" type="line"/>
      <point x="2311.77" y="1970.18" type="line"/>
    </contour>
  </outline>
</glyph>
<glyph name="uniE0BC" format="2">
  <advance width="1233"/>
  <unicode hex="E0BC"/>
  <note>
uniE0BC
</note>
  <outline>
    <contour>
      <point x="-195.57" y="-534.18" type="line"/>
      <point x="-195.57" y="1970.17" type="line"/>
      <point x="2310.56" y="1970.17" type="line"/>
    </contour>
  </outline>
</glyph>
<glyph name="uniE0BD" format="2">
  <advance width="1233"/>
  <unicode hex="E0BD"/>
  <note>
uniE0BD
</note>
  <outline>
    <contour>
      <point x="-194.36" y="-534.18" type="line"/>
      <point x="2311.77" y="1970.17" type="line"/>
      <point x="2189.36" y="1970.17" type="line"/>
      <point x="-316.77" y="-534.18" type="line"/>
    </contour>
  </outline>
</glyph>
<glyph name="uniE0BE" format="2">
  <advance width="1233"/>
  <unicode hex="E0BE"/>
  <note>
uniE0BE
</note>
  <outline>
    <contour>
      <point x="2276.57" y="-534.18" type="line"/>
      <point x="2276.57" y="1970.17" type="line"/>
      <point x="-229.56" y="1970.17" type="line"/>
    </contour>
  </outline>
</glyph>
<glyph name="uniE0C0" format="2">
  <advance width="2048"/>
  <unicode hex="E0C0"/>
  <note>
uniE0C0
</note>
  <outline>
    <contour>
      <point x="2157.16" y="445.67" type="curve" smooth="yes"/>
      <point x="2157.17" y="445.63" type="line" smooth="yes"/>
      <point x="1966.83" y="400.93"/>
      <point x="1727.55" y="356.96"/>
      <point x="1649.74" y="379.38" type="curve" smooth="yes"/>
      <point x="1609.84" y="390.87"/>
      <point x="1534.25" y="402.07"/>
      <point x="1460.6" y="444.53" type="curve" smooth="yes"/>
      <point x="1343.92" y="511.8"/>
      <point x="1224.15" y="610.95"/>
      <point x="1161.56" y="600.86" type="curve" smooth="yes"/>
      <point x="1128.74" y="595.57" type="line"/>
      <point x="1151.4" y="619.89" type="line" smooth="yes"/>
      <point x="1281.45" y="759.49"/>
      <point x="1401.42" y="740.21"/>
      <point x="1564.7" y="748.97" type="curve" smooth="yes"/>
      <point x="1679.65" y="755.14"/>
      <point x="1765.17" y="788.39"/>
      <point x="1861.32" y="833.61" type="curve"/>
      <point x="1813.92" y="824.85"/>
      <point x="1757.12" y="821.4"/>
      <point x="1704.79" y="832.28" type="curve" smooth="yes"/>
      <point x="1625.92" y="848.68"/>
      <point x="1494.92" y="852.28"/>
      <point x="1423.17" y="915.14" type="curve" smooth="yes"/>
      <point x="1406.99" y="929.32" type="line"/>
      <point x="1525.91" y="960.37"/>
      <point x="1589.47" y="1009.35"/>
      <point x="1690.25" y="1076.74" type="curve" smooth="yes"/>
      <point x="2025.03" y="1300.62"/>
      <point x="2419.63" y="979.9"/>
      <point x="2722.15" y="1245.58" type="curve"/>
      <point x="2533.45" y="1146.58"/>
      <point x="2362.81" y="1217.6"/>
      <point x="2166.15" y="1319.98" type="curve" smooth="yes"/>
      <point x="1961.53" y="1426.49"/>
      <point x="1749.12" y="1462.65"/>
      <point x="1529.9" y="1396.22" type="curve" smooth="yes"/>
      <point x="1353.71" y="1342.83"/>
      <point x="1193.32" y="1176.72"/>
      <point x="988.98" y="1214.44" type="curve" smooth="yes"/>
      <point x="870.76" y="1236.26"/>
      <point x="802.19" y="1309.33"/>
      <point x="816.49" y="1386.13" type="curve" smooth="yes"/>
      <point x="825.91" y="1436.72"/>
      <point x="870.9" y="1483.22"/>
      <point x="951.38" y="1512.46" type="curve" smooth="yes"/>
      <point x="1098.3" y="1565.84"/>
      <point x="1205.43" y="1586.32"/>
      <point x="1312.35" y="1685.87" type="curve"/>
      <point x="1195.5" y="1618.09"/>
      <point x="1089.46" y="1581.42"/>
      <point x="944.4" y="1646.57" type="curve" smooth="yes"/>
      <point x="792.75" y="1714.69"/>
      <point x="688.85" y="1686.79"/>
      <point x="547.33" y="1588.16" type="curve" smooth="yes"/>
      <point x="472.98" y="1536.34"/>
      <point x="225.4" y="1339.45"/>
      <point x="122.32" y="1477.2" type="curve" smooth="yes"/>
      <point x="98.53" y="1509"/>
      <point x="118.42" y="1537.84"/>
      <point x="145.89" y="1557.83" type="curve" smooth="yes"/>
      <point x="198.79" y="1596.32"/>
      <point x="297.75" y="1627.93"/>
      <point x="323.83" y="1658.61" type="curve" smooth="yes"/>
      <point x="410.69" y="1760.83"/>
      <point x="449.87" y="1832.91"/>
      <point x="579.87" y="1828.52" type="curve"/>
      <point x="476.38" y="1879.93"/>
      <point x="367.9" y="1869.52"/>
      <point x="260.15" y="1801.85" type="curve" smooth="yes"/>
      <point x="148.42" y="1731.69"/>
      <point x="10.9" y="1660.22"/>
      <point x="-99.21" y="1775.56" type="curve" smooth="yes"/>
      <point x="-150.4" y="1833.91"/>
      <point x="-144.5" y="1843.43"/>
      <point x="-201.4" y="1845.69" type="curve"/>
      <point x="-204.68" y="1676.32"/>
      <point x="-194.59" y="1490.46"/>
      <point x="-194.53" y="1348.12" type="curve" smooth="yes"/>
      <point x="-194.41" y="1058.39"/>
      <point x="-196.97" y="-279.09"/>
      <point x="-200.98" y="-496.64" type="curve"/>
      <point x="-49.37" y="-525.21"/>
      <point x="125.05" y="-256.42"/>
      <point x="281.97" y="-294.09" type="curve" smooth="yes"/>
      <point x="423.03" y="-327.95"/>
      <point x="556.84" y="-255"/>
      <point x="702.47" y="-230.51" type="curve"/>
      <point x="617.41" y="-210.48"/>
      <point x="527.23" y="-209.3"/>
      <point x="450.01" y="-166.68" type="curve" smooth="yes"/>
      <point x="345.24" y="-108.85"/>
      <point x="279.21" y="-96.99"/>
      <point x="168.82" y="-156.05" type="curve"/>
      <point x="167.86" y="-138.16" type="line" smooth="yes"/>
      <point x="161.86" y="-26.94"/>
      <point x="263.87" y="63.66"/>
      <point x="345.4" y="94.52" type="curve" smooth="yes"/>
      <point x="525.76" y="162.74"/>
      <point x="715.84" y="-14.31"/>
      <point x="879.5" y="-16.32" type="curve" smooth="yes"/>
      <point x="1007.37" y="-17.89"/>
      <point x="1191.88" y="4.01"/>
      <point x="1319.64" y="78.22" type="curve"/>
      <point x="1238.29" y="55.05"/>
      <point x="1136.74" y="40.8"/>
      <point x="1054.88" y="54.81" type="curve" smooth="yes"/>
      <point x="922.35" y="77.49"/>
      <point x="905.48" y="166.5"/>
      <point x="821.92" y="233.97" type="curve" smooth="yes"/>
      <point x="805.39" y="247.31" type="line"/>
      <point x="905.24" y="278.88"/>
      <point x="917.98" y="300.82"/>
      <point x="994.18" y="362.48" type="curve" smooth="yes"/>
      <point x="1063.71" y="418.77"/>
      <point x="1245.9" y="303.59"/>
      <point x="1392.24" y="253.31" type="curve" smooth="yes"/>
      <point x="1486.06" y="221.06"/>
      <point x="1569.15" y="239.02"/>
      <point x="1616.58" y="239.14" type="curve" smooth="yes"/>
      <point x="1714.87" y="239.38"/>
      <point x="1962.05" y="357.71"/>
    </contour>
  </outline>
</glyph>
<glyph name="uniE0C1" format="2">
  <advance width="2048"/>
  <unicode hex="E0C1"/>
  <note>
uniE0C1
</note>
  <outline>
    <contour>
      <point x="-233.87" y="1846.96" type="curve" smooth="yes"/>
      <point x="-233.89" y="1846.95" type="line" smooth="yes"/>
      <point x="-258.66" y="1816.52"/>
      <point x="-264.65" y="1790.48"/>
      <point x="-246.87" y="1789.77" type="curve" smooth="yes"/>
      <point x="-193.87" y="1787.66"/>
      <point x="-205.9" y="1783.65"/>
      <point x="-152.49" y="1722.76" type="curve"/>
      <point x="-38.1" y="1602.94"/>
      <point x="118.47" y="1677.95"/>
      <point x="244.75" y="1757.25" type="curve" smooth="yes"/>
      <point x="294.66" y="1788.59"/>
      <point x="356.51" y="1808.86"/>
      <point x="420.62" y="1804.32" type="curve"/>
      <point x="368.74" y="1758.4"/>
      <point x="336.83" y="1714.59"/>
      <point x="308.53" y="1680.43" type="curve"/>
      <point x="275.03" y="1662.13"/>
      <point x="215.55" y="1642.28"/>
      <point x="152.59" y="1596.46" type="curve" smooth="yes"/>
      <point x="142.41" y="1589.05"/>
      <point x="130.63" y="1579.61"/>
      <point x="117.88" y="1567.34" type="curve" smooth="yes"/>
      <point x="40.94" y="1493.27"/>
      <point x="50.55" y="1449.05"/>
      <point x="68.51" y="1425.05" type="curve" smooth="yes"/>
      <point x="180.17" y="1275.83"/>
      <point x="468.55" y="1499.19"/>
      <point x="537.88" y="1547.5" type="curve" smooth="yes"/>
      <point x="652.96" y="1627.71"/>
      <point x="743.43" y="1659.35"/>
      <point x="894.02" y="1591.71" type="curve" smooth="yes"/>
      <point x="923.34" y="1578.54"/>
      <point x="951.74" y="1569.28"/>
      <point x="978.38" y="1563.68" type="curve"/>
      <point x="946.88" y="1551.67"/>
      <point x="919.11" y="1537.94"/>
      <point x="886.98" y="1514.87" type="curve" smooth="yes"/>
      <point x="865.72" y="1499.6"/>
      <point x="842.36" y="1479.38"/>
      <point x="821.58" y="1456.05" type="curve" smooth="yes"/>
      <point x="780.38" y="1409.79"/>
      <point x="766.04" y="1372.74"/>
      <point x="761.08" y="1346.14" type="curve" smooth="yes"/>
      <point x="743.48" y="1251.62"/>
      <point x="819.35" y="1181.28"/>
      <point x="941.26" y="1158.78" type="curve" smooth="yes"/>
      <point x="1154.49" y="1119.42"/>
      <point x="1346.94" y="1297.21"/>
      <point x="1494.26" y="1341.85" type="curve" smooth="yes"/>
      <point x="1701.21" y="1404.56"/>
      <point x="1912.08" y="1371.15"/>
      <point x="2115.27" y="1265.38" type="curve" smooth="yes"/>
      <point x="2158.42" y="1242.92"/>
      <point x="2200.91" y="1221.69"/>
      <point x="2241.91" y="1203.75" type="curve"/>
      <point x="2073.78" y="1221.8"/>
      <point x="1900.81" y="1251.87"/>
      <point x="1702.21" y="1119.06" type="curve" smooth="yes"/>
      <point x="1596.8" y="1048.57"/>
      <point x="1555.39" y="1013.14"/>
      <point x="1444.35" y="984.15" type="curve"/>
      <point x="1444.35" y="984.15"/>
      <point x="1324.87" y="901.75"/>
      <point x="1354.36" y="875.9" type="curve" smooth="yes"/>
      <point x="1370.54" y="861.72" type="line" smooth="yes"/>
      <point x="1407.55" y="829.3"/>
      <point x="1459.29" y="812.24"/>
      <point x="1510.45" y="801.29" type="curve"/>
      <point x="1403.31" y="797.46"/>
      <point x="1282.52" y="797.48"/>
      <point x="1128.23" y="631.87" type="curve" smooth="yes"/>
      <point x="1105.57" y="607.55" type="line"/>
      <point x="1105.57" y="607.55"/>
      <point x="1029.14" y="530.51"/>
      <point x="1088" y="540.01" type="curve" smooth="yes"/>
      <point x="1120.82" y="545.3" type="line" smooth="yes"/>
      <point x="1163.19" y="552.13"/>
      <point x="1292.64" y="457.43"/>
      <point x="1409.36" y="390.13" type="curve" smooth="yes"/>
      <point x="1484.6" y="346.75"/>
      <point x="1562.38" y="335.09"/>
      <point x="1600.79" y="324.02" type="curve" smooth="yes"/>
      <point x="1640.24" y="312.65"/>
      <point x="1710.71" y="316.88"/>
      <point x="1793.76" y="327.99" type="curve"/>
      <point x="1735.7" y="307.12"/>
      <point x="1689.38" y="295.06"/>
      <point x="1661.27" y="294.99" type="curve" smooth="yes"/>
      <point x="1609.4" y="294.87"/>
      <point x="1532.86" y="277.14"/>
      <point x="1441.76" y="308.45" type="curve" smooth="yes"/>
      <point x="1305.76" y="355.18"/>
      <point x="1151.27" y="479.28"/>
      <point x="1030.87" y="419.83" type="curve" smooth="yes"/>
      <point x="1021.25" y="415.08"/>
      <point x="1008.61" y="407.65"/>
      <point x="993.34" y="395.29" type="curve" smooth="yes"/>
      <point x="905.3" y="324.05"/>
      <point x="933.49" y="330.85"/>
      <point x="840.49" y="301.45" type="curve"/>
      <point x="840.49" y="301.45"/>
      <point x="721.68" y="218.95"/>
      <point x="753.03" y="193.64" type="curve" smooth="yes"/>
      <point x="769.56" y="180.3" type="line" smooth="yes"/>
      <point x="824.34" y="136.07"/>
      <point x="850.53" y="80.3"/>
      <point x="904.45" y="40.69" type="curve"/>
      <point x="753.04" y="55.76"/>
      <point x="578.92" y="223.82"/>
      <point x="377.54" y="147.64" type="curve" smooth="yes"/>
      <point x="343.78" y="134.86"/>
      <point x="304.02" y="113.18"/>
      <point x="260.83" y="77.92" type="curve" smooth="yes"/>
      <point x="160.01" y="-4.39"/>
      <point x="107.73" y="-104.97"/>
      <point x="111.99" y="-183.93" type="curve" smooth="yes"/>
      <point x="112.95" y="-201.82" type="line" smooth="yes"/>
      <point x="113.61" y="-214.12"/>
      <point x="127.03" y="-215.11"/>
      <point x="146.24" y="-204.83" type="curve" smooth="yes"/>
      <point x="232.94" y="-158.44"/>
      <point x="293.63" y="-163.07"/>
      <point x="398.92" y="-221.19" type="curve" smooth="yes"/>
      <point x="415.78" y="-230.5"/>
      <point x="433.93" y="-238.13"/>
      <point x="451.24" y="-244" type="curve"/>
      <point x="411.12" y="-248.85"/>
      <point x="371.62" y="-248.51"/>
      <point x="330.4" y="-238.62" type="curve" smooth="yes"/>
      <point x="147.78" y="-194.78"/>
      <point x="-32.36" y="-463.8"/>
      <point x="-153.18" y="-441.03" type="curve" smooth="yes"/>
      <point x="-168.97" y="-438.05"/>
      <point x="-203.83" y="-460.76"/>
      <point x="-229.97" y="-491.2" type="curve" smooth="yes"/>
      <point x="-256.11" y="-521.64"/>
      <point x="-264.55" y="-549.32"/>
      <point x="-248.75" y="-552.3" type="curve" smooth="yes"/>
      <point x="-66.36" y="-586.67"/>
      <point x="102.33" y="-318.12"/>
      <point x="233.56" y="-349.62" type="curve" smooth="yes"/>
      <point x="377.27" y="-384.12"/>
      <point x="519.01" y="-312.4"/>
      <point x="651.59" y="-287.9" type="curve" smooth="yes"/>
      <point x="655.04" y="-287.26"/>
      <point x="658.49" y="-286.65"/>
      <point x="661.95" y="-286.07" type="curve"/>
      <point x="750.86" y="-175.03" type="line"/>
      <point x="663.73" y="-154.51"/>
      <point x="575.63" y="-153.35"/>
      <point x="501.13" y="-112.23" type="curve" smooth="yes"/>
      <point x="405.42" y="-59.4"/>
      <point x="338.81" y="-38.76"/>
      <point x="223.69" y="-91.29" type="curve"/>
      <point x="220.63" y="-21.99"/>
      <point x="256.21" y="7.06"/>
      <point x="264.05" y="13.43" type="curve" smooth="yes"/>
      <point x="274.53" y="21.96"/>
      <point x="293.17" y="33.72"/>
      <point x="313.29" y="41.34" type="curve" smooth="yes"/>
      <point x="464.36" y="98.48"/>
      <point x="660.81" y="-70.11"/>
      <point x="834.56" y="-72.25" type="curve" smooth="yes"/>
      <point x="959.96" y="-73.79"/>
      <point x="1134.89" y="-57.96"/>
      <point x="1283.86" y="22.05" type="curve" smooth="yes"/>
      <point x="1289.37" y="25.01"/>
      <point x="1294.91" y="28.1"/>
      <point x="1300.48" y="31.33" type="curve" smooth="yes"/>
      <point x="1362.21" y="67.18"/>
      <point x="1356.08" y="132.76"/>
      <point x="1356.08" y="132.76" type="curve"/>
      <point x="1279.42" y="110.92"/>
      <point x="1180.83" y="97.03"/>
      <point x="1102.46" y="110.44" type="curve" smooth="yes"/>
      <point x="993.53" y="129.08"/>
      <point x="967.26" y="194.19"/>
      <point x="906.34" y="257.92" type="curve"/>
      <point x="937.59" y="280.31"/>
      <point x="958.74" y="299.68"/>
      <point x="983.6" y="320.22" type="curve"/>
      <point x="1046.46" y="333.2"/>
      <point x="1212.73" y="242.77"/>
      <point x="1342.76" y="198.09" type="curve" smooth="yes"/>
      <point x="1439.31" y="164.91"/>
      <point x="1528.96" y="183.1"/>
      <point x="1571.93" y="183.2" type="curve" smooth="yes"/>
      <point x="1682.17" y="183.47"/>
      <point x="1928.61" y="303.61"/>
      <point x="2121.24" y="390.62" type="curve" smooth="yes"/>
      <point x="2123.86" y="391.8"/>
      <point x="2126.46" y="392.98"/>
      <point x="2129.06" y="394.15" type="curve"/>
      <point x="2129.06" y="394.15"/>
      <point x="2195.51" y="500.71"/>
      <point x="2195.51" y="500.71" type="curve"/>
      <point x="2007.2" y="456.49"/>
      <point x="1768.73" y="414.56"/>
      <point x="1698.71" y="434.74" type="curve" smooth="yes"/>
      <point x="1657.32" y="446.66"/>
      <point x="1583.92" y="457.39"/>
      <point x="1511.86" y="498.93" type="curve" smooth="yes"/>
      <point x="1410.81" y="557.19"/>
      <point x="1309.51" y="639.81"/>
      <point x="1236.92" y="655.12" type="curve"/>
      <point x="1305.36" y="689.02"/>
      <point x="1402.28" y="686.72"/>
      <point x="1521.14" y="693.09" type="curve" smooth="yes"/>
      <point x="1639.84" y="699.46"/>
      <point x="1734.71" y="735.78"/>
      <point x="1834.41" y="782.67" type="curve" smooth="yes"/>
      <point x="1880.83" y="804.5"/>
      <point x="1901.35" y="889.04"/>
      <point x="1901.35" y="889.04" type="curve"/>
      <point x="1898.94" y="888.59"/>
      <point x="1896.5" y="888.16"/>
      <point x="1894.03" y="887.75" type="curve" smooth="yes"/>
      <point x="1851.13" y="880.52"/>
      <point x="1800.01" y="878.05"/>
      <point x="1752.83" y="887.86" type="curve" smooth="yes"/>
      <point x="1688.98" y="901.14"/>
      <point x="1596.72" y="906.01"/>
      <point x="1526.54" y="937.11" type="curve"/>
      <point x="1580.33" y="966.79"/>
      <point x="1627.5" y="1000.44"/>
      <point x="1678.3" y="1034.41" type="curve" smooth="yes"/>
      <point x="1933.71" y="1205.21"/>
      <point x="2371.31" y="903.64"/>
      <point x="2729.38" y="1218.1" type="curve" smooth="yes"/>
      <point x="2824.47" y="1301.61"/>
      <point x="2745.47" y="1294.72"/>
      <point x="2745.47" y="1294.72" type="curve"/>
      <point x="2589.17" y="1212.72"/>
      <point x="2415.14" y="1271.45"/>
      <point x="2217.05" y="1374.57" type="curve" smooth="yes"/>
      <point x="2011" y="1481.83"/>
      <point x="1797.06" y="1520.73"/>
      <point x="1565.57" y="1450.58" type="curve" smooth="yes"/>
      <point x="1360.51" y="1388.44"/>
      <point x="1232.18" y="1234.01"/>
      <point x="1036.72" y="1270.08" type="curve" smooth="yes"/>
      <point x="922.19" y="1291.22"/>
      <point x="860.92" y="1367.03"/>
      <point x="871.92" y="1426.1" type="curve" smooth="yes"/>
      <point x="872.88" y="1431.26"/>
      <point x="874.26" y="1435.63"/>
      <point x="875.54" y="1438.81" type="curve"/>
      <point x="882.81" y="1443.45"/>
      <point x="898.41" y="1451.73"/>
      <point x="918.49" y="1459.02" type="curve" smooth="yes"/>
      <point x="1053.41" y="1508.05"/>
      <point x="1175.71" y="1524.31"/>
      <point x="1324.29" y="1662.64" type="curve" smooth="yes"/>
      <point x="1418.26" y="1750.13"/>
      <point x="1331.6" y="1732.75"/>
      <point x="1331.6" y="1732.75" type="curve"/>
      <point x="1328.84" y="1731.15"/>
      <point x="1326.1" y="1729.57"/>
      <point x="1323.37" y="1728.02" type="curve" smooth="yes"/>
      <point x="1226.28" y="1672.84"/>
      <point x="1133.76" y="1638.99"/>
      <point x="994.8" y="1701.4" type="curve" smooth="yes"/>
      <point x="842.08" y="1770"/>
      <point x="724.76" y="1745.84"/>
      <point x="556.8" y="1628.78" type="curve" smooth="yes"/>
      <point x="477.43" y="1573.47"/>
      <point x="270.64" y="1403.04"/>
      <point x="176.15" y="1529.32" type="curve" smooth="yes"/>
      <point x="173.99" y="1532.21"/>
      <point x="172.77" y="1534.14"/>
      <point x="171.11" y="1537.42" type="curve"/>
      <point x="198.22" y="1551.26"/>
      <point x="281.2" y="1568.84"/>
      <point x="353.56" y="1653.97" type="curve" smooth="yes"/>
      <point x="445.67" y="1762.37"/>
      <point x="423.43" y="1772.76"/>
      <point x="523.97" y="1772.8" type="curve" smooth="yes"/>
      <point x="527.39" y="1772.8"/>
      <point x="530.9" y="1772.74"/>
      <point x="534.51" y="1772.62" type="curve"/>
      <point x="630.62" y="1883.18" type="line"/>
      <point x="525.63" y="1935.33"/>
      <point x="412.03" y="1932.09"/>
      <point x="275.57" y="1846.4" type="curve" smooth="yes"/>
      <point x="178.4" y="1785.38"/>
      <point x="59.92" y="1717.46"/>
      <point x="-45.9" y="1828.31" type="curve" smooth="yes"/>
      <point x="-94.86" y="1884.12"/>
      <point x="-95.1" y="1899.14"/>
      <point x="-155.89" y="1901.56" type="curve" smooth="yes"/>
      <point x="-173.67" y="1902.27"/>
      <point x="-209.11" y="1877.4"/>
    </contour>
  </outline>
</glyph>
<glyph name="uniE0C2" format="2">
  <advance width="2048"/>
  <unicode hex="E0C2"/>
  <note>
uniE0C2
</note>
  <outline>
    <contour>
      <point x="-146.39" y="445.67" type="curve" smooth="yes"/>
      <point x="-146.4" y="445.63" type="line" smooth="yes"/>
      <point x="43.94" y="400.93"/>
      <point x="283.22" y="356.96"/>
      <point x="361.03" y="379.38" type="curve" smooth="yes"/>
      <point x="400.93" y="390.87"/>
      <point x="476.52" y="402.07"/>
      <point x="550.17" y="444.53" type="curve" smooth="yes"/>
      <point x="666.85" y="511.8"/>
      <point x="786.62" y="610.95"/>
      <point x="849.21" y="600.86" type="curve" smooth="yes"/>
      <point x="882.03" y="595.57" type="line"/>
      <point x="859.37" y="619.89" type="line" smooth="yes"/>
      <point x="729.32" y="759.49"/>
      <point x="609.35" y="740.21"/>
      <point x="446.07" y="748.97" type="curve" smooth="yes"/>
      <point x="331.12" y="755.14"/>
      <point x="245.6" y="788.39"/>
      <point x="149.45" y="833.61" type="curve"/>
      <point x="196.85" y="824.85"/>
      <point x="253.65" y="821.4"/>
      <point x="305.98" y="832.28" type="curve" smooth="yes"/>
      <point x="384.85" y="848.68"/>
      <point x="515.85" y="852.28"/>
      <point x="587.6" y="915.14" type="curve" smooth="yes"/>
      <point x="603.78" y="929.32" type="line"/>
      <point x="484.86" y="960.37"/>
      <point x="421.3" y="1009.35"/>
      <point x="320.52" y="1076.74" type="curve" smooth="yes"/>
      <point x="-14.26" y="1300.62"/>
      <point x="-408.86" y="979.9"/>
      <point x="-711.38" y="1245.58" type="curve"/>
      <point x="-522.68" y="1146.58"/>
      <point x="-352.04" y="1217.6"/>
      <point x="-155.38" y="1319.98" type="curve" smooth="yes"/>
      <point x="49.24" y="1426.49"/>
      <point x="261.65" y="1462.65"/>
      <point x="480.87" y="1396.22" type="curve" smooth="yes"/>
      <point x="657.06" y="1342.83"/>
      <point x="817.45" y="1176.72"/>
      <point x="1021.79" y="1214.44" type="curve" smooth="yes"/>
      <point x="1140.01" y="1236.26"/>
      <point x="1208.58" y="1309.33"/>
      <point x="1194.28" y="1386.13" type="curve" smooth="yes"/>
      <point x="1184.86" y="1436.72"/>
      <point x="1139.87" y="1483.22"/>
      <point x="1059.39" y="1512.46" type="curve" smooth="yes"/>
      <point x="912.47" y="1565.84"/>
      <point x="805.34" y="1586.32"/>
      <point x="698.42" y="1685.87" type="curve"/>
      <point x="815.27" y="1618.09"/>
      <point x="921.31" y="1581.42"/>
      <point x="1066.37" y="1646.57" type="curve" smooth="yes"/>
      <point x="1218.02" y="1714.69"/>
      <point x="1321.92" y="1686.79"/>
      <point x="1463.44" y="1588.16" type="curve" smooth="yes"/>
      <point x="1537.79" y="1536.34"/>
      <point x="1785.37" y="1339.45"/>
      <point x="1888.45" y="1477.2" type="curve" smooth="yes"/>
      <point x="1912.24" y="1509"/>
      <point x="1892.35" y="1537.84"/>
      <point x="1864.88" y="1557.83" type="curve" smooth="yes"/>
      <point x="1811.98" y="1596.32"/>
      <point x="1713.02" y="1627.93"/>
      <point x="1686.94" y="1658.61" type="curve" smooth="yes"/>
      <point x="1600.08" y="1760.83"/>
      <point x="1560.9" y="1832.91"/>
      <point x="1430.9" y="1828.52" type="curve"/>
      <point x="1534.39" y="1879.93"/>
      <point x="1642.87" y="1869.52"/>
      <point x="1750.62" y="1801.85" type="curve" smooth="yes"/>
      <point x="1862.35" y="1731.69"/>
      <point x="1999.87" y="1660.22"/>
      <point x="2109.98" y="1775.56" type="curve" smooth="yes"/>
      <point x="2161.17" y="1833.91"/>
      <point x="2155.27" y="1843.43"/>
      <point x="2212.17" y="1845.69" type="curve"/>
      <point x="2215.45" y="1676.32"/>
      <point x="2205.36" y="1490.46"/>
      <point x="2205.3" y="1348.12" type="curve" smooth="yes"/>
      <point x="2205.18" y="1058.39"/>
      <point x="2207.74" y="-279.09"/>
      <point x="2211.75" y="-496.64" type="curve"/>
      <point x="2060.14" y="-525.21"/>
      <point x="1885.72" y="-256.42"/>
      <point x="1728.8" y="-294.09" type="curve" smooth="yes"/>
      <point x="1587.74" y="-327.95"/>
      <point x="1453.93" y="-255"/>
      <point x="1308.3" y="-230.51" type="curve"/>
      <point x="1393.36" y="-210.48"/>
      <point x="1483.54" y="-209.3"/>
      <point x="1560.76" y="-166.68" type="curve" smooth="yes"/>
      <point x="1665.53" y="-108.85"/>
      <point x="1731.56" y="-96.99"/>
      <point x="1841.95" y="-156.05" type="curve"/>
      <point x="1842.91" y="-138.16" type="line" smooth="yes"/>
      <point x="1848.91" y="-26.94"/>
      <point x="1746.9" y="63.66"/>
      <point x="1665.37" y="94.52" type="curve" smooth="yes"/>
      <point x="1485.01" y="162.74"/>
      <point x="1294.93" y="-14.31"/>
      <point x="1131.27" y="-16.32" type="curve" smooth="yes"/>
      <point x="1003.4" y="-17.89"/>
      <point x="818.9" y="4.01"/>
      <point x="691.13" y="78.22" type="curve"/>
      <point x="772.48" y="55.05"/>
      <point x="874.03" y="40.8"/>
      <point x="955.89" y="54.81" type="curve" smooth="yes"/>
      <point x="1088.42" y="77.49"/>
      <point x="1105.29" y="166.5"/>
      <point x="1188.85" y="233.97" type="curve" smooth="yes"/>
      <point x="1205.38" y="247.31" type="line"/>
      <point x="1105.53" y="278.88"/>
      <point x="1092.79" y="300.82"/>
      <point x="1016.59" y="362.48" type="curve" smooth="yes"/>
      <point x="947.06" y="418.77"/>
      <point x="764.87" y="303.59"/>
      <point x="618.53" y="253.31" type="curve" smooth="yes"/>
      <point x="524.71" y="221.06"/>
      <point x="441.62" y="239.02"/>
      <point x="394.19" y="239.14" type="curve" smooth="yes"/>
      <point x="295.9" y="239.38"/>
      <point x="48.72" y="357.71"/>
    </contour>
  </outline>
</glyph>
<glyph name="uniE0C3" format="2">
  <advance width="2048"/>
  <unicode hex="E0C3"/>
  <note>
uniE0C3
</note>
  <outline>
    <contour>
      <point x="2340.6" y="1846.96" type="curve" smooth="yes"/>
      <point x="2365.37" y="1816.52"/>
      <point x="2371.36" y="1790.48"/>
      <point x="2353.58" y="1789.77" type="curve" smooth="yes"/>
      <point x="2300.58" y="1787.66"/>
      <point x="2312.61" y="1783.65"/>
      <point x="2259.2" y="1722.76" type="curve"/>
      <point x="2144.81" y="1602.94"/>
      <point x="1988.24" y="1677.95"/>
      <point x="1861.96" y="1757.25" type="curve" smooth="yes"/>
      <point x="1812.05" y="1788.59"/>
      <point x="1750.2" y="1808.86"/>
      <point x="1686.09" y="1804.32" type="curve"/>
      <point x="1737.97" y="1758.4"/>
      <point x="1769.88" y="1714.59"/>
      <point x="1798.18" y="1680.43" type="curve"/>
      <point x="1831.68" y="1662.13"/>
      <point x="1891.16" y="1642.28"/>
      <point x="1954.12" y="1596.46" type="curve" smooth="yes"/>
      <point x="1964.3" y="1589.05"/>
      <point x="1976.08" y="1579.61"/>
      <point x="1988.83" y="1567.34" type="curve" smooth="yes"/>
      <point x="2065.77" y="1493.27"/>
      <point x="2056.16" y="1449.05"/>
      <point x="2038.2" y="1425.05" type="curve" smooth="yes"/>
      <point x="1926.54" y="1275.83"/>
      <point x="1638.16" y="1499.19"/>
      <point x="1568.83" y="1547.5" type="curve" smooth="yes"/>
      <point x="1453.75" y="1627.71"/>
      <point x="1363.28" y="1659.35"/>
      <point x="1212.69" y="1591.71" type="curve" smooth="yes"/>
      <point x="1183.37" y="1578.54"/>
      <point x="1154.97" y="1569.28"/>
      <point x="1128.33" y="1563.68" type="curve"/>
      <point x="1159.83" y="1551.67"/>
      <point x="1187.6" y="1537.94"/>
      <point x="1219.73" y="1514.87" type="curve" smooth="yes"/>
      <point x="1240.99" y="1499.6"/>
      <point x="1264.35" y="1479.38"/>
      <point x="1285.13" y="1456.05" type="curve" smooth="yes"/>
      <point x="1326.33" y="1409.79"/>
      <point x="1340.67" y="1372.74"/>
      <point x="1345.63" y="1346.14" type="curve" smooth="yes"/>
      <point x="1363.23" y="1251.62"/>
      <point x="1287.36" y="1181.28"/>
      <point x="1165.45" y="1158.78" type="curve" smooth="yes"/>
      <point x="952.22" y="1119.42"/>
      <point x="759.77" y="1297.21"/>
      <point x="612.45" y="1341.85" type="curve" smooth="yes"/>
      <point x="405.5" y="1404.56"/>
      <point x="194.63" y="1371.15"/>
      <point x="-8.56" y="1265.38" type="curve" smooth="yes"/>
      <point x="-51.71" y="1242.92"/>
      <point x="-94.2" y="1221.69"/>
      <point x="-135.2" y="1203.75" type="curve"/>
      <point x="32.93" y="1221.8"/>
      <point x="205.9" y="1251.87"/>
      <point x="404.5" y="1119.06" type="curve" smooth="yes"/>
      <point x="509.91" y="1048.57"/>
      <point x="551.32" y="1013.14"/>
      <point x="662.36" y="984.15" type="curve"/>
      <point x="662.36" y="984.15"/>
      <point x="781.84" y="901.75"/>
      <point x="752.35" y="875.9" type="curve" smooth="yes"/>
      <point x="736.17" y="861.72" type="line" smooth="yes"/>
      <point x="699.17" y="829.3"/>
      <point x="647.42" y="812.24"/>
      <point x="596.26" y="801.29" type="curve"/>
      <point x="703.4" y="797.46"/>
      <point x="824.19" y="797.48"/>
      <point x="978.48" y="631.87" type="curve" smooth="yes"/>
      <point x="1001.14" y="607.55" type="line"/>
      <point x="1001.14" y="607.55"/>
      <point x="1077.57" y="530.51"/>
      <point x="1018.71" y="540.01" type="curve" smooth="yes"/>
      <point x="985.89" y="545.3" type="line" smooth="yes"/>
      <point x="943.52" y="552.13"/>
      <point x="814.07" y="457.43"/>
      <point x="697.35" y="390.13" type="curve" smooth="yes"/>
      <point x="622.11" y="346.75"/>
      <point x="544.33" y="335.09"/>
      <point x="505.92" y="324.02" type="curve" smooth="yes"/>
      <point x="466.47" y="312.65"/>
      <point x="396" y="316.88"/>
      <point x="312.95" y="327.99" type="curve"/>
      <point x="371.01" y="307.12"/>
      <point x="417.33" y="295.06"/>
      <point x="445.44" y="294.99" type="curve" smooth="yes"/>
      <point x="497.32" y="294.87"/>
      <point x="573.86" y="277.14"/>
      <point x="664.95" y="308.45" type="curve" smooth="yes"/>
      <point x="800.95" y="355.18"/>
      <point x="955.44" y="479.28"/>
      <point x="1075.84" y="419.83" type="curve" smooth="yes"/>
      <point x="1085.46" y="415.08"/>
      <point x="1098.1" y="407.65"/>
      <point x="1113.37" y="395.29" type="curve" smooth="yes"/>
      <point x="1201.41" y="324.05"/>
      <point x="1173.22" y="330.85"/>
      <point x="1266.22" y="301.45" type="curve"/>
      <point x="1266.22" y="301.45"/>
      <point x="1385.03" y="218.95"/>
      <point x="1353.68" y="193.64" type="curve" smooth="yes"/>
      <point x="1337.15" y="180.3" type="line" smooth="yes"/>
      <point x="1282.37" y="136.07"/>
      <point x="1256.18" y="80.3"/>
      <point x="1202.26" y="40.69" type="curve"/>
      <point x="1353.68" y="55.76"/>
      <point x="1527.79" y="223.82"/>
      <point x="1729.17" y="147.64" type="curve" smooth="yes"/>
      <point x="1762.93" y="134.86"/>
      <point x="1802.69" y="113.18"/>
      <point x="1845.88" y="77.92" type="curve" smooth="yes"/>
      <point x="1946.7" y="-4.39"/>
      <point x="1998.98" y="-104.97"/>
      <point x="1994.72" y="-183.93" type="curve" smooth="yes"/>
      <point x="1993.76" y="-201.82" type="line" smooth="yes"/>
      <point x="1993.1" y="-214.12"/>
      <point x="1979.68" y="-215.11"/>
      <point x="1960.47" y="-204.83" type="curve" smooth="yes"/>
      <point x="1873.77" y="-158.44"/>
      <point x="1813.08" y="-163.07"/>
      <point x="1707.79" y="-221.19" type="curve" smooth="yes"/>
      <point x="1690.93" y="-230.5"/>
      <point x="1672.78" y="-238.13"/>
      <point x="1655.47" y="-244" type="curve"/>
      <point x="1695.59" y="-248.85"/>
      <point x="1735.09" y="-248.51"/>
      <point x="1776.31" y="-238.62" type="curve" smooth="yes"/>
      <point x="1958.93" y="-194.78"/>
      <point x="2139.07" y="-463.8"/>
      <point x="2259.9" y="-441.03" type="curve" smooth="yes"/>
      <point x="2275.69" y="-438.05"/>
      <point x="2310.55" y="-460.76"/>
      <point x="2336.69" y="-491.2" type="curve" smooth="yes"/>
      <point x="2362.83" y="-521.64"/>
      <point x="2371.27" y="-549.32"/>
      <point x="2355.47" y="-552.3" type="curve" smooth="yes"/>
      <point x="2173.08" y="-586.67"/>
      <point x="2004.39" y="-318.12"/>
      <point x="1873.16" y="-349.62" type="curve" smooth="yes"/>
      <point x="1729.46" y="-384.12"/>
      <point x="1587.71" y="-312.4"/>
      <point x="1455.13" y="-287.9" type="curve" smooth="yes"/>
      <point x="1451.68" y="-287.26"/>
      <point x="1448.23" y="-286.65"/>
      <point x="1444.77" y="-286.07" type="curve"/>
      <point x="1355.86" y="-175.03" type="line"/>
      <point x="1442.99" y="-154.51"/>
      <point x="1531.09" y="-153.35"/>
      <point x="1605.59" y="-112.23" type="curve" smooth="yes"/>
      <point x="1701.3" y="-59.4"/>
      <point x="1767.91" y="-38.76"/>
      <point x="1883.03" y="-91.29" type="curve"/>
      <point x="1886.09" y="-21.99"/>
      <point x="1850.51" y="7.06"/>
      <point x="1842.67" y="13.43" type="curve" smooth="yes"/>
      <point x="1832.19" y="21.96"/>
      <point x="1813.55" y="33.72"/>
      <point x="1793.43" y="41.34" type="curve" smooth="yes"/>
      <point x="1642.36" y="98.48"/>
      <point x="1445.91" y="-70.11"/>
      <point x="1272.16" y="-72.25" type="curve" smooth="yes"/>
      <point x="1146.76" y="-73.79"/>
      <point x="971.83" y="-57.96"/>
      <point x="822.86" y="22.05" type="curve" smooth="yes"/>
      <point x="817.35" y="25.01"/>
      <point x="811.81" y="28.1"/>
      <point x="806.24" y="31.33" type="curve" smooth="yes"/>
      <point x="744.51" y="67.18"/>
      <point x="750.64" y="132.76"/>
      <point x="750.64" y="132.76" type="curve"/>
      <point x="827.3" y="110.92"/>
      <point x="925.89" y="97.03"/>
      <point x="1004.26" y="110.44" type="curve" smooth="yes"/>
      <point x="1113.19" y="129.08"/>
      <point x="1139.46" y="194.19"/>
      <point x="1200.38" y="257.92" type="curve"/>
      <point x="1169.13" y="280.31"/>
      <point x="1147.98" y="299.68"/>
      <point x="1123.12" y="320.22" type="curve"/>
      <point x="1060.26" y="333.2"/>
      <point x="893.99" y="242.77"/>
      <point x="763.96" y="198.09" type="curve" smooth="yes"/>
      <point x="667.41" y="164.91"/>
      <point x="577.76" y="183.1"/>
      <point x="534.8" y="183.2" type="curve" smooth="yes"/>
      <point x="424.56" y="183.47"/>
      <point x="178.12" y="303.61"/>
      <point x="-14.51" y="390.62" type="curve" smooth="yes"/>
      <point x="-17.13" y="391.8"/>
      <point x="-19.73" y="392.98"/>
      <point x="-22.33" y="394.15" type="curve"/>
      <point x="-22.33" y="394.15"/>
      <point x="-88.78" y="500.71"/>
      <point x="-88.78" y="500.71" type="curve"/>
      <point x="99.53" y="456.49"/>
      <point x="338" y="414.56"/>
      <point x="408.02" y="434.74" type="curve" smooth="yes"/>
      <point x="449.41" y="446.66"/>
      <point x="522.81" y="457.39"/>
      <point x="594.87" y="498.93" type="curve" smooth="yes"/>
      <point x="695.92" y="557.19"/>
      <point x="797.22" y="639.81"/>
      <point x="869.81" y="655.12" type="curve"/>
      <point x="801.37" y="689.02"/>
      <point x="704.45" y="686.72"/>
      <point x="585.59" y="693.09" type="curve" smooth="yes"/>
      <point x="466.89" y="699.46"/>
      <point x="372.02" y="735.78"/>
      <point x="272.32" y="782.67" type="curve" smooth="yes"/>
      <point x="225.9" y="804.5"/>
      <point x="205.38" y="889.04"/>
      <point x="205.38" y="889.04" type="curve"/>
      <point x="207.79" y="888.59"/>
      <point x="210.23" y="888.16"/>
      <point x="212.7" y="887.75" type="curve" smooth="yes"/>
      <point x="255.6" y="880.52"/>
      <point x="306.72" y="878.05"/>
      <point x="353.9" y="887.86" type="curve" smooth="yes"/>
      <point x="417.75" y="901.14"/>
      <point x="510.01" y="906.01"/>
      <point x="580.19" y="937.11" type="curve"/>
      <point x="526.4" y="966.79"/>
      <point x="479.23" y="1000.44"/>
      <point x="428.43" y="1034.41" type="curve" smooth="yes"/>
      <point x="173.02" y="1205.21"/>
      <point x="-264.58" y="903.64"/>
      <point x="-622.65" y="1218.1" type="curve" smooth="yes"/>
      <point x="-717.74" y="1301.61"/>
      <point x="-638.74" y="1294.72"/>
      <point x="-638.74" y="1294.72" type="curve"/>
      <point x="-482.44" y="1212.72"/>
      <point x="-308.41" y="1271.45"/>
      <point x="-110.32" y="1374.57" type="curve" smooth="yes"/>
      <point x="95.73" y="1481.83"/>
      <point x="309.67" y="1520.73"/>
      <point x="541.16" y="1450.58" type="curve" smooth="yes"/>
      <point x="746.22" y="1388.44"/>
      <point x="874.55" y="1234.01"/>
      <point x="1070.01" y="1270.08" type="curve" smooth="yes"/>
      <point x="1184.54" y="1291.22"/>
      <point x="1245.81" y="1367.03"/>
      <point x="1234.81" y="1426.1" type="curve" smooth="yes"/>
      <point x="1233.85" y="1431.26"/>
      <point x="1232.47" y="1435.63"/>
      <point x="1231.19" y="1438.81" type="curve"/>
      <point x="1223.92" y="1443.45"/>
      <point x="1208.32" y="1451.73"/>
      <point x="1188.24" y="1459.02" type="curve" smooth="yes"/>
      <point x="1053.32" y="1508.05"/>
      <point x="931.02" y="1524.31"/>
      <point x="782.44" y="1662.64" type="curve" smooth="yes"/>
      <point x="688.47" y="1750.13"/>
      <point x="775.13" y="1732.75"/>
      <point x="775.13" y="1732.75" type="curve"/>
      <point x="777.89" y="1731.15"/>
      <point x="780.63" y="1729.57"/>
      <point x="783.36" y="1728.02" type="curve" smooth="yes"/>
      <point x="880.45" y="1672.84"/>
      <point x="972.97" y="1638.99"/>
      <point x="1111.93" y="1701.4" type="curve" smooth="yes"/>
      <point x="1264.65" y="1770"/>
      <point x="1381.97" y="1745.84"/>
      <point x="1549.93" y="1628.78" type="curve" smooth="yes"/>
      <point x="1629.3" y="1573.47"/>
      <point x="1836.09" y="1403.04"/>
      <point x="1930.58" y="1529.32" type="curve" smooth="yes"/>
      <point x="1932.74" y="1532.21"/>
      <point x="1933.96" y="1534.14"/>
      <point x="1935.62" y="1537.42" type="curve"/>
      <point x="1908.51" y="1551.26"/>
      <point x="1825.53" y="1568.84"/>
      <point x="1753.17" y="1653.97" type="curve" smooth="yes"/>
      <point x="1661.06" y="1762.37"/>
      <point x="1683.3" y="1772.76"/>
      <point x="1582.76" y="1772.8" type="curve" smooth="yes"/>
      <point x="1579.34" y="1772.8"/>
      <point x="1575.83" y="1772.74"/>
      <point x="1572.22" y="1772.62" type="curve"/>
      <point x="1476.11" y="1883.18" type="line"/>
      <point x="1581.1" y="1935.33"/>
      <point x="1694.7" y="1932.09"/>
      <point x="1831.16" y="1846.4" type="curve" smooth="yes"/>
      <point x="1928.33" y="1785.38"/>
      <point x="2046.81" y="1717.46"/>
      <point x="2152.63" y="1828.31" type="curve" smooth="yes"/>
      <point x="2201.59" y="1884.12"/>
      <point x="2201.83" y="1899.14"/>
      <point x="2262.62" y="1901.56" type="curve" smooth="yes"/>
      <point x="2280.4" y="1902.27"/>
      <point x="2315.84" y="1877.4"/>
    </contour>
  </outline>
</glyph>
<glyph name="uniE0C4" format="2">
  <advance width="2048"/>
  <unicode hex="E0C4"/>
  <note>
uniE0C4
</note>
  <outline>
    <contour>
      <point x="804" y="1701" type="line"/>
      <point x="804" y="1856" type="line"/>
      <point x="959" y="1856" type="line"/>
      <point x="959" y="1701" type="line"/>
    </contour>
    <contour>
      <point x="974" y="1886" type="curve" smooth="yes"/>
      <point x="789" y="1886" type="line" smooth="yes"/>
      <point x="782.56" y="1886"/>
      <point x="774" y="1880.08"/>
      <point x="774" y="1871" type="curve" smooth="yes"/>
      <point x="774" y="1686" type="line" smooth="yes"/>
      <point x="774" y="1679.56"/>
      <point x="779.92" y="1671"/>
      <point x="789" y="1671" type="curve" smooth="yes"/>
      <point x="974" y="1671" type="line" smooth="yes"/>
      <point x="980.44" y="1671"/>
      <point x="989" y="1676.92"/>
      <point x="989" y="1686" type="curve" smooth="yes"/>
      <point x="989" y="1871" type="line" smooth="yes"/>
      <point x="989" y="1877.44"/>
      <point x="983.08" y="1886"/>
    </contour>
    <contour>
      <point x="804" y="1701" type="line"/>
      <point x="804" y="1856" type="line"/>
      <point x="959" y="1856" type="line"/>
      <point x="959" y="1701" type="line"/>
    </contour>
    <contour>
      <point x="974" y="1886" type="curve" smooth="yes"/>
      <point x="789" y="1886" type="line" smooth="yes"/>
      <point x="782.56" y="1886"/>
      <point x="774" y="1880.08"/>
      <point x="774" y="1871" type="curve" smooth="yes"/>
      <point x="774" y="1686" type="line" smooth="yes"/>
      <point x="774" y="1679.56"/>
      <point x="779.92" y="1671"/>
      <point x="789" y="1671" type="curve" smooth="yes"/>
      <point x="974" y="1671" type="line" smooth="yes"/>
      <point x="980.44" y="1671"/>
      <point x="989" y="1676.92"/>
      <point x="989" y="1686" type="curve" smooth="yes"/>
      <point x="989" y="1871" type="line" smooth="yes"/>
      <point x="989" y="1877.44"/>
      <point x="983.08" y="1886"/>
    </contour>
    <contour>
      <point x="804" y="1701" type="line"/>
      <point x="804" y="1856" type="line"/>
      <point x="959" y="1856" type="line"/>
      <point x="959" y="1701" type="line"/>
    </contour>
    <contour>
      <point x="974" y="1886" type="curve" smooth="yes"/>
      <point x="789" y="1886" type="line" smooth="yes"/>
      <point x="782.56" y="1886"/>
      <point x="774" y="1880.08"/>
      <point x="774" y="1871" type="curve" smooth="yes"/>
      <point x="774" y="1686" type="line" smooth="yes"/>
      <point x="774" y="1679.56"/>
      <point x="779.92" y="1671"/>
      <point x="789" y="1671" type="curve" smooth="yes"/>
      <point x="974" y="1671" type="line" smooth="yes"/>
      <point x="980.44" y="1671"/>
      <point x="989" y="1676.92"/>
      <point x="989" y="1686" type="curve" smooth="yes"/>
      <point x="989" y="1871" type="line" smooth="yes"/>
      <point x="989" y="1877.44"/>
      <point x="983.08" y="1886"/>
    </contour>
    <contour>
      <point x="1827" y="1691" type="line"/>
      <point x="1827" y="1866" type="line"/>
      <point x="2002" y="1866" type="line"/>
      <point x="2002" y="1691" type="line"/>
    </contour>
    <contour>
      <point x="2007" y="1876" type="curve" smooth="yes"/>
      <point x="1822" y="1876" type="line" smooth="yes"/>
      <point x="1819.85" y="1876"/>
      <point x="1817" y="1874.03"/>
      <point x="1817" y="1871" type="curve" smooth="yes"/>
      <point x="1817" y="1686" type="line" smooth="yes"/>
      <point x="1817" y="1683.85"/>
      <point x="1818.97" y="1681"/>
      <point x="1822" y="1681" type="curve" smooth="yes"/>
      <point x="2007" y="1681" type="line" smooth="yes"/>
      <point x="2009.15" y="1681"/>
      <point x="2012" y="1682.97"/>
      <point x="2012" y="1686" type="curve" smooth="yes"/>
      <point x="2012" y="1871" type="line" smooth="yes"/>
      <point x="2012" y="1873.15"/>
      <point x="2010.03" y="1876"/>
    </contour>
    <contour>
      <point x="1827" y="1691" type="line"/>
      <point x="1827" y="1866" type="line"/>
      <point x="2002" y="1866" type="line"/>
      <point x="2002" y="1691" type="line"/>
    </contour>
    <contour>
      <point x="2007" y="1876" type="curve" smooth="yes"/>
      <point x="1822" y="1876" type="line" smooth="yes"/>
      <point x="1819.85" y="1876"/>
      <point x="1817" y="1874.03"/>
      <point x="1817" y="1871" type="curve" smooth="yes"/>
      <point x="1817" y="1686" type="line" smooth="yes"/>
      <point x="1817" y="1683.85"/>
      <point x="1818.97" y="1681"/>
      <point x="1822" y="1681" type="curve" smooth="yes"/>
      <point x="2007" y="1681" type="line" smooth="yes"/>
      <point x="2009.15" y="1681"/>
      <point x="2012" y="1682.97"/>
      <point x="2012" y="1686" type="curve" smooth="yes"/>
      <point x="2012" y="1871" type="line" smooth="yes"/>
      <point x="2012" y="1873.15"/>
      <point x="2010.03" y="1876"/>
    </contour>
    <contour>
      <point x="1827" y="1691" type="line"/>
      <point x="1827" y="1866" type="line"/>
      <point x="2002" y="1866" type="line"/>
      <point x="2002" y="1691" type="line"/>
    </contour>
    <contour>
      <point x="2007" y="1876" type="curve" smooth="yes"/>
      <point x="1822" y="1876" type="line" smooth="yes"/>
      <point x="1819.85" y="1876"/>
      <point x="1817" y="1874.03"/>
      <point x="1817" y="1871" type="curve" smooth="yes"/>
      <point x="1817" y="1686" type="line" smooth="yes"/>
      <point x="1817" y="1683.85"/>
      <point x="1818.97" y="1681"/>
      <point x="1822" y="1681" type="curve" smooth="yes"/>
      <point x="2007" y="1681" type="line" smooth="yes"/>
      <point x="2009.15" y="1681"/>
      <point x="2012" y="1682.97"/>
      <point x="2012" y="1686" type="curve" smooth="yes"/>
      <point x="2012" y="1871" type="line" smooth="yes"/>
      <point x="2012" y="1873.15"/>
      <point x="2010.03" y="1876"/>
    </contour>
    <contour>
      <point x="1499" y="1871" type="line"/>
      <point x="1314" y="1871" type="line"/>
      <point x="1314" y="1686" type="line"/>
      <point x="1499" y="1686" type="line"/>
    </contour>
    <contour>
      <point x="1499" y="1871" type="line"/>
      <point x="1314" y="1871" type="line"/>
      <point x="1314" y="1686" type="line"/>
      <point x="1499" y="1686" type="line"/>
    </contour>
    <contour>
      <point x="1499" y="1871" type="line"/>
      <point x="1314" y="1871" type="line"/>
      <point x="1314" y="1686" type="line"/>
      <point x="1499" y="1686" type="line"/>
    </contour>
    <contour>
      <point x="1234" y="1871" type="line"/>
      <point x="1049" y="1871" type="line"/>
      <point x="1049" y="1686" type="line"/>
      <point x="1234" y="1686" type="line"/>
    </contour>
    <contour>
      <point x="1234" y="1871" type="line"/>
      <point x="1049" y="1871" type="line"/>
      <point x="1049" y="1686" type="line"/>
      <point x="1234" y="1686" type="line"/>
    </contour>
    <contour>
      <point x="1234" y="1871" type="line"/>
      <point x="1049" y="1871" type="line"/>
      <point x="1049" y="1686" type="line"/>
      <point x="1234" y="1686" type="line"/>
    </contour>
    <contour>
      <point x="696" y="1871" type="line"/>
      <point x="511" y="1871" type="line"/>
      <point x="511" y="1686" type="line"/>
      <point x="696" y="1686" type="line"/>
    </contour>
    <contour>
      <point x="696" y="1871" type="line"/>
      <point x="511" y="1871" type="line"/>
      <point x="511" y="1686" type="line"/>
      <point x="696" y="1686" type="line"/>
    </contour>
    <contour>
      <point x="696" y="1871" type="line"/>
      <point x="511" y="1871" type="line"/>
      <point x="511" y="1686" type="line"/>
      <point x="696" y="1686" type="line"/>
    </contour>
    <contour>
      <point x="426" y="1871" type="line"/>
      <point x="241" y="1871" type="line"/>
      <point x="241" y="1686" type="line"/>
      <point x="426" y="1686" type="line"/>
    </contour>
    <contour>
      <point x="426" y="1871" type="line"/>
      <point x="241" y="1871" type="line"/>
      <point x="241" y="1686" type="line"/>
      <point x="426" y="1686" type="line"/>
    </contour>
    <contour>
      <point x="426" y="1871" type="line"/>
      <point x="241" y="1871" type="line"/>
      <point x="241" y="1686" type="line"/>
      <point x="426" y="1686" type="line"/>
    </contour>
    <contour>
      <point x="144" y="1871" type="line"/>
      <point x="-41" y="1871" type="line"/>
      <point x="-41" y="1686" type="line"/>
      <point x="144" y="1686" type="line"/>
    </contour>
    <contour>
      <point x="144" y="1871" type="line"/>
      <point x="-41" y="1871" type="line"/>
      <point x="-41" y="1686" type="line"/>
      <point x="144" y="1686" type="line"/>
    </contour>
    <contour>
      <point x="144" y="1871" type="line"/>
      <point x="-41" y="1871" type="line"/>
      <point x="-41" y="1686" type="line"/>
      <point x="144" y="1686" type="line"/>
    </contour>
    <contour>
      <point x="798" y="-491" type="line"/>
      <point x="798" y="-316" type="line"/>
      <point x="973" y="-316" type="line"/>
      <point x="973" y="-491" type="line"/>
    </contour>
    <contour>
      <point x="978" y="-306" type="curve" smooth="yes"/>
      <point x="793" y="-306" type="line" smooth="yes"/>
      <point x="790.85" y="-306"/>
      <point x="788" y="-307.97"/>
      <point x="788" y="-311" type="curve" smooth="yes"/>
      <point x="788" y="-496" type="line" smooth="yes"/>
      <point x="788" y="-498.15"/>
      <point x="789.97" y="-501"/>
      <point x="793" y="-501" type="curve" smooth="yes"/>
      <point x="978" y="-501" type="line" smooth="yes"/>
      <point x="980.15" y="-501"/>
      <point x="983" y="-499.03"/>
      <point x="983" y="-496" type="curve" smooth="yes"/>
      <point x="983" y="-311" type="line" smooth="yes"/>
      <point x="983" y="-308.85"/>
      <point x="981.03" y="-306"/>
    </contour>
    <contour>
      <point x="798" y="-491" type="line"/>
      <point x="798" y="-316" type="line"/>
      <point x="973" y="-316" type="line"/>
      <point x="973" y="-491" type="line"/>
    </contour>
    <contour>
      <point x="978" y="-306" type="curve" smooth="yes"/>
      <point x="793" y="-306" type="line" smooth="yes"/>
      <point x="790.85" y="-306"/>
      <point x="788" y="-307.97"/>
      <point x="788" y="-311" type="curve" smooth="yes"/>
      <point x="788" y="-496" type="line" smooth="yes"/>
      <point x="788" y="-498.15"/>
      <point x="789.97" y="-501"/>
      <point x="793" y="-501" type="curve" smooth="yes"/>
      <point x="978" y="-501" type="line" smooth="yes"/>
      <point x="980.15" y="-501"/>
      <point x="983" y="-499.03"/>
      <point x="983" y="-496" type="curve" smooth="yes"/>
      <point x="983" y="-311" type="line" smooth="yes"/>
      <point x="983" y="-308.85"/>
      <point x="981.03" y="-306"/>
    </contour>
    <contour>
      <point x="798" y="-491" type="line"/>
      <point x="798" y="-316" type="line"/>
      <point x="973" y="-316" type="line"/>
      <point x="973" y="-491" type="line"/>
    </contour>
    <contour>
      <point x="978" y="-306" type="curve" smooth="yes"/>
      <point x="793" y="-306" type="line" smooth="yes"/>
      <point x="790.85" y="-306"/>
      <point x="788" y="-307.97"/>
      <point x="788" y="-311" type="curve" smooth="yes"/>
      <point x="788" y="-496" type="line" smooth="yes"/>
      <point x="788" y="-498.15"/>
      <point x="789.97" y="-501"/>
      <point x="793" y="-501" type="curve" smooth="yes"/>
      <point x="978" y="-501" type="line" smooth="yes"/>
      <point x="980.15" y="-501"/>
      <point x="983" y="-499.03"/>
      <point x="983" y="-496" type="curve" smooth="yes"/>
      <point x="983" y="-311" type="line" smooth="yes"/>
      <point x="983" y="-308.85"/>
      <point x="981.03" y="-306"/>
    </contour>
    <contour>
      <point x="426" y="-311" type="line"/>
      <point x="241" y="-311" type="line"/>
      <point x="241" y="-496" type="line"/>
      <point x="426" y="-496" type="line"/>
    </contour>
    <contour>
      <point x="426" y="-311" type="line"/>
      <point x="241" y="-311" type="line"/>
      <point x="241" y="-496" type="line"/>
      <point x="426" y="-496" type="line"/>
    </contour>
    <contour>
      <point x="426" y="-311" type="line"/>
      <point x="241" y="-311" type="line"/>
      <point x="241" y="-496" type="line"/>
      <point x="426" y="-496" type="line"/>
    </contour>
    <contour>
      <point x="144" y="-311" type="line"/>
      <point x="-41" y="-311" type="line"/>
      <point x="-41" y="-496" type="line"/>
      <point x="144" y="-496" type="line"/>
    </contour>
    <contour>
      <point x="144" y="-311" type="line"/>
      <point x="-41" y="-311" type="line"/>
      <point x="-41" y="-496" type="line"/>
      <point x="144" y="-496" type="line"/>
    </contour>
    <contour>
      <point x="144" y="-311" type="line"/>
      <point x="-41" y="-311" type="line"/>
      <point x="-41" y="-496" type="line"/>
      <point x="144" y="-496" type="line"/>
    </contour>
    <contour>
      <point x="1827" y="1435.11" type="line"/>
      <point x="1827" y="1610.11" type="line"/>
      <point x="2002" y="1610.11" type="line"/>
      <point x="2002" y="1435.11" type="line"/>
    </contour>
    <contour>
      <point x="2007" y="1620.11" type="curve" smooth="yes"/>
      <point x="1822" y="1620.11" type="line" smooth="yes"/>
      <point x="1819.85" y="1620.11"/>
      <point x="1817" y="1618.14"/>
      <point x="1817" y="1615.11" type="curve" smooth="yes"/>
      <point x="1817" y="1430.11" type="line" smooth="yes"/>
      <point x="1817" y="1427.96"/>
      <point x="1818.97" y="1425.11"/>
      <point x="1822" y="1425.11" type="curve" smooth="yes"/>
      <point x="2007" y="1425.11" type="line" smooth="yes"/>
      <point x="2009.15" y="1425.11"/>
      <point x="2012" y="1427.08"/>
      <point x="2012" y="1430.11" type="curve" smooth="yes"/>
      <point x="2012" y="1615.11" type="line" smooth="yes"/>
      <point x="2012" y="1617.26"/>
      <point x="2010.03" y="1620.11"/>
    </contour>
    <contour>
      <point x="1571" y="258" type="line"/>
      <point x="1571" y="433" type="line"/>
      <point x="1746" y="433" type="line"/>
      <point x="1746" y="258" type="line"/>
    </contour>
    <contour>
      <point x="1751" y="443" type="curve" smooth="yes"/>
      <point x="1566" y="443" type="line" smooth="yes"/>
      <point x="1563.85" y="443"/>
      <point x="1561" y="441.03"/>
      <point x="1561" y="438" type="curve" smooth="yes"/>
      <point x="1561" y="253" type="line" smooth="yes"/>
      <point x="1561" y="250.85"/>
      <point x="1562.97" y="248"/>
      <point x="1566" y="248" type="curve" smooth="yes"/>
      <point x="1751" y="248" type="line" smooth="yes"/>
      <point x="1753.15" y="248"/>
      <point x="1756" y="249.97"/>
      <point x="1756" y="253" type="curve" smooth="yes"/>
      <point x="1756" y="438" type="line" smooth="yes"/>
      <point x="1756" y="440.15"/>
      <point x="1754.03" y="443"/>
    </contour>
    <contour>
      <point x="1499" y="1615.11" type="line"/>
      <point x="1314" y="1615.11" type="line"/>
      <point x="1314" y="1430.11" type="line"/>
      <point x="1499" y="1430.11" type="line"/>
    </contour>
    <contour>
      <point x="1319" y="732" type="line"/>
      <point x="1319" y="907" type="line"/>
      <point x="1494" y="907" type="line"/>
      <point x="1494" y="732" type="line"/>
    </contour>
    <contour>
      <point x="1499" y="917" type="curve" smooth="yes"/>
      <point x="1314" y="917" type="line" smooth="yes"/>
      <point x="1311.85" y="917"/>
      <point x="1309" y="915.03"/>
      <point x="1309" y="912" type="curve" smooth="yes"/>
      <point x="1309" y="727" type="line" smooth="yes"/>
      <point x="1309" y="724.85"/>
      <point x="1310.97" y="722"/>
      <point x="1314" y="722" type="curve" smooth="yes"/>
      <point x="1499" y="722" type="line" smooth="yes"/>
      <point x="1501.15" y="722"/>
      <point x="1504" y="723.97"/>
      <point x="1504" y="727" type="curve" smooth="yes"/>
      <point x="1504" y="912" type="line" smooth="yes"/>
      <point x="1504" y="914.15"/>
      <point x="1502.03" y="917"/>
    </contour>
    <contour>
      <point x="1319" y="9" type="line"/>
      <point x="1319" y="184" type="line"/>
      <point x="1494" y="184" type="line"/>
      <point x="1494" y="9" type="line"/>
    </contour>
    <contour>
      <point x="1499" y="194" type="curve" smooth="yes"/>
      <point x="1314" y="194" type="line" smooth="yes"/>
      <point x="1311.85" y="194"/>
      <point x="1309" y="192.03"/>
      <point x="1309" y="189" type="curve" smooth="yes"/>
      <point x="1309" y="4" type="line" smooth="yes"/>
      <point x="1309" y="1.85"/>
      <point x="1310.97" y="-1"/>
      <point x="1314" y="-1" type="curve" smooth="yes"/>
      <point x="1499" y="-1" type="line" smooth="yes"/>
      <point x="1501.15" y="-1"/>
      <point x="1504" y="0.97"/>
      <point x="1504" y="4" type="curve" smooth="yes"/>
      <point x="1504" y="189" type="line" smooth="yes"/>
      <point x="1504" y="191.15"/>
      <point x="1502.03" y="194"/>
    </contour>
    <contour>
      <point x="1069" y="1208.9" type="line"/>
      <point x="1069" y="1353.9" type="line"/>
      <point x="1214" y="1353.9" type="line"/>
      <point x="1214" y="1208.9" type="line"/>
    </contour>
    <contour>
      <point x="1234" y="1393.9" type="curve" smooth="yes"/>
      <point x="1049" y="1393.9" type="line" smooth="yes"/>
      <point x="1040.42" y="1393.9"/>
      <point x="1029" y="1386.01"/>
      <point x="1029" y="1373.9" type="curve" smooth="yes"/>
      <point x="1029" y="1188.9" type="line" smooth="yes"/>
      <point x="1029" y="1180.32"/>
      <point x="1036.89" y="1168.9"/>
      <point x="1049" y="1168.9" type="curve" smooth="yes"/>
      <point x="1234" y="1168.9" type="line" smooth="yes"/>
      <point x="1242.58" y="1168.9"/>
      <point x="1254" y="1176.79"/>
      <point x="1254" y="1188.9" type="curve" smooth="yes"/>
      <point x="1254" y="1373.9" type="line" smooth="yes"/>
      <point x="1254" y="1382.48"/>
      <point x="1246.11" y="1393.9"/>
    </contour>
    <contour>
      <point x="1069" y="981" type="line"/>
      <point x="1069" y="1126" type="line"/>
      <point x="1214" y="1126" type="line"/>
      <point x="1214" y="981" type="line"/>
    </contour>
    <contour>
      <point x="1234" y="1166" type="curve" smooth="yes"/>
      <point x="1049" y="1166" type="line" smooth="yes"/>
      <point x="1040.42" y="1166"/>
      <point x="1029" y="1158.11"/>
      <point x="1029" y="1146" type="curve" smooth="yes"/>
      <point x="1029" y="961" type="line" smooth="yes"/>
      <point x="1029" y="952.42"/>
      <point x="1036.89" y="941"/>
      <point x="1049" y="941" type="curve" smooth="yes"/>
      <point x="1234" y="941" type="line" smooth="yes"/>
      <point x="1242.58" y="941"/>
      <point x="1254" y="948.89"/>
      <point x="1254" y="961" type="curve" smooth="yes"/>
      <point x="1254" y="1146" type="line" smooth="yes"/>
      <point x="1254" y="1154.58"/>
      <point x="1246.11" y="1166"/>
    </contour>
    <contour>
      <point x="1234" y="912" type="line"/>
      <point x="1049" y="912" type="line"/>
      <point x="1049" y="727" type="line"/>
      <point x="1234" y="727" type="line"/>
    </contour>
    <contour>
      <point x="1234" y="678" type="line"/>
      <point x="1049" y="678" type="line"/>
      <point x="1049" y="493" type="line"/>
      <point x="1234" y="493" type="line"/>
    </contour>
    <contour>
      <point x="1069" y="273" type="line"/>
      <point x="1069" y="418" type="line"/>
      <point x="1214" y="418" type="line"/>
      <point x="1214" y="273" type="line"/>
    </contour>
    <contour>
      <point x="1234" y="458" type="curve" smooth="yes"/>
      <point x="1049" y="458" type="line" smooth="yes"/>
      <point x="1040.42" y="458"/>
      <point x="1029" y="450.11"/>
      <point x="1029" y="438" type="curve" smooth="yes"/>
      <point x="1029" y="253" type="line" smooth="yes"/>
      <point x="1029" y="244.42"/>
      <point x="1036.89" y="233"/>
      <point x="1049" y="233" type="curve" smooth="yes"/>
      <point x="1234" y="233" type="line" smooth="yes"/>
      <point x="1242.58" y="233"/>
      <point x="1254" y="240.89"/>
      <point x="1254" y="253" type="curve" smooth="yes"/>
      <point x="1254" y="438" type="line" smooth="yes"/>
      <point x="1254" y="446.58"/>
      <point x="1246.11" y="458"/>
    </contour>
    <contour>
      <point x="978" y="1615.11" type="line"/>
      <point x="793" y="1615.11" type="line"/>
      <point x="793" y="1430.11" type="line"/>
      <point x="978" y="1430.11" type="line"/>
    </contour>
    <contour>
      <point x="978" y="1373.9" type="line"/>
      <point x="793" y="1373.9" type="line"/>
      <point x="793" y="1188.9" type="line"/>
      <point x="978" y="1188.9" type="line"/>
    </contour>
    <contour>
      <point x="818" y="752" type="line"/>
      <point x="818" y="887" type="line"/>
      <point x="953" y="887" type="line"/>
      <point x="953" y="752" type="line"/>
    </contour>
    <contour>
      <point x="978" y="937" type="curve" smooth="yes"/>
      <point x="793" y="937" type="line" smooth="yes"/>
      <point x="782.27" y="937"/>
      <point x="768" y="927.13"/>
      <point x="768" y="912" type="curve" smooth="yes"/>
      <point x="768" y="727" type="line" smooth="yes"/>
      <point x="768" y="716.27"/>
      <point x="777.87" y="702"/>
      <point x="793" y="702" type="curve" smooth="yes"/>
      <point x="978" y="702" type="line" smooth="yes"/>
      <point x="988.73" y="702"/>
      <point x="1003" y="711.87"/>
      <point x="1003" y="727" type="curve" smooth="yes"/>
      <point x="1003" y="912" type="line" smooth="yes"/>
      <point x="1003" y="922.73"/>
      <point x="993.13" y="937"/>
    </contour>
    <contour>
      <point x="978" y="678" type="line"/>
      <point x="793" y="678" type="line"/>
      <point x="793" y="493" type="line"/>
      <point x="978" y="493" type="line"/>
    </contour>
    <contour>
      <point x="798" y="9" type="line"/>
      <point x="798" y="184" type="line"/>
      <point x="973" y="184" type="line"/>
      <point x="973" y="9" type="line"/>
    </contour>
    <contour>
      <point x="978" y="194" type="curve" smooth="yes"/>
      <point x="793" y="194" type="line" smooth="yes"/>
      <point x="790.85" y="194"/>
      <point x="788" y="192.03"/>
      <point x="788" y="189" type="curve" smooth="yes"/>
      <point x="788" y="4" type="line" smooth="yes"/>
      <point x="788" y="1.85"/>
      <point x="789.97" y="-1"/>
      <point x="793" y="-1" type="curve" smooth="yes"/>
      <point x="978" y="-1" type="line" smooth="yes"/>
      <point x="980.15" y="-1"/>
      <point x="983" y="0.97"/>
      <point x="983" y="4" type="curve" smooth="yes"/>
      <point x="983" y="189" type="line" smooth="yes"/>
      <point x="983" y="191.15"/>
      <point x="981.03" y="194"/>
    </contour>
    <contour>
      <point x="696" y="1615.11" type="line"/>
      <point x="511" y="1615.11" type="line"/>
      <point x="511" y="1430.11" type="line"/>
      <point x="696" y="1430.11" type="line"/>
    </contour>
    <contour>
      <point x="696" y="1373.9" type="line"/>
      <point x="511" y="1373.9" type="line"/>
      <point x="511" y="1188.9" type="line"/>
      <point x="696" y="1188.9" type="line"/>
    </contour>
    <contour>
      <point x="696" y="-60" type="line"/>
      <point x="511" y="-60" type="line"/>
      <point x="511" y="-245" type="line"/>
      <point x="696" y="-245" type="line"/>
    </contour>
    <contour>
      <point x="696" y="1146" type="line"/>
      <point x="511" y="1146" type="line"/>
      <point x="511" y="961" type="line"/>
      <point x="696" y="961" type="line"/>
    </contour>
    <contour>
      <point x="696" y="-60" type="line"/>
      <point x="511" y="-60" type="line"/>
      <point x="511" y="-245" type="line"/>
      <point x="696" y="-245" type="line"/>
    </contour>
    <contour>
      <point x="696" y="912" type="line"/>
      <point x="511" y="912" type="line"/>
      <point x="511" y="727" type="line"/>
      <point x="696" y="727" type="line"/>
    </contour>
    <contour>
      <point x="696" y="678" type="line"/>
      <point x="511" y="678" type="line"/>
      <point x="511" y="493" type="line"/>
      <point x="696" y="493" type="line"/>
    </contour>
    <contour>
      <point x="696" y="189" type="line"/>
      <point x="511" y="189" type="line"/>
      <point x="511" y="4" type="line"/>
      <point x="696" y="4" type="line"/>
    </contour>
    <contour>
      <point x="696" y="-60" type="line"/>
      <point x="511" y="-60" type="line"/>
      <point x="511" y="-245" type="line"/>
      <point x="696" y="-245" type="line"/>
    </contour>
    <contour>
      <point x="426" y="1615.11" type="line"/>
      <point x="241" y="1615.11" type="line"/>
      <point x="241" y="1430.11" type="line"/>
      <point x="426" y="1430.11" type="line"/>
    </contour>
    <contour>
      <point x="426" y="1373.9" type="line"/>
      <point x="241" y="1373.9" type="line"/>
      <point x="241" y="1188.9" type="line"/>
      <point x="426" y="1188.9" type="line"/>
    </contour>
    <contour>
      <point x="426" y="-60" type="line"/>
      <point x="241" y="-60" type="line"/>
      <point x="241" y="-245" type="line"/>
      <point x="426" y="-245" type="line"/>
    </contour>
    <contour>
      <point x="426" y="1146" type="line"/>
      <point x="241" y="1146" type="line"/>
      <point x="241" y="961" type="line"/>
      <point x="426" y="961" type="line"/>
    </contour>
    <contour>
      <point x="426" y="-60" type="line"/>
      <point x="241" y="-60" type="line"/>
      <point x="241" y="-245" type="line"/>
      <point x="426" y="-245" type="line"/>
    </contour>
    <contour>
      <point x="426" y="912" type="line"/>
      <point x="241" y="912" type="line"/>
      <point x="241" y="727" type="line"/>
      <point x="426" y="727" type="line"/>
    </contour>
    <contour>
      <point x="426" y="678" type="line"/>
      <point x="241" y="678" type="line"/>
      <point x="241" y="493" type="line"/>
      <point x="426" y="493" type="line"/>
    </contour>
    <contour>
      <point x="426" y="438" type="line"/>
      <point x="241" y="438" type="line"/>
      <point x="241" y="253" type="line"/>
      <point x="426" y="253" type="line"/>
    </contour>
    <contour>
      <point x="426" y="189" type="line"/>
      <point x="241" y="189" type="line"/>
      <point x="241" y="4" type="line"/>
      <point x="426" y="4" type="line"/>
    </contour>
    <contour>
      <point x="426" y="-60" type="line"/>
      <point x="241" y="-60" type="line"/>
      <point x="241" y="-245" type="line"/>
      <point x="426" y="-245" type="line"/>
    </contour>
    <contour>
      <point x="144" y="1615.11" type="line"/>
      <point x="-41" y="1615.11" type="line"/>
      <point x="-41" y="1430.11" type="line"/>
      <point x="144" y="1430.11" type="line"/>
    </contour>
    <contour>
      <point x="144" y="1373.9" type="line"/>
      <point x="-41" y="1373.9" type="line"/>
      <point x="-41" y="1188.9" type="line"/>
      <point x="144" y="1188.9" type="line"/>
    </contour>
    <contour>
      <point x="144" y="-60" type="line"/>
      <point x="-41" y="-60" type="line"/>
      <point x="-41" y="-245" type="line"/>
      <point x="144" y="-245" type="line"/>
    </contour>
    <contour>
      <point x="144" y="1146" type="line"/>
      <point x="-41" y="1146" type="line"/>
      <point x="-41" y="961" type="line"/>
      <point x="144" y="961" type="line"/>
    </contour>
    <contour>
      <point x="144" y="-60" type="line"/>
      <point x="-41" y="-60" type="line"/>
      <point x="-41" y="-245" type="line"/>
      <point x="144" y="-245" type="line"/>
    </contour>
    <contour>
      <point x="144" y="912" type="line"/>
      <point x="-41" y="912" type="line"/>
      <point x="-41" y="727" type="line"/>
      <point x="144" y="727" type="line"/>
    </contour>
    <contour>
      <point x="144" y="678" type="line"/>
      <point x="-41" y="678" type="line"/>
      <point x="-41" y="493" type="line"/>
      <point x="144" y="493" type="line"/>
    </contour>
    <contour>
      <point x="144" y="438" type="line"/>
      <point x="-41" y="438" type="line"/>
      <point x="-41" y="253" type="line"/>
      <point x="144" y="253" type="line"/>
    </contour>
    <contour>
      <point x="144" y="189" type="line"/>
      <point x="-41" y="189" type="line"/>
      <point x="-41" y="4" type="line"/>
      <point x="144" y="4" type="line"/>
    </contour>
    <contour>
      <point x="144" y="-60" type="line"/>
      <point x="-41" y="-60" type="line"/>
      <point x="-41" y="-245" type="line"/>
      <point x="144" y="-245" type="line"/>
    </contour>
  </outline>
</glyph>
<glyph name="uniE0C5" format="2">
  <advance width="2048"/>
  <unicode hex="E0C5"/>
  <note>
uniE0C5
</note>
  <outline>
    <contour>
      <point x="1204" y="1701" type="line"/>
      <point x="1204" y="1856" type="line"/>
      <point x="1049" y="1856" type="line"/>
      <point x="1049" y="1701" type="line"/>
    </contour>
    <contour>
      <point x="1034" y="1886" type="curve" smooth="yes"/>
      <point x="1219" y="1886" type="line" smooth="yes"/>
      <point x="1225.44" y="1886"/>
      <point x="1234" y="1880.08"/>
      <point x="1234" y="1871" type="curve" smooth="yes"/>
      <point x="1234" y="1686" type="line" smooth="yes"/>
      <point x="1234" y="1679.56"/>
      <point x="1228.08" y="1671"/>
      <point x="1219" y="1671" type="curve" smooth="yes"/>
      <point x="1034" y="1671" type="line" smooth="yes"/>
      <point x="1027.56" y="1671"/>
      <point x="1019" y="1676.92"/>
      <point x="1019" y="1686" type="curve" smooth="yes"/>
      <point x="1019" y="1871" type="line" smooth="yes"/>
      <point x="1019" y="1877.44"/>
      <point x="1024.92" y="1886"/>
    </contour>
    <contour>
      <point x="1204" y="1701" type="line"/>
      <point x="1204" y="1856" type="line"/>
      <point x="1049" y="1856" type="line"/>
      <point x="1049" y="1701" type="line"/>
    </contour>
    <contour>
      <point x="1034" y="1886" type="curve" smooth="yes"/>
      <point x="1219" y="1886" type="line" smooth="yes"/>
      <point x="1225.44" y="1886"/>
      <point x="1234" y="1880.08"/>
      <point x="1234" y="1871" type="curve" smooth="yes"/>
      <point x="1234" y="1686" type="line" smooth="yes"/>
      <point x="1234" y="1679.56"/>
      <point x="1228.08" y="1671"/>
      <point x="1219" y="1671" type="curve" smooth="yes"/>
      <point x="1034" y="1671" type="line" smooth="yes"/>
      <point x="1027.56" y="1671"/>
      <point x="1019" y="1676.92"/>
      <point x="1019" y="1686" type="curve" smooth="yes"/>
      <point x="1019" y="1871" type="line" smooth="yes"/>
      <point x="1019" y="1877.44"/>
      <point x="1024.92" y="1886"/>
    </contour>
    <contour>
      <point x="1204" y="1701" type="line"/>
      <point x="1204" y="1856" type="line"/>
      <point x="1049" y="1856" type="line"/>
      <point x="1049" y="1701" type="line"/>
    </contour>
    <contour>
      <point x="1034" y="1886" type="curve" smooth="yes"/>
      <point x="1219" y="1886" type="line" smooth="yes"/>
      <point x="1225.44" y="1886"/>
      <point x="1234" y="1880.08"/>
      <point x="1234" y="1871" type="curve" smooth="yes"/>
      <point x="1234" y="1686" type="line" smooth="yes"/>
      <point x="1234" y="1679.56"/>
      <point x="1228.08" y="1671"/>
      <point x="1219" y="1671" type="curve" smooth="yes"/>
      <point x="1034" y="1671" type="line" smooth="yes"/>
      <point x="1027.56" y="1671"/>
      <point x="1019" y="1676.92"/>
      <point x="1019" y="1686" type="curve" smooth="yes"/>
      <point x="1019" y="1871" type="line" smooth="yes"/>
      <point x="1019" y="1877.44"/>
      <point x="1024.92" y="1886"/>
    </contour>
    <contour>
      <point x="181" y="1691" type="line"/>
      <point x="181" y="1866" type="line"/>
      <point x="6" y="1866" type="line"/>
      <point x="6" y="1691" type="line"/>
    </contour>
    <contour>
      <point x="1" y="1876" type="curve" smooth="yes"/>
      <point x="186" y="1876" type="line" smooth="yes"/>
      <point x="188.15" y="1876"/>
      <point x="191" y="1874.03"/>
      <point x="191" y="1871" type="curve" smooth="yes"/>
      <point x="191" y="1686" type="line" smooth="yes"/>
      <point x="191" y="1683.85"/>
      <point x="189.03" y="1681"/>
      <point x="186" y="1681" type="curve" smooth="yes"/>
      <point x="1" y="1681" type="line" smooth="yes"/>
      <point x="-1.15" y="1681"/>
      <point x="-4" y="1682.97"/>
      <point x="-4" y="1686" type="curve" smooth="yes"/>
      <point x="-4" y="1871" type="line" smooth="yes"/>
      <point x="-4" y="1873.15"/>
      <point x="-2.03" y="1876"/>
    </contour>
    <contour>
      <point x="181" y="1691" type="line"/>
      <point x="181" y="1866" type="line"/>
      <point x="6" y="1866" type="line"/>
      <point x="6" y="1691" type="line"/>
    </contour>
    <contour>
      <point x="1" y="1876" type="curve" smooth="yes"/>
      <point x="186" y="1876" type="line" smooth="yes"/>
      <point x="188.15" y="1876"/>
      <point x="191" y="1874.03"/>
      <point x="191" y="1871" type="curve" smooth="yes"/>
      <point x="191" y="1686" type="line" smooth="yes"/>
      <point x="191" y="1683.85"/>
      <point x="189.03" y="1681"/>
      <point x="186" y="1681" type="curve" smooth="yes"/>
      <point x="1" y="1681" type="line" smooth="yes"/>
      <point x="-1.15" y="1681"/>
      <point x="-4" y="1682.97"/>
      <point x="-4" y="1686" type="curve" smooth="yes"/>
      <point x="-4" y="1871" type="line" smooth="yes"/>
      <point x="-4" y="1873.15"/>
      <point x="-2.03" y="1876"/>
    </contour>
    <contour>
      <point x="181" y="1691" type="line"/>
      <point x="181" y="1866" type="line"/>
      <point x="6" y="1866" type="line"/>
      <point x="6" y="1691" type="line"/>
    </contour>
    <contour>
      <point x="1" y="1876" type="curve" smooth="yes"/>
      <point x="186" y="1876" type="line" smooth="yes"/>
      <point x="188.15" y="1876"/>
      <point x="191" y="1874.03"/>
      <point x="191" y="1871" type="curve" smooth="yes"/>
      <point x="191" y="1686" type="line" smooth="yes"/>
      <point x="191" y="1683.85"/>
      <point x="189.03" y="1681"/>
      <point x="186" y="1681" type="curve" smooth="yes"/>
      <point x="1" y="1681" type="line" smooth="yes"/>
      <point x="-1.15" y="1681"/>
      <point x="-4" y="1682.97"/>
      <point x="-4" y="1686" type="curve" smooth="yes"/>
      <point x="-4" y="1871" type="line" smooth="yes"/>
      <point x="-4" y="1873.15"/>
      <point x="-2.03" y="1876"/>
    </contour>
    <contour>
      <point x="509" y="1871" type="line"/>
      <point x="694" y="1871" type="line"/>
      <point x="694" y="1686" type="line"/>
      <point x="509" y="1686" type="line"/>
    </contour>
    <contour>
      <point x="509" y="1871" type="line"/>
      <point x="694" y="1871" type="line"/>
      <point x="694" y="1686" type="line"/>
      <point x="509" y="1686" type="line"/>
    </contour>
    <contour>
      <point x="509" y="1871" type="line"/>
      <point x="694" y="1871" type="line"/>
      <point x="694" y="1686" type="line"/>
      <point x="509" y="1686" type="line"/>
    </contour>
    <contour>
      <point x="774" y="1871" type="line"/>
      <point x="959" y="1871" type="line"/>
      <point x="959" y="1686" type="line"/>
      <point x="774" y="1686" type="line"/>
    </contour>
    <contour>
      <point x="774" y="1871" type="line"/>
      <point x="959" y="1871" type="line"/>
      <point x="959" y="1686" type="line"/>
      <point x="774" y="1686" type="line"/>
    </contour>
    <contour>
      <point x="774" y="1871" type="line"/>
      <point x="959" y="1871" type="line"/>
      <point x="959" y="1686" type="line"/>
      <point x="774" y="1686" type="line"/>
    </contour>
    <contour>
      <point x="1312" y="1871" type="line"/>
      <point x="1497" y="1871" type="line"/>
      <point x="1497" y="1686" type="line"/>
      <point x="1312" y="1686" type="line"/>
    </contour>
    <contour>
      <point x="1312" y="1871" type="line"/>
      <point x="1497" y="1871" type="line"/>
      <point x="1497" y="1686" type="line"/>
      <point x="1312" y="1686" type="line"/>
    </contour>
    <contour>
      <point x="1312" y="1871" type="line"/>
      <point x="1497" y="1871" type="line"/>
      <point x="1497" y="1686" type="line"/>
      <point x="1312" y="1686" type="line"/>
    </contour>
    <contour>
      <point x="1582" y="1871" type="line"/>
      <point x="1767" y="1871" type="line"/>
      <point x="1767" y="1686" type="line"/>
      <point x="1582" y="1686" type="line"/>
    </contour>
    <contour>
      <point x="1582" y="1871" type="line"/>
      <point x="1767" y="1871" type="line"/>
      <point x="1767" y="1686" type="line"/>
      <point x="1582" y="1686" type="line"/>
    </contour>
    <contour>
      <point x="1582" y="1871" type="line"/>
      <point x="1767" y="1871" type="line"/>
      <point x="1767" y="1686" type="line"/>
      <point x="1582" y="1686" type="line"/>
    </contour>
    <contour>
      <point x="1864" y="1871" type="line"/>
      <point x="2049" y="1871" type="line"/>
      <point x="2049" y="1686" type="line"/>
      <point x="1864" y="1686" type="line"/>
    </contour>
    <contour>
      <point x="1864" y="1871" type="line"/>
      <point x="2049" y="1871" type="line"/>
      <point x="2049" y="1686" type="line"/>
      <point x="1864" y="1686" type="line"/>
    </contour>
    <contour>
      <point x="1864" y="1871" type="line"/>
      <point x="2049" y="1871" type="line"/>
      <point x="2049" y="1686" type="line"/>
      <point x="1864" y="1686" type="line"/>
    </contour>
    <contour>
      <point x="1210" y="-491" type="line"/>
      <point x="1210" y="-316" type="line"/>
      <point x="1035" y="-316" type="line"/>
      <point x="1035" y="-491" type="line"/>
    </contour>
    <contour>
      <point x="1030" y="-306" type="curve" smooth="yes"/>
      <point x="1215" y="-306" type="line" smooth="yes"/>
      <point x="1217.15" y="-306"/>
      <point x="1220" y="-307.97"/>
      <point x="1220" y="-311" type="curve" smooth="yes"/>
      <point x="1220" y="-496" type="line" smooth="yes"/>
      <point x="1220" y="-498.15"/>
      <point x="1218.03" y="-501"/>
      <point x="1215" y="-501" type="curve" smooth="yes"/>
      <point x="1030" y="-501" type="line" smooth="yes"/>
      <point x="1027.85" y="-501"/>
      <point x="1025" y="-499.03"/>
      <point x="1025" y="-496" type="curve" smooth="yes"/>
      <point x="1025" y="-311" type="line" smooth="yes"/>
      <point x="1025" y="-308.85"/>
      <point x="1026.97" y="-306"/>
    </contour>
    <contour>
      <point x="1210" y="-491" type="line"/>
      <point x="1210" y="-316" type="line"/>
      <point x="1035" y="-316" type="line"/>
      <point x="1035" y="-491" type="line"/>
    </contour>
    <contour>
      <point x="1030" y="-306" type="curve" smooth="yes"/>
      <point x="1215" y="-306" type="line" smooth="yes"/>
      <point x="1217.15" y="-306"/>
      <point x="1220" y="-307.97"/>
      <point x="1220" y="-311" type="curve" smooth="yes"/>
      <point x="1220" y="-496" type="line" smooth="yes"/>
      <point x="1220" y="-498.15"/>
      <point x="1218.03" y="-501"/>
      <point x="1215" y="-501" type="curve" smooth="yes"/>
      <point x="1030" y="-501" type="line" smooth="yes"/>
      <point x="1027.85" y="-501"/>
      <point x="1025" y="-499.03"/>
      <point x="1025" y="-496" type="curve" smooth="yes"/>
      <point x="1025" y="-311" type="line" smooth="yes"/>
      <point x="1025" y="-308.85"/>
      <point x="1026.97" y="-306"/>
    </contour>
    <contour>
      <point x="1210" y="-491" type="line"/>
      <point x="1210" y="-316" type="line"/>
      <point x="1035" y="-316" type="line"/>
      <point x="1035" y="-491" type="line"/>
    </contour>
    <contour>
      <point x="1030" y="-306" type="curve" smooth="yes"/>
      <point x="1215" y="-306" type="line" smooth="yes"/>
      <point x="1217.15" y="-306"/>
      <point x="1220" y="-307.97"/>
      <point x="1220" y="-311" type="curve" smooth="yes"/>
      <point x="1220" y="-496" type="line" smooth="yes"/>
      <point x="1220" y="-498.15"/>
      <point x="1218.03" y="-501"/>
      <point x="1215" y="-501" type="curve" smooth="yes"/>
      <point x="1030" y="-501" type="line" smooth="yes"/>
      <point x="1027.85" y="-501"/>
      <point x="1025" y="-499.03"/>
      <point x="1025" y="-496" type="curve" smooth="yes"/>
      <point x="1025" y="-311" type="line" smooth="yes"/>
      <point x="1025" y="-308.85"/>
      <point x="1026.97" y="-306"/>
    </contour>
    <contour>
      <point x="1582" y="-311" type="line"/>
      <point x="1767" y="-311" type="line"/>
      <point x="1767" y="-496" type="line"/>
      <point x="1582" y="-496" type="line"/>
    </contour>
    <contour>
      <point x="1582" y="-311" type="line"/>
      <point x="1767" y="-311" type="line"/>
      <point x="1767" y="-496" type="line"/>
      <point x="1582" y="-496" type="line"/>
    </contour>
    <contour>
      <point x="1582" y="-311" type="line"/>
      <point x="1767" y="-311" type="line"/>
      <point x="1767" y="-496" type="line"/>
      <point x="1582" y="-496" type="line"/>
    </contour>
    <contour>
      <point x="1864" y="-311" type="line"/>
      <point x="2049" y="-311" type="line"/>
      <point x="2049" y="-496" type="line"/>
      <point x="1864" y="-496" type="line"/>
    </contour>
    <contour>
      <point x="1864" y="-311" type="line"/>
      <point x="2049" y="-311" type="line"/>
      <point x="2049" y="-496" type="line"/>
      <point x="1864" y="-496" type="line"/>
    </contour>
    <contour>
      <point x="1864" y="-311" type="line"/>
      <point x="2049" y="-311" type="line"/>
      <point x="2049" y="-496" type="line"/>
      <point x="1864" y="-496" type="line"/>
    </contour>
    <contour>
      <point x="181" y="1435.11" type="line"/>
      <point x="181" y="1610.11" type="line"/>
      <point x="6" y="1610.11" type="line"/>
      <point x="6" y="1435.11" type="line"/>
    </contour>
    <contour>
      <point x="1" y="1620.11" type="curve" smooth="yes"/>
      <point x="186" y="1620.11" type="line" smooth="yes"/>
      <point x="188.15" y="1620.11"/>
      <point x="191" y="1618.14"/>
      <point x="191" y="1615.11" type="curve" smooth="yes"/>
      <point x="191" y="1430.11" type="line" smooth="yes"/>
      <point x="191" y="1427.96"/>
      <point x="189.03" y="1425.11"/>
      <point x="186" y="1425.11" type="curve" smooth="yes"/>
      <point x="1" y="1425.11" type="line" smooth="yes"/>
      <point x="-1.15" y="1425.11"/>
      <point x="-4" y="1427.08"/>
      <point x="-4" y="1430.11" type="curve" smooth="yes"/>
      <point x="-4" y="1615.11" type="line" smooth="yes"/>
      <point x="-4" y="1617.26"/>
      <point x="-2.03" y="1620.11"/>
    </contour>
    <contour>
      <point x="437" y="258" type="line"/>
      <point x="437" y="433" type="line"/>
      <point x="262" y="433" type="line"/>
      <point x="262" y="258" type="line"/>
    </contour>
    <contour>
      <point x="257" y="443" type="curve" smooth="yes"/>
      <point x="442" y="443" type="line" smooth="yes"/>
      <point x="444.15" y="443"/>
      <point x="447" y="441.03"/>
      <point x="447" y="438" type="curve" smooth="yes"/>
      <point x="447" y="253" type="line" smooth="yes"/>
      <point x="447" y="250.85"/>
      <point x="445.03" y="248"/>
      <point x="442" y="248" type="curve" smooth="yes"/>
      <point x="257" y="248" type="line" smooth="yes"/>
      <point x="254.85" y="248"/>
      <point x="252" y="249.97"/>
      <point x="252" y="253" type="curve" smooth="yes"/>
      <point x="252" y="438" type="line" smooth="yes"/>
      <point x="252" y="440.15"/>
      <point x="253.97" y="443"/>
    </contour>
    <contour>
      <point x="509" y="1615.11" type="line"/>
      <point x="694" y="1615.11" type="line"/>
      <point x="694" y="1430.11" type="line"/>
      <point x="509" y="1430.11" type="line"/>
    </contour>
    <contour>
      <point x="689" y="732" type="line"/>
      <point x="689" y="907" type="line"/>
      <point x="514" y="907" type="line"/>
      <point x="514" y="732" type="line"/>
    </contour>
    <contour>
      <point x="509" y="917" type="curve" smooth="yes"/>
      <point x="694" y="917" type="line" smooth="yes"/>
      <point x="696.15" y="917"/>
      <point x="699" y="915.03"/>
      <point x="699" y="912" type="curve" smooth="yes"/>
      <point x="699" y="727" type="line" smooth="yes"/>
      <point x="699" y="724.85"/>
      <point x="697.03" y="722"/>
      <point x="694" y="722" type="curve" smooth="yes"/>
      <point x="509" y="722" type="line" smooth="yes"/>
      <point x="506.85" y="722"/>
      <point x="504" y="723.97"/>
      <point x="504" y="727" type="curve" smooth="yes"/>
      <point x="504" y="912" type="line" smooth="yes"/>
      <point x="504" y="914.15"/>
      <point x="505.97" y="917"/>
    </contour>
    <contour>
      <point x="689" y="9" type="line"/>
      <point x="689" y="184" type="line"/>
      <point x="514" y="184" type="line"/>
      <point x="514" y="9" type="line"/>
    </contour>
    <contour>
      <point x="509" y="194" type="curve" smooth="yes"/>
      <point x="694" y="194" type="line" smooth="yes"/>
      <point x="696.15" y="194"/>
      <point x="699" y="192.03"/>
      <point x="699" y="189" type="curve" smooth="yes"/>
      <point x="699" y="4" type="line" smooth="yes"/>
      <point x="699" y="1.85"/>
      <point x="697.03" y="-1"/>
      <point x="694" y="-1" type="curve" smooth="yes"/>
      <point x="509" y="-1" type="line" smooth="yes"/>
      <point x="506.85" y="-1"/>
      <point x="504" y="0.97"/>
      <point x="504" y="4" type="curve" smooth="yes"/>
      <point x="504" y="189" type="line" smooth="yes"/>
      <point x="504" y="191.15"/>
      <point x="505.97" y="194"/>
    </contour>
    <contour>
      <point x="939" y="1208.9" type="line"/>
      <point x="939" y="1353.9" type="line"/>
      <point x="794" y="1353.9" type="line"/>
      <point x="794" y="1208.9" type="line"/>
    </contour>
    <contour>
      <point x="774" y="1393.9" type="curve" smooth="yes"/>
      <point x="959" y="1393.9" type="line" smooth="yes"/>
      <point x="967.58" y="1393.9"/>
      <point x="979" y="1386.01"/>
      <point x="979" y="1373.9" type="curve" smooth="yes"/>
      <point x="979" y="1188.9" type="line" smooth="yes"/>
      <point x="979" y="1180.32"/>
      <point x="971.11" y="1168.9"/>
      <point x="959" y="1168.9" type="curve" smooth="yes"/>
      <point x="774" y="1168.9" type="line" smooth="yes"/>
      <point x="765.42" y="1168.9"/>
      <point x="754" y="1176.79"/>
      <point x="754" y="1188.9" type="curve" smooth="yes"/>
      <point x="754" y="1373.9" type="line" smooth="yes"/>
      <point x="754" y="1382.48"/>
      <point x="761.89" y="1393.9"/>
    </contour>
    <contour>
      <point x="939" y="981" type="line"/>
      <point x="939" y="1126" type="line"/>
      <point x="794" y="1126" type="line"/>
      <point x="794" y="981" type="line"/>
    </contour>
    <contour>
      <point x="774" y="1166" type="curve" smooth="yes"/>
      <point x="959" y="1166" type="line" smooth="yes"/>
      <point x="967.58" y="1166"/>
      <point x="979" y="1158.11"/>
      <point x="979" y="1146" type="curve" smooth="yes"/>
      <point x="979" y="961" type="line" smooth="yes"/>
      <point x="979" y="952.42"/>
      <point x="971.11" y="941"/>
      <point x="959" y="941" type="curve" smooth="yes"/>
      <point x="774" y="941" type="line" smooth="yes"/>
      <point x="765.42" y="941"/>
      <point x="754" y="948.89"/>
      <point x="754" y="961" type="curve" smooth="yes"/>
      <point x="754" y="1146" type="line" smooth="yes"/>
      <point x="754" y="1154.58"/>
      <point x="761.89" y="1166"/>
    </contour>
    <contour>
      <point x="774" y="912" type="line"/>
      <point x="959" y="912" type="line"/>
      <point x="959" y="727" type="line"/>
      <point x="774" y="727" type="line"/>
    </contour>
    <contour>
      <point x="774" y="678" type="line"/>
      <point x="959" y="678" type="line"/>
      <point x="959" y="493" type="line"/>
      <point x="774" y="493" type="line"/>
    </contour>
    <contour>
      <point x="939" y="273" type="line"/>
      <point x="939" y="418" type="line"/>
      <point x="794" y="418" type="line"/>
      <point x="794" y="273" type="line"/>
    </contour>
    <contour>
      <point x="774" y="458" type="curve" smooth="yes"/>
      <point x="959" y="458" type="line" smooth="yes"/>
      <point x="967.58" y="458"/>
      <point x="979" y="450.11"/>
      <point x="979" y="438" type="curve" smooth="yes"/>
      <point x="979" y="253" type="line" smooth="yes"/>
      <point x="979" y="244.42"/>
      <point x="971.11" y="233"/>
      <point x="959" y="233" type="curve" smooth="yes"/>
      <point x="774" y="233" type="line" smooth="yes"/>
      <point x="765.42" y="233"/>
      <point x="754" y="240.89"/>
      <point x="754" y="253" type="curve" smooth="yes"/>
      <point x="754" y="438" type="line" smooth="yes"/>
      <point x="754" y="446.58"/>
      <point x="761.89" y="458"/>
    </contour>
    <contour>
      <point x="1030" y="1615.11" type="line"/>
      <point x="1215" y="1615.11" type="line"/>
      <point x="1215" y="1430.11" type="line"/>
      <point x="1030" y="1430.11" type="line"/>
    </contour>
    <contour>
      <point x="1030" y="1373.9" type="line"/>
      <point x="1215" y="1373.9" type="line"/>
      <point x="1215" y="1188.9" type="line"/>
      <point x="1030" y="1188.9" type="line"/>
    </contour>
    <contour>
      <point x="1190" y="752" type="line"/>
      <point x="1190" y="887" type="line"/>
      <point x="1055" y="887" type="line"/>
      <point x="1055" y="752" type="line"/>
    </contour>
    <contour>
      <point x="1030" y="937" type="curve" smooth="yes"/>
      <point x="1215" y="937" type="line" smooth="yes"/>
      <point x="1225.73" y="937"/>
      <point x="1240" y="927.13"/>
      <point x="1240" y="912" type="curve" smooth="yes"/>
      <point x="1240" y="727" type="line" smooth="yes"/>
      <point x="1240" y="716.27"/>
      <point x="1230.13" y="702"/>
      <point x="1215" y="702" type="curve" smooth="yes"/>
      <point x="1030" y="702" type="line" smooth="yes"/>
      <point x="1019.27" y="702"/>
      <point x="1005" y="711.87"/>
      <point x="1005" y="727" type="curve" smooth="yes"/>
      <point x="1005" y="912" type="line" smooth="yes"/>
      <point x="1005" y="922.73"/>
      <point x="1014.87" y="937"/>
    </contour>
    <contour>
      <point x="1030" y="678" type="line"/>
      <point x="1215" y="678" type="line"/>
      <point x="1215" y="493" type="line"/>
      <point x="1030" y="493" type="line"/>
    </contour>
    <contour>
      <point x="1210" y="9" type="line"/>
      <point x="1210" y="184" type="line"/>
      <point x="1035" y="184" type="line"/>
      <point x="1035" y="9" type="line"/>
    </contour>
    <contour>
      <point x="1030" y="194" type="curve" smooth="yes"/>
      <point x="1215" y="194" type="line" smooth="yes"/>
      <point x="1217.15" y="194"/>
      <point x="1220" y="192.03"/>
      <point x="1220" y="189" type="curve" smooth="yes"/>
      <point x="1220" y="4" type="line" smooth="yes"/>
      <point x="1220" y="1.85"/>
      <point x="1218.03" y="-1"/>
      <point x="1215" y="-1" type="curve" smooth="yes"/>
      <point x="1030" y="-1" type="line" smooth="yes"/>
      <point x="1027.85" y="-1"/>
      <point x="1025" y="0.97"/>
      <point x="1025" y="4" type="curve" smooth="yes"/>
      <point x="1025" y="189" type="line" smooth="yes"/>
      <point x="1025" y="191.15"/>
      <point x="1026.97" y="194"/>
    </contour>
    <contour>
      <point x="1312" y="1615.11" type="line"/>
      <point x="1497" y="1615.11" type="line"/>
      <point x="1497" y="1430.11" type="line"/>
      <point x="1312" y="1430.11" type="line"/>
    </contour>
    <contour>
      <point x="1312" y="1373.9" type="line"/>
      <point x="1497" y="1373.9" type="line"/>
      <point x="1497" y="1188.9" type="line"/>
      <point x="1312" y="1188.9" type="line"/>
    </contour>
    <contour>
      <point x="1312" y="-60" type="line"/>
      <point x="1497" y="-60" type="line"/>
      <point x="1497" y="-245" type="line"/>
      <point x="1312" y="-245" type="line"/>
    </contour>
    <contour>
      <point x="1312" y="1146" type="line"/>
      <point x="1497" y="1146" type="line"/>
      <point x="1497" y="961" type="line"/>
      <point x="1312" y="961" type="line"/>
    </contour>
    <contour>
      <point x="1312" y="-60" type="line"/>
      <point x="1497" y="-60" type="line"/>
      <point x="1497" y="-245" type="line"/>
      <point x="1312" y="-245" type="line"/>
    </contour>
    <contour>
      <point x="1312" y="912" type="line"/>
      <point x="1497" y="912" type="line"/>
      <point x="1497" y="727" type="line"/>
      <point x="1312" y="727" type="line"/>
    </contour>
    <contour>
      <point x="1312" y="678" type="line"/>
      <point x="1497" y="678" type="line"/>
      <point x="1497" y="493" type="line"/>
      <point x="1312" y="493" type="line"/>
    </contour>
    <contour>
      <point x="1312" y="189" type="line"/>
      <point x="1497" y="189" type="line"/>
      <point x="1497" y="4" type="line"/>
      <point x="1312" y="4" type="line"/>
    </contour>
    <contour>
      <point x="1312" y="-60" type="line"/>
      <point x="1497" y="-60" type="line"/>
      <point x="1497" y="-245" type="line"/>
      <point x="1312" y="-245" type="line"/>
    </contour>
    <contour>
      <point x="1582" y="1615.11" type="line"/>
      <point x="1767" y="1615.11" type="line"/>
      <point x="1767" y="1430.11" type="line"/>
      <point x="1582" y="1430.11" type="line"/>
    </contour>
    <contour>
      <point x="1582" y="1373.9" type="line"/>
      <point x="1767" y="1373.9" type="line"/>
      <point x="1767" y="1188.9" type="line"/>
      <point x="1582" y="1188.9" type="line"/>
    </contour>
    <contour>
      <point x="1582" y="-60" type="line"/>
      <point x="1767" y="-60" type="line"/>
      <point x="1767" y="-245" type="line"/>
      <point x="1582" y="-245" type="line"/>
    </contour>
    <contour>
      <point x="1582" y="1146" type="line"/>
      <point x="1767" y="1146" type="line"/>
      <point x="1767" y="961" type="line"/>
      <point x="1582" y="961" type="line"/>
    </contour>
    <contour>
      <point x="1582" y="-60" type="line"/>
      <point x="1767" y="-60" type="line"/>
      <point x="1767" y="-245" type="line"/>
      <point x="1582" y="-245" type="line"/>
    </contour>
    <contour>
      <point x="1582" y="912" type="line"/>
      <point x="1767" y="912" type="line"/>
      <point x="1767" y="727" type="line"/>
      <point x="1582" y="727" type="line"/>
    </contour>
    <contour>
      <point x="1582" y="678" type="line"/>
      <point x="1767" y="678" type="line"/>
      <point x="1767" y="493" type="line"/>
      <point x="1582" y="493" type="line"/>
    </contour>
    <contour>
      <point x="1582" y="438" type="line"/>
      <point x="1767" y="438" type="line"/>
      <point x="1767" y="253" type="line"/>
      <point x="1582" y="253" type="line"/>
    </contour>
    <contour>
      <point x="1582" y="189" type="line"/>
      <point x="1767" y="189" type="line"/>
      <point x="1767" y="4" type="line"/>
      <point x="1582" y="4" type="line"/>
    </contour>
    <contour>
      <point x="1582" y="-60" type="line"/>
      <point x="1767" y="-60" type="line"/>
      <point x="1767" y="-245" type="line"/>
      <point x="1582" y="-245" type="line"/>
    </contour>
    <contour>
      <point x="1864" y="1615.11" type="line"/>
      <point x="2049" y="1615.11" type="line"/>
      <point x="2049" y="1430.11" type="line"/>
      <point x="1864" y="1430.11" type="line"/>
    </contour>
    <contour>
      <point x="1864" y="1373.9" type="line"/>
      <point x="2049" y="1373.9" type="line"/>
      <point x="2049" y="1188.9" type="line"/>
      <point x="1864" y="1188.9" type="line"/>
    </contour>
    <contour>
      <point x="1864" y="-60" type="line"/>
      <point x="2049" y="-60" type="line"/>
      <point x="2049" y="-245" type="line"/>
      <point x="1864" y="-245" type="line"/>
    </contour>
    <contour>
      <point x="1864" y="1146" type="line"/>
      <point x="2049" y="1146" type="line"/>
      <point x="2049" y="961" type="line"/>
      <point x="1864" y="961" type="line"/>
    </contour>
    <contour>
      <point x="1864" y="-60" type="line"/>
      <point x="2049" y="-60" type="line"/>
      <point x="2049" y="-245" type="line"/>
      <point x="1864" y="-245" type="line"/>
    </contour>
    <contour>
      <point x="1864" y="912" type="line"/>
      <point x="2049" y="912" type="line"/>
      <point x="2049" y="727" type="line"/>
      <point x="1864" y="727" type="line"/>
    </contour>
    <contour>
      <point x="1864" y="678" type="line"/>
      <point x="2049" y="678" type="line"/>
      <point x="2049" y="493" type="line"/>
      <point x="1864" y="493" type="line"/>
    </contour>
    <contour>
      <point x="1864" y="438" type="line"/>
      <point x="2049" y="438" type="line"/>
      <point x="2049" y="253" type="line"/>
      <point x="1864" y="253" type="line"/>
    </contour>
    <contour>
      <point x="1864" y="189" type="line"/>
      <point x="2049" y="189" type="line"/>
      <point x="2049" y="4" type="line"/>
      <point x="1864" y="4" type="line"/>
    </contour>
    <contour>
      <point x="1864" y="-60" type="line"/>
      <point x="2049" y="-60" type="line"/>
      <point x="2049" y="-245" type="line"/>
      <point x="1864" y="-245" type="line"/>
    </contour>
  </outline>
</glyph>
<glyph name="uniE0C6" format="2">
  <advance width="2048"/>
  <unicode hex="E0C6"/>
  <note>
uniE0C6
</note>
  <outline>
    <contour>
      <point x="1233.25" y="1615.25" type="line"/>
      <point x="1233.25" y="1847.75" type="line"/>
      <point x="1465.75" y="1847.75" type="line"/>
      <point x="1465.75" y="1615.25" type="line"/>
    </contour>
    <contour>
      <point x="1488.25" y="1892.75" type="curve" smooth="yes"/>
      <point x="1210.75" y="1892.75" type="line" smooth="yes"/>
      <point x="1201.09" y="1892.75"/>
      <point x="1188.25" y="1883.87"/>
      <point x="1188.25" y="1870.25" type="curve" smooth="yes"/>
      <point x="1188.25" y="1592.75" type="line" smooth="yes"/>
      <point x="1188.25" y="1583.09"/>
      <point x="1197.13" y="1570.25"/>
      <point x="1210.75" y="1570.25" type="curve" smooth="yes"/>
      <point x="1488.25" y="1570.25" type="line" smooth="yes"/>
      <point x="1497.91" y="1570.25"/>
      <point x="1510.75" y="1579.13"/>
      <point x="1510.75" y="1592.75" type="curve" smooth="yes"/>
      <point x="1510.75" y="1870.25" type="line" smooth="yes"/>
      <point x="1510.75" y="1879.91"/>
      <point x="1501.87" y="1892.75"/>
    </contour>
    <contour>
      <point x="1233.25" y="1615.25" type="line"/>
      <point x="1233.25" y="1847.75" type="line"/>
      <point x="1465.75" y="1847.75" type="line"/>
      <point x="1465.75" y="1615.25" type="line"/>
    </contour>
    <contour>
      <point x="1488.25" y="1892.75" type="curve" smooth="yes"/>
      <point x="1210.75" y="1892.75" type="line" smooth="yes"/>
      <point x="1201.09" y="1892.75"/>
      <point x="1188.25" y="1883.87"/>
      <point x="1188.25" y="1870.25" type="curve" smooth="yes"/>
      <point x="1188.25" y="1592.75" type="line" smooth="yes"/>
      <point x="1188.25" y="1583.09"/>
      <point x="1197.13" y="1570.25"/>
      <point x="1210.75" y="1570.25" type="curve" smooth="yes"/>
      <point x="1488.25" y="1570.25" type="line" smooth="yes"/>
      <point x="1497.91" y="1570.25"/>
      <point x="1510.75" y="1579.13"/>
      <point x="1510.75" y="1592.75" type="curve" smooth="yes"/>
      <point x="1510.75" y="1870.25" type="line" smooth="yes"/>
      <point x="1510.75" y="1879.91"/>
      <point x="1501.87" y="1892.75"/>
    </contour>
    <contour>
      <point x="1233.25" y="1615.25" type="line"/>
      <point x="1233.25" y="1847.75" type="line"/>
      <point x="1465.75" y="1847.75" type="line"/>
      <point x="1465.75" y="1615.25" type="line"/>
    </contour>
    <contour>
      <point x="1488.25" y="1892.75" type="curve" smooth="yes"/>
      <point x="1210.75" y="1892.75" type="line" smooth="yes"/>
      <point x="1201.09" y="1892.75"/>
      <point x="1188.25" y="1883.87"/>
      <point x="1188.25" y="1870.25" type="curve" smooth="yes"/>
      <point x="1188.25" y="1592.75" type="line" smooth="yes"/>
      <point x="1188.25" y="1583.09"/>
      <point x="1197.13" y="1570.25"/>
      <point x="1210.75" y="1570.25" type="curve" smooth="yes"/>
      <point x="1488.25" y="1570.25" type="line" smooth="yes"/>
      <point x="1497.91" y="1570.25"/>
      <point x="1510.75" y="1579.13"/>
      <point x="1510.75" y="1592.75" type="curve" smooth="yes"/>
      <point x="1510.75" y="1870.25" type="line" smooth="yes"/>
      <point x="1510.75" y="1879.91"/>
      <point x="1501.87" y="1892.75"/>
    </contour>
    <contour>
      <point x="806.25" y="1605.25" type="line"/>
      <point x="806.25" y="1857.75" type="line"/>
      <point x="1058.75" y="1857.75" type="line"/>
      <point x="1058.75" y="1605.25" type="line"/>
    </contour>
    <contour>
      <point x="1071.25" y="1882.75" type="curve" smooth="yes"/>
      <point x="793.75" y="1882.75" type="line" smooth="yes"/>
      <point x="788.38" y="1882.75"/>
      <point x="781.25" y="1877.82"/>
      <point x="781.25" y="1870.25" type="curve" smooth="yes"/>
      <point x="781.25" y="1592.75" type="line" smooth="yes"/>
      <point x="781.25" y="1587.38"/>
      <point x="786.18" y="1580.25"/>
      <point x="793.75" y="1580.25" type="curve" smooth="yes"/>
      <point x="1071.25" y="1580.25" type="line" smooth="yes"/>
      <point x="1076.62" y="1580.25"/>
      <point x="1083.75" y="1585.18"/>
      <point x="1083.75" y="1592.75" type="curve" smooth="yes"/>
      <point x="1083.75" y="1870.25" type="line" smooth="yes"/>
      <point x="1083.75" y="1875.62"/>
      <point x="1078.82" y="1882.75"/>
    </contour>
    <contour>
      <point x="806.25" y="1605.25" type="line"/>
      <point x="806.25" y="1857.75" type="line"/>
      <point x="1058.75" y="1857.75" type="line"/>
      <point x="1058.75" y="1605.25" type="line"/>
    </contour>
    <contour>
      <point x="1071.25" y="1882.75" type="curve" smooth="yes"/>
      <point x="793.75" y="1882.75" type="line" smooth="yes"/>
      <point x="788.38" y="1882.75"/>
      <point x="781.25" y="1877.82"/>
      <point x="781.25" y="1870.25" type="curve" smooth="yes"/>
      <point x="781.25" y="1592.75" type="line" smooth="yes"/>
      <point x="781.25" y="1587.38"/>
      <point x="786.18" y="1580.25"/>
      <point x="793.75" y="1580.25" type="curve" smooth="yes"/>
      <point x="1071.25" y="1580.25" type="line" smooth="yes"/>
      <point x="1076.62" y="1580.25"/>
      <point x="1083.75" y="1585.18"/>
      <point x="1083.75" y="1592.75" type="curve" smooth="yes"/>
      <point x="1083.75" y="1870.25" type="line" smooth="yes"/>
      <point x="1083.75" y="1875.62"/>
      <point x="1078.82" y="1882.75"/>
    </contour>
    <contour>
      <point x="806.25" y="1605.25" type="line"/>
      <point x="806.25" y="1857.75" type="line"/>
      <point x="1058.75" y="1857.75" type="line"/>
      <point x="1058.75" y="1605.25" type="line"/>
    </contour>
    <contour>
      <point x="1071.25" y="1882.75" type="curve" smooth="yes"/>
      <point x="793.75" y="1882.75" type="line" smooth="yes"/>
      <point x="788.38" y="1882.75"/>
      <point x="781.25" y="1877.82"/>
      <point x="781.25" y="1870.25" type="curve" smooth="yes"/>
      <point x="781.25" y="1592.75" type="line" smooth="yes"/>
      <point x="781.25" y="1587.38"/>
      <point x="786.18" y="1580.25"/>
      <point x="793.75" y="1580.25" type="curve" smooth="yes"/>
      <point x="1071.25" y="1580.25" type="line" smooth="yes"/>
      <point x="1076.62" y="1580.25"/>
      <point x="1083.75" y="1585.18"/>
      <point x="1083.75" y="1592.75" type="curve" smooth="yes"/>
      <point x="1083.75" y="1870.25" type="line" smooth="yes"/>
      <point x="1083.75" y="1875.62"/>
      <point x="1078.82" y="1882.75"/>
    </contour>
    <contour>
      <point x="666.25" y="1870.25" type="line"/>
      <point x="388.75" y="1870.25" type="line"/>
      <point x="388.75" y="1592.75" type="line"/>
      <point x="666.25" y="1592.75" type="line"/>
    </contour>
    <contour>
      <point x="666.25" y="1870.25" type="line"/>
      <point x="388.75" y="1870.25" type="line"/>
      <point x="388.75" y="1592.75" type="line"/>
      <point x="666.25" y="1592.75" type="line"/>
    </contour>
    <contour>
      <point x="666.25" y="1870.25" type="line"/>
      <point x="388.75" y="1870.25" type="line"/>
      <point x="388.75" y="1592.75" type="line"/>
      <point x="666.25" y="1592.75" type="line"/>
    </contour>
    <contour>
      <point x="243.25" y="1870.25" type="line"/>
      <point x="-34.25" y="1870.25" type="line"/>
      <point x="-34.25" y="1592.75" type="line"/>
      <point x="243.25" y="1592.75" type="line"/>
    </contour>
    <contour>
      <point x="243.25" y="1870.25" type="line"/>
      <point x="-34.25" y="1870.25" type="line"/>
      <point x="-34.25" y="1592.75" type="line"/>
      <point x="243.25" y="1592.75" type="line"/>
    </contour>
    <contour>
      <point x="243.25" y="1870.25" type="line"/>
      <point x="-34.25" y="1870.25" type="line"/>
      <point x="-34.25" y="1592.75" type="line"/>
      <point x="243.25" y="1592.75" type="line"/>
    </contour>
    <contour>
      <point x="1630.75" y="877.1" type="line"/>
      <point x="1630.75" y="1094.6" type="line"/>
      <point x="1848.25" y="1094.6" type="line"/>
      <point x="1848.25" y="877.1" type="line"/>
    </contour>
    <contour>
      <point x="1878.25" y="1154.6" type="curve" smooth="yes"/>
      <point x="1600.75" y="1154.6" type="line" smooth="yes"/>
      <point x="1587.87" y="1154.6"/>
      <point x="1570.75" y="1142.76"/>
      <point x="1570.75" y="1124.6" type="curve" smooth="yes"/>
      <point x="1570.75" y="847.1" type="line" smooth="yes"/>
      <point x="1570.75" y="834.22"/>
      <point x="1582.59" y="817.1"/>
      <point x="1600.75" y="817.1" type="curve" smooth="yes"/>
      <point x="1878.25" y="817.1" type="line" smooth="yes"/>
      <point x="1891.13" y="817.1"/>
      <point x="1908.25" y="828.94"/>
      <point x="1908.25" y="847.1" type="curve" smooth="yes"/>
      <point x="1908.25" y="1124.6" type="line" smooth="yes"/>
      <point x="1908.25" y="1137.48"/>
      <point x="1896.41" y="1154.6"/>
    </contour>
    <contour>
      <point x="1630.75" y="-526.75" type="line"/>
      <point x="1630.75" y="-309.25" type="line"/>
      <point x="1848.25" y="-309.25" type="line"/>
      <point x="1848.25" y="-526.75" type="line"/>
    </contour>
    <contour>
      <point x="1878.25" y="-249.25" type="curve" smooth="yes"/>
      <point x="1600.75" y="-249.25" type="line" smooth="yes"/>
      <point x="1587.87" y="-249.25"/>
      <point x="1570.75" y="-261.09"/>
      <point x="1570.75" y="-279.25" type="curve" smooth="yes"/>
      <point x="1570.75" y="-556.75" type="line" smooth="yes"/>
      <point x="1570.75" y="-569.63"/>
      <point x="1582.59" y="-586.75"/>
      <point x="1600.75" y="-586.75" type="curve" smooth="yes"/>
      <point x="1878.25" y="-586.75" type="line" smooth="yes"/>
      <point x="1891.13" y="-586.75"/>
      <point x="1908.25" y="-574.91"/>
      <point x="1908.25" y="-556.75" type="curve" smooth="yes"/>
      <point x="1908.25" y="-279.25" type="line" smooth="yes"/>
      <point x="1908.25" y="-266.37"/>
      <point x="1896.41" y="-249.25"/>
    </contour>
    <contour>
      <point x="1229.25" y="1221.42" type="line"/>
      <point x="1229.25" y="1473.92" type="line"/>
      <point x="1481.75" y="1473.92" type="line"/>
      <point x="1481.75" y="1221.42" type="line"/>
    </contour>
    <contour>
      <point x="1494.25" y="1498.92" type="curve" smooth="yes"/>
      <point x="1216.75" y="1498.92" type="line" smooth="yes"/>
      <point x="1211.38" y="1498.92"/>
      <point x="1204.25" y="1493.99"/>
      <point x="1204.25" y="1486.42" type="curve" smooth="yes"/>
      <point x="1204.25" y="1208.92" type="line" smooth="yes"/>
      <point x="1204.25" y="1203.55"/>
      <point x="1209.18" y="1196.42"/>
      <point x="1216.75" y="1196.42" type="curve" smooth="yes"/>
      <point x="1494.25" y="1196.42" type="line" smooth="yes"/>
      <point x="1499.62" y="1196.42"/>
      <point x="1506.75" y="1201.35"/>
      <point x="1506.75" y="1208.92" type="curve" smooth="yes"/>
      <point x="1506.75" y="1486.42" type="line" smooth="yes"/>
      <point x="1506.75" y="1491.79"/>
      <point x="1501.82" y="1498.92"/>
    </contour>
    <contour>
      <point x="1254.25" y="191.76" type="line"/>
      <point x="1254.25" y="394.26" type="line"/>
      <point x="1456.75" y="394.26" type="line"/>
      <point x="1456.75" y="191.76" type="line"/>
    </contour>
    <contour>
      <point x="1494.25" y="469.26" type="curve" smooth="yes"/>
      <point x="1216.75" y="469.26" type="line" smooth="yes"/>
      <point x="1200.66" y="469.26"/>
      <point x="1179.25" y="454.46"/>
      <point x="1179.25" y="431.76" type="curve" smooth="yes"/>
      <point x="1179.25" y="154.26" type="line" smooth="yes"/>
      <point x="1179.25" y="138.17"/>
      <point x="1194.05" y="116.76"/>
      <point x="1216.75" y="116.76" type="curve" smooth="yes"/>
      <point x="1494.25" y="116.76" type="line" smooth="yes"/>
      <point x="1510.34" y="116.76"/>
      <point x="1531.75" y="131.56"/>
      <point x="1531.75" y="154.26" type="curve" smooth="yes"/>
      <point x="1531.75" y="431.76" type="line" smooth="yes"/>
      <point x="1531.75" y="447.85"/>
      <point x="1516.95" y="469.26"/>
    </contour>
    <contour>
      <point x="1071.25" y="1486.43" type="line"/>
      <point x="793.75" y="1486.43" type="line"/>
      <point x="793.75" y="1208.93" type="line"/>
      <point x="1071.25" y="1208.93" type="line"/>
    </contour>
    <contour>
      <point x="806.25" y="859.62" type="line"/>
      <point x="806.25" y="1112.12" type="line"/>
      <point x="1058.75" y="1112.12" type="line"/>
      <point x="1058.75" y="859.62" type="line"/>
    </contour>
    <contour>
      <point x="1071.25" y="1137.12" type="curve" smooth="yes"/>
      <point x="793.75" y="1137.12" type="line" smooth="yes"/>
      <point x="788.38" y="1137.12"/>
      <point x="781.25" y="1132.19"/>
      <point x="781.25" y="1124.62" type="curve" smooth="yes"/>
      <point x="781.25" y="847.12" type="line" smooth="yes"/>
      <point x="781.25" y="841.75"/>
      <point x="786.18" y="834.62"/>
      <point x="793.75" y="834.62" type="curve" smooth="yes"/>
      <point x="1071.25" y="834.62" type="line" smooth="yes"/>
      <point x="1076.62" y="834.62"/>
      <point x="1083.75" y="839.55"/>
      <point x="1083.75" y="847.12" type="curve" smooth="yes"/>
      <point x="1083.75" y="1124.62" type="line" smooth="yes"/>
      <point x="1083.75" y="1129.99"/>
      <point x="1078.82" y="1137.12"/>
    </contour>
    <contour>
      <point x="1071.25" y="782.77" type="line"/>
      <point x="793.75" y="782.77" type="line"/>
      <point x="793.75" y="505.27" type="line"/>
      <point x="1071.25" y="505.27" type="line"/>
    </contour>
    <contour>
      <point x="818.75" y="-171.73" type="line"/>
      <point x="818.75" y="55.77" type="line"/>
      <point x="1046.25" y="55.77" type="line"/>
      <point x="1046.25" y="-171.73" type="line"/>
    </contour>
    <contour>
      <point x="1071.25" y="105.77" type="curve" smooth="yes"/>
      <point x="793.75" y="105.77" type="line" smooth="yes"/>
      <point x="783.02" y="105.77"/>
      <point x="768.75" y="95.9"/>
      <point x="768.75" y="80.77" type="curve" smooth="yes"/>
      <point x="768.75" y="-196.73" type="line" smooth="yes"/>
      <point x="768.75" y="-207.46"/>
      <point x="778.62" y="-221.73"/>
      <point x="793.75" y="-221.73" type="curve" smooth="yes"/>
      <point x="1071.25" y="-221.73" type="line" smooth="yes"/>
      <point x="1081.98" y="-221.73"/>
      <point x="1096.25" y="-211.86"/>
      <point x="1096.25" y="-196.73" type="curve" smooth="yes"/>
      <point x="1096.25" y="80.77" type="line" smooth="yes"/>
      <point x="1096.25" y="91.5"/>
      <point x="1086.38" y="105.77"/>
    </contour>
    <contour>
      <point x="666.25" y="1486.44" type="line"/>
      <point x="388.75" y="1486.44" type="line"/>
      <point x="388.75" y="1208.94" type="line"/>
      <point x="666.25" y="1208.94" type="line"/>
    </contour>
    <contour>
      <point x="666.25" y="1124.63" type="line"/>
      <point x="388.75" y="1124.63" type="line"/>
      <point x="388.75" y="847.13" type="line"/>
      <point x="666.25" y="847.13" type="line"/>
    </contour>
    <contour>
      <point x="666.25" y="431.78" type="line"/>
      <point x="388.75" y="431.78" type="line"/>
      <point x="388.75" y="154.28" type="line"/>
      <point x="666.25" y="154.28" type="line"/>
    </contour>
    <contour>
      <point x="666.25" y="80.78" type="line"/>
      <point x="388.75" y="80.78" type="line"/>
      <point x="388.75" y="-196.72" type="line"/>
      <point x="666.25" y="-196.72" type="line"/>
    </contour>
    <contour>
      <point x="666.25" y="-279.22" type="line"/>
      <point x="388.75" y="-279.22" type="line"/>
      <point x="388.75" y="-556.72" type="line"/>
      <point x="666.25" y="-556.72" type="line"/>
    </contour>
    <contour>
      <point x="243.25" y="1486.45" type="line"/>
      <point x="-34.25" y="1486.45" type="line"/>
      <point x="-34.25" y="1208.95" type="line"/>
      <point x="243.25" y="1208.95" type="line"/>
    </contour>
    <contour>
      <point x="243.25" y="1124.64" type="line"/>
      <point x="-34.25" y="1124.64" type="line"/>
      <point x="-34.25" y="847.14" type="line"/>
      <point x="243.25" y="847.14" type="line"/>
    </contour>
    <contour>
      <point x="243.25" y="782.79" type="line"/>
      <point x="-34.25" y="782.79" type="line"/>
      <point x="-34.25" y="505.29" type="line"/>
      <point x="243.25" y="505.29" type="line"/>
    </contour>
    <contour>
      <point x="243.25" y="431.79" type="line"/>
      <point x="-34.25" y="431.79" type="line"/>
      <point x="-34.25" y="154.29" type="line"/>
      <point x="243.25" y="154.29" type="line"/>
    </contour>
    <contour>
      <point x="243.25" y="80.79" type="line"/>
      <point x="-34.25" y="80.79" type="line"/>
      <point x="-34.25" y="-196.71" type="line"/>
      <point x="243.25" y="-196.71" type="line"/>
    </contour>
    <contour>
      <point x="243.25" y="-279.21" type="line"/>
      <point x="-34.25" y="-279.21" type="line"/>
      <point x="-34.25" y="-556.71" type="line"/>
      <point x="243.25" y="-556.71" type="line"/>
    </contour>
  </outline>
</glyph>
<glyph name="uniE0C7" format="2">
  <advance width="2048"/>
  <unicode hex="E0C7"/>
  <note>
uniE0C7
</note>
  <outline>
    <contour>
      <point x="640.75" y="1615.25" type="line"/>
      <point x="640.75" y="1847.75" type="line"/>
      <point x="408.25" y="1847.75" type="line"/>
      <point x="408.25" y="1615.25" type="line"/>
    </contour>
    <contour>
      <point x="385.75" y="1892.75" type="curve" smooth="yes"/>
      <point x="663.25" y="1892.75" type="line" smooth="yes"/>
      <point x="672.91" y="1892.75"/>
      <point x="685.75" y="1883.87"/>
      <point x="685.75" y="1870.25" type="curve" smooth="yes"/>
      <point x="685.75" y="1592.75" type="line" smooth="yes"/>
      <point x="685.75" y="1583.09"/>
      <point x="676.87" y="1570.25"/>
      <point x="663.25" y="1570.25" type="curve" smooth="yes"/>
      <point x="385.75" y="1570.25" type="line" smooth="yes"/>
      <point x="376.09" y="1570.25"/>
      <point x="363.25" y="1579.13"/>
      <point x="363.25" y="1592.75" type="curve" smooth="yes"/>
      <point x="363.25" y="1870.25" type="line" smooth="yes"/>
      <point x="363.25" y="1879.91"/>
      <point x="372.13" y="1892.75"/>
    </contour>
    <contour>
      <point x="640.75" y="1615.25" type="line"/>
      <point x="640.75" y="1847.75" type="line"/>
      <point x="408.25" y="1847.75" type="line"/>
      <point x="408.25" y="1615.25" type="line"/>
    </contour>
    <contour>
      <point x="385.75" y="1892.75" type="curve" smooth="yes"/>
      <point x="663.25" y="1892.75" type="line" smooth="yes"/>
      <point x="672.91" y="1892.75"/>
      <point x="685.75" y="1883.87"/>
      <point x="685.75" y="1870.25" type="curve" smooth="yes"/>
      <point x="685.75" y="1592.75" type="line" smooth="yes"/>
      <point x="685.75" y="1583.09"/>
      <point x="676.87" y="1570.25"/>
      <point x="663.25" y="1570.25" type="curve" smooth="yes"/>
      <point x="385.75" y="1570.25" type="line" smooth="yes"/>
      <point x="376.09" y="1570.25"/>
      <point x="363.25" y="1579.13"/>
      <point x="363.25" y="1592.75" type="curve" smooth="yes"/>
      <point x="363.25" y="1870.25" type="line" smooth="yes"/>
      <point x="363.25" y="1879.91"/>
      <point x="372.13" y="1892.75"/>
    </contour>
    <contour>
      <point x="640.75" y="1615.25" type="line"/>
      <point x="640.75" y="1847.75" type="line"/>
      <point x="408.25" y="1847.75" type="line"/>
      <point x="408.25" y="1615.25" type="line"/>
    </contour>
    <contour>
      <point x="385.75" y="1892.75" type="curve" smooth="yes"/>
      <point x="663.25" y="1892.75" type="line" smooth="yes"/>
      <point x="672.91" y="1892.75"/>
      <point x="685.75" y="1883.87"/>
      <point x="685.75" y="1870.25" type="curve" smooth="yes"/>
      <point x="685.75" y="1592.75" type="line" smooth="yes"/>
      <point x="685.75" y="1583.09"/>
      <point x="676.87" y="1570.25"/>
      <point x="663.25" y="1570.25" type="curve" smooth="yes"/>
      <point x="385.75" y="1570.25" type="line" smooth="yes"/>
      <point x="376.09" y="1570.25"/>
      <point x="363.25" y="1579.13"/>
      <point x="363.25" y="1592.75" type="curve" smooth="yes"/>
      <point x="363.25" y="1870.25" type="line" smooth="yes"/>
      <point x="363.25" y="1879.91"/>
      <point x="372.13" y="1892.75"/>
    </contour>
    <contour>
      <point x="1067.75" y="1605.25" type="line"/>
      <point x="1067.75" y="1857.75" type="line"/>
      <point x="815.25" y="1857.75" type="line"/>
      <point x="815.25" y="1605.25" type="line"/>
    </contour>
    <contour>
      <point x="802.75" y="1882.75" type="curve" smooth="yes"/>
      <point x="1080.25" y="1882.75" type="line" smooth="yes"/>
      <point x="1085.62" y="1882.75"/>
      <point x="1092.75" y="1877.82"/>
      <point x="1092.75" y="1870.25" type="curve" smooth="yes"/>
      <point x="1092.75" y="1592.75" type="line" smooth="yes"/>
      <point x="1092.75" y="1587.38"/>
      <point x="1087.82" y="1580.25"/>
      <point x="1080.25" y="1580.25" type="curve" smooth="yes"/>
      <point x="802.75" y="1580.25" type="line" smooth="yes"/>
      <point x="797.38" y="1580.25"/>
      <point x="790.25" y="1585.18"/>
      <point x="790.25" y="1592.75" type="curve" smooth="yes"/>
      <point x="790.25" y="1870.25" type="line" smooth="yes"/>
      <point x="790.25" y="1875.62"/>
      <point x="795.18" y="1882.75"/>
    </contour>
    <contour>
      <point x="1067.75" y="1605.25" type="line"/>
      <point x="1067.75" y="1857.75" type="line"/>
      <point x="815.25" y="1857.75" type="line"/>
      <point x="815.25" y="1605.25" type="line"/>
    </contour>
    <contour>
      <point x="802.75" y="1882.75" type="curve" smooth="yes"/>
      <point x="1080.25" y="1882.75" type="line" smooth="yes"/>
      <point x="1085.62" y="1882.75"/>
      <point x="1092.75" y="1877.82"/>
      <point x="1092.75" y="1870.25" type="curve" smooth="yes"/>
      <point x="1092.75" y="1592.75" type="line" smooth="yes"/>
      <point x="1092.75" y="1587.38"/>
      <point x="1087.82" y="1580.25"/>
      <point x="1080.25" y="1580.25" type="curve" smooth="yes"/>
      <point x="802.75" y="1580.25" type="line" smooth="yes"/>
      <point x="797.38" y="1580.25"/>
      <point x="790.25" y="1585.18"/>
      <point x="790.25" y="1592.75" type="curve" smooth="yes"/>
      <point x="790.25" y="1870.25" type="line" smooth="yes"/>
      <point x="790.25" y="1875.62"/>
      <point x="795.18" y="1882.75"/>
    </contour>
    <contour>
      <point x="1067.75" y="1605.25" type="line"/>
      <point x="1067.75" y="1857.75" type="line"/>
      <point x="815.25" y="1857.75" type="line"/>
      <point x="815.25" y="1605.25" type="line"/>
    </contour>
    <contour>
      <point x="802.75" y="1882.75" type="curve" smooth="yes"/>
      <point x="1080.25" y="1882.75" type="line" smooth="yes"/>
      <point x="1085.62" y="1882.75"/>
      <point x="1092.75" y="1877.82"/>
      <point x="1092.75" y="1870.25" type="curve" smooth="yes"/>
      <point x="1092.75" y="1592.75" type="line" smooth="yes"/>
      <point x="1092.75" y="1587.38"/>
      <point x="1087.82" y="1580.25"/>
      <point x="1080.25" y="1580.25" type="curve" smooth="yes"/>
      <point x="802.75" y="1580.25" type="line" smooth="yes"/>
      <point x="797.38" y="1580.25"/>
      <point x="790.25" y="1585.18"/>
      <point x="790.25" y="1592.75" type="curve" smooth="yes"/>
      <point x="790.25" y="1870.25" type="line" smooth="yes"/>
      <point x="790.25" y="1875.62"/>
      <point x="795.18" y="1882.75"/>
    </contour>
    <contour>
      <point x="1207.75" y="1870.25" type="line"/>
      <point x="1485.25" y="1870.25" type="line"/>
      <point x="1485.25" y="1592.75" type="line"/>
      <point x="1207.75" y="1592.75" type="line"/>
    </contour>
    <contour>
      <point x="1207.75" y="1870.25" type="line"/>
      <point x="1485.25" y="1870.25" type="line"/>
      <point x="1485.25" y="1592.75" type="line"/>
      <point x="1207.75" y="1592.75" type="line"/>
    </contour>
    <contour>
      <point x="1207.75" y="1870.25" type="line"/>
      <point x="1485.25" y="1870.25" type="line"/>
      <point x="1485.25" y="1592.75" type="line"/>
      <point x="1207.75" y="1592.75" type="line"/>
    </contour>
    <contour>
      <point x="1630.75" y="1870.25" type="line"/>
      <point x="1908.25" y="1870.25" type="line"/>
      <point x="1908.25" y="1592.75" type="line"/>
      <point x="1630.75" y="1592.75" type="line"/>
    </contour>
    <contour>
      <point x="1630.75" y="1870.25" type="line"/>
      <point x="1908.25" y="1870.25" type="line"/>
      <point x="1908.25" y="1592.75" type="line"/>
      <point x="1630.75" y="1592.75" type="line"/>
    </contour>
    <contour>
      <point x="1630.75" y="1870.25" type="line"/>
      <point x="1908.25" y="1870.25" type="line"/>
      <point x="1908.25" y="1592.75" type="line"/>
      <point x="1630.75" y="1592.75" type="line"/>
    </contour>
    <contour>
      <point x="243.25" y="877.1" type="line"/>
      <point x="243.25" y="1094.6" type="line"/>
      <point x="25.75" y="1094.6" type="line"/>
      <point x="25.75" y="877.1" type="line"/>
    </contour>
    <contour>
      <point x="-4.25" y="1154.6" type="curve" smooth="yes"/>
      <point x="273.25" y="1154.6" type="line" smooth="yes"/>
      <point x="286.13" y="1154.6"/>
      <point x="303.25" y="1142.76"/>
      <point x="303.25" y="1124.6" type="curve" smooth="yes"/>
      <point x="303.25" y="847.1" type="line" smooth="yes"/>
      <point x="303.25" y="834.22"/>
      <point x="291.41" y="817.1"/>
      <point x="273.25" y="817.1" type="curve" smooth="yes"/>
      <point x="-4.25" y="817.1" type="line" smooth="yes"/>
      <point x="-17.13" y="817.1"/>
      <point x="-34.25" y="828.94"/>
      <point x="-34.25" y="847.1" type="curve" smooth="yes"/>
      <point x="-34.25" y="1124.6" type="line" smooth="yes"/>
      <point x="-34.25" y="1137.48"/>
      <point x="-22.41" y="1154.6"/>
    </contour>
    <contour>
      <point x="243.25" y="-526.75" type="line"/>
      <point x="243.25" y="-309.25" type="line"/>
      <point x="25.75" y="-309.25" type="line"/>
      <point x="25.75" y="-526.75" type="line"/>
    </contour>
    <contour>
      <point x="-4.25" y="-249.25" type="curve" smooth="yes"/>
      <point x="273.25" y="-249.25" type="line" smooth="yes"/>
      <point x="286.13" y="-249.25"/>
      <point x="303.25" y="-261.09"/>
      <point x="303.25" y="-279.25" type="curve" smooth="yes"/>
      <point x="303.25" y="-556.75" type="line" smooth="yes"/>
      <point x="303.25" y="-569.63"/>
      <point x="291.41" y="-586.75"/>
      <point x="273.25" y="-586.75" type="curve" smooth="yes"/>
      <point x="-4.25" y="-586.75" type="line" smooth="yes"/>
      <point x="-17.13" y="-586.75"/>
      <point x="-34.25" y="-574.91"/>
      <point x="-34.25" y="-556.75" type="curve" smooth="yes"/>
      <point x="-34.25" y="-279.25" type="line" smooth="yes"/>
      <point x="-34.25" y="-266.37"/>
      <point x="-22.41" y="-249.25"/>
    </contour>
    <contour>
      <point x="644.75" y="1221.42" type="line"/>
      <point x="644.75" y="1473.92" type="line"/>
      <point x="392.25" y="1473.92" type="line"/>
      <point x="392.25" y="1221.42" type="line"/>
    </contour>
    <contour>
      <point x="379.75" y="1498.92" type="curve" smooth="yes"/>
      <point x="657.25" y="1498.92" type="line" smooth="yes"/>
      <point x="662.62" y="1498.92"/>
      <point x="669.75" y="1493.99"/>
      <point x="669.75" y="1486.42" type="curve" smooth="yes"/>
      <point x="669.75" y="1208.92" type="line" smooth="yes"/>
      <point x="669.75" y="1203.55"/>
      <point x="664.82" y="1196.42"/>
      <point x="657.25" y="1196.42" type="curve" smooth="yes"/>
      <point x="379.75" y="1196.42" type="line" smooth="yes"/>
      <point x="374.38" y="1196.42"/>
      <point x="367.25" y="1201.35"/>
      <point x="367.25" y="1208.92" type="curve" smooth="yes"/>
      <point x="367.25" y="1486.42" type="line" smooth="yes"/>
      <point x="367.25" y="1491.79"/>
      <point x="372.18" y="1498.92"/>
    </contour>
    <contour>
      <point x="619.75" y="191.76" type="line"/>
      <point x="619.75" y="394.26" type="line"/>
      <point x="417.25" y="394.26" type="line"/>
      <point x="417.25" y="191.76" type="line"/>
    </contour>
    <contour>
      <point x="379.75" y="469.26" type="curve" smooth="yes"/>
      <point x="657.25" y="469.26" type="line" smooth="yes"/>
      <point x="673.34" y="469.26"/>
      <point x="694.75" y="454.46"/>
      <point x="694.75" y="431.76" type="curve" smooth="yes"/>
      <point x="694.75" y="154.26" type="line" smooth="yes"/>
      <point x="694.75" y="138.17"/>
      <point x="679.95" y="116.76"/>
      <point x="657.25" y="116.76" type="curve" smooth="yes"/>
      <point x="379.75" y="116.76" type="line" smooth="yes"/>
      <point x="363.66" y="116.76"/>
      <point x="342.25" y="131.56"/>
      <point x="342.25" y="154.26" type="curve" smooth="yes"/>
      <point x="342.25" y="431.76" type="line" smooth="yes"/>
      <point x="342.25" y="447.85"/>
      <point x="357.05" y="469.26"/>
    </contour>
    <contour>
      <point x="802.75" y="1486.43" type="line"/>
      <point x="1080.25" y="1486.43" type="line"/>
      <point x="1080.25" y="1208.93" type="line"/>
      <point x="802.75" y="1208.93" type="line"/>
    </contour>
    <contour>
      <point x="1067.75" y="859.62" type="line"/>
      <point x="1067.75" y="1112.12" type="line"/>
      <point x="815.25" y="1112.12" type="line"/>
      <point x="815.25" y="859.62" type="line"/>
    </contour>
    <contour>
      <point x="802.75" y="1137.12" type="curve" smooth="yes"/>
      <point x="1080.25" y="1137.12" type="line" smooth="yes"/>
      <point x="1085.62" y="1137.12"/>
      <point x="1092.75" y="1132.19"/>
      <point x="1092.75" y="1124.62" type="curve" smooth="yes"/>
      <point x="1092.75" y="847.12" type="line" smooth="yes"/>
      <point x="1092.75" y="841.75"/>
      <point x="1087.82" y="834.62"/>
      <point x="1080.25" y="834.62" type="curve" smooth="yes"/>
      <point x="802.75" y="834.62" type="line" smooth="yes"/>
      <point x="797.38" y="834.62"/>
      <point x="790.25" y="839.55"/>
      <point x="790.25" y="847.12" type="curve" smooth="yes"/>
      <point x="790.25" y="1124.62" type="line" smooth="yes"/>
      <point x="790.25" y="1129.99"/>
      <point x="795.18" y="1137.12"/>
    </contour>
    <contour>
      <point x="802.75" y="782.77" type="line"/>
      <point x="1080.25" y="782.77" type="line"/>
      <point x="1080.25" y="505.27" type="line"/>
      <point x="802.75" y="505.27" type="line"/>
    </contour>
    <contour>
      <point x="1055.25" y="-171.73" type="line"/>
      <point x="1055.25" y="55.77" type="line"/>
      <point x="827.75" y="55.77" type="line"/>
      <point x="827.75" y="-171.73" type="line"/>
    </contour>
    <contour>
      <point x="802.75" y="105.77" type="curve" smooth="yes"/>
      <point x="1080.25" y="105.77" type="line" smooth="yes"/>
      <point x="1090.98" y="105.77"/>
      <point x="1105.25" y="95.9"/>
      <point x="1105.25" y="80.77" type="curve" smooth="yes"/>
      <point x="1105.25" y="-196.73" type="line" smooth="yes"/>
      <point x="1105.25" y="-207.46"/>
      <point x="1095.38" y="-221.73"/>
      <point x="1080.25" y="-221.73" type="curve" smooth="yes"/>
      <point x="802.75" y="-221.73" type="line" smooth="yes"/>
      <point x="792.02" y="-221.73"/>
      <point x="777.75" y="-211.86"/>
      <point x="777.75" y="-196.73" type="curve" smooth="yes"/>
      <point x="777.75" y="80.77" type="line" smooth="yes"/>
      <point x="777.75" y="91.5"/>
      <point x="787.62" y="105.77"/>
    </contour>
    <contour>
      <point x="1207.75" y="1486.44" type="line"/>
      <point x="1485.25" y="1486.44" type="line"/>
      <point x="1485.25" y="1208.94" type="line"/>
      <point x="1207.75" y="1208.94" type="line"/>
    </contour>
    <contour>
      <point x="1207.75" y="1124.63" type="line"/>
      <point x="1485.25" y="1124.63" type="line"/>
      <point x="1485.25" y="847.13" type="line"/>
      <point x="1207.75" y="847.13" type="line"/>
    </contour>
    <contour>
      <point x="1207.75" y="431.78" type="line"/>
      <point x="1485.25" y="431.78" type="line"/>
      <point x="1485.25" y="154.28" type="line"/>
      <point x="1207.75" y="154.28" type="line"/>
    </contour>
    <contour>
      <point x="1207.75" y="80.78" type="line"/>
      <point x="1485.25" y="80.78" type="line"/>
      <point x="1485.25" y="-196.72" type="line"/>
      <point x="1207.75" y="-196.72" type="line"/>
    </contour>
    <contour>
      <point x="1207.75" y="-279.22" type="line"/>
      <point x="1485.25" y="-279.22" type="line"/>
      <point x="1485.25" y="-556.72" type="line"/>
      <point x="1207.75" y="-556.72" type="line"/>
    </contour>
    <contour>
      <point x="1630.75" y="1486.45" type="line"/>
      <point x="1908.25" y="1486.45" type="line"/>
      <point x="1908.25" y="1208.95" type="line"/>
      <point x="1630.75" y="1208.95" type="line"/>
    </contour>
    <contour>
      <point x="1630.75" y="1124.64" type="line"/>
      <point x="1908.25" y="1124.64" type="line"/>
      <point x="1908.25" y="847.14" type="line"/>
      <point x="1630.75" y="847.14" type="line"/>
    </contour>
    <contour>
      <point x="1630.75" y="782.79" type="line"/>
      <point x="1908.25" y="782.79" type="line"/>
      <point x="1908.25" y="505.29" type="line"/>
      <point x="1630.75" y="505.29" type="line"/>
    </contour>
    <contour>
      <point x="1630.75" y="431.79" type="line"/>
      <point x="1908.25" y="431.79" type="line"/>
      <point x="1908.25" y="154.29" type="line"/>
      <point x="1630.75" y="154.29" type="line"/>
    </contour>
    <contour>
      <point x="1630.75" y="80.79" type="line"/>
      <point x="1908.25" y="80.79" type="line"/>
      <point x="1908.25" y="-196.71" type="line"/>
      <point x="1630.75" y="-196.71" type="line"/>
    </contour>
    <contour>
      <point x="1630.75" y="-279.21" type="line"/>
      <point x="1908.25" y="-279.21" type="line"/>
      <point x="1908.25" y="-556.71" type="line"/>
      <point x="1630.75" y="-556.71" type="line"/>
    </contour>
  </outline>
</glyph>
<glyph name="uniE0C8" format="2">
  <advance width="2048"/>
  <unicode hex="E0C8"/>
  <note>
uniE0C8
</note>
  <outline>
    <contour>
      <point x="-413.83" y="1765.22" type="curve" smooth="yes"/>
      <point x="-411.19" y="-534.59" type="line" smooth="yes"/>
      <point x="-411.19" y="-537.12"/>
      <point x="-407.98" y="-539.65"/>
      <point x="-403.76" y="-539.65" type="curve" smooth="yes"/>
      <point x="-403.43" y="-539.65"/>
      <point x="-279.62" y="-539.86"/>
      <point x="-242.99" y="-534.1" type="curve" smooth="yes"/>
      <point x="-207.72" y="-528.54"/>
      <point x="-141.42" y="-512.27"/>
      <point x="-107.75" y="-506.98" type="curve" smooth="yes"/>
      <point x="-98.21" y="-505.48"/>
      <point x="-85.27" y="-505.26"/>
      <point x="-70.18" y="-505.26" type="curve" smooth="yes"/>
      <point x="-64" y="-505.26"/>
      <point x="-57.45" y="-505.3"/>
      <point x="-50.63" y="-505.3" type="curve" smooth="yes"/>
      <point x="-19.39" y="-505.3"/>
      <point x="17.65" y="-504.53"/>
      <point x="52.23" y="-495.96" type="curve" smooth="yes"/>
      <point x="107.7" y="-482.21"/>
      <point x="118.68" y="-472.56"/>
      <point x="164.64" y="-472.56" type="curve" smooth="yes"/>
      <point x="168.39" y="-472.56"/>
      <point x="172.38" y="-472.62"/>
      <point x="176.64" y="-472.76" type="curve" smooth="yes"/>
      <point x="195.87" y="-473.36"/>
      <point x="207.39" y="-473.7"/>
      <point x="215.17" y="-473.7" type="curve" smooth="yes"/>
      <point x="230.5" y="-473.7"/>
      <point x="231.33" y="-472.36"/>
      <point x="248.06" y="-468.94" type="curve" smooth="yes"/>
      <point x="272.51" y="-463.94"/>
      <point x="378.9" y="-460.11"/>
      <point x="378.9" y="-460.11" type="curve"/>
      <point x="379.02" y="-460.11"/>
      <point x="379.25" y="-460.09"/>
      <point x="379.41" y="-460.08" type="curve" smooth="yes"/>
      <point x="399.73" y="-458.42"/>
      <point x="408.86" y="-449.54"/>
      <point x="408.86" y="-440.66" type="curve" smooth="yes"/>
      <point x="408.86" y="-431.49"/>
      <point x="399.13" y="-422.33"/>
      <point x="381.94" y="-421.09" type="curve" smooth="yes"/>
      <point x="368.03" y="-420.09"/>
      <point x="354.69" y="-419.79"/>
      <point x="342.21" y="-419.79" type="curve" smooth="yes"/>
      <point x="322.86" y="-419.79"/>
      <point x="305.57" y="-420.52"/>
      <point x="291.41" y="-420.52" type="curve" smooth="yes"/>
      <point x="279.05" y="-420.52"/>
      <point x="269.08" y="-419.96"/>
      <point x="262.2" y="-417.88" type="curve" smooth="yes"/>
      <point x="241.3" y="-411.55"/>
      <point x="236.22" y="-401.65"/>
      <point x="194.81" y="-394.12" type="curve" smooth="yes"/>
      <point x="155.45" y="-386.96"/>
      <point x="129.03" y="-379.71"/>
      <point x="101.54" y="-375.97" type="curve" smooth="yes"/>
      <point x="72.58" y="-372.03"/>
      <point x="54.86" y="-373.16"/>
      <point x="47.53" y="-366.92" type="curve" smooth="yes"/>
      <point x="38.29" y="-359.04"/>
      <point x="16.81" y="-358.02"/>
      <point x="-1.73" y="-358.02" type="curve" smooth="yes"/>
      <point x="-8.14" y="-358.02"/>
      <point x="-14.2" y="-358.14"/>
      <point x="-19.29" y="-358.14" type="curve" smooth="yes"/>
      <point x="-23.1" y="-358.14"/>
      <point x="-26.37" y="-358.07"/>
      <point x="-28.81" y="-357.83" type="curve" smooth="yes"/>
      <point x="-50.79" y="-355.69"/>
      <point x="-75.59" y="-353.32"/>
      <point x="-75.59" y="-344.35" type="curve" smooth="yes"/>
      <point x="-75.59" y="-344.08"/>
      <point x="-75.57" y="-343.8"/>
      <point x="-75.52" y="-343.52" type="curve" smooth="yes"/>
      <point x="-74" y="-334.2"/>
      <point x="4.46" y="-320.9"/>
      <point x="65.6" y="-320.9" type="curve" smooth="yes"/>
      <point x="125.57" y="-320.9"/>
      <point x="141.74" y="-307.98"/>
      <point x="167.04" y="-306.42" type="curve" smooth="yes"/>
      <point x="196.6" y="-304.59"/>
      <point x="267.65" y="-299.37"/>
      <point x="293.35" y="-293.52" type="curve" smooth="yes"/>
      <point x="317.35" y="-288.06"/>
      <point x="330.14" y="-278.69"/>
      <point x="348.31" y="-278.69" type="curve" smooth="yes"/>
      <point x="350.71" y="-278.69"/>
      <point x="353.21" y="-278.85"/>
      <point x="355.84" y="-279.21" type="curve" smooth="yes"/>
      <point x="365.24" y="-280.49"/>
      <point x="381.58" y="-281.69"/>
      <point x="398.46" y="-281.69" type="curve" smooth="yes"/>
      <point x="425.12" y="-281.69"/>
      <point x="453.13" y="-278.71"/>
      <point x="457.27" y="-268.35" type="curve" smooth="yes"/>
      <point x="458.23" y="-265.95"/>
      <point x="458.65" y="-263.67"/>
      <point x="458.65" y="-261.52" type="curve" smooth="yes"/>
      <point x="458.65" y="-247.49"/>
      <point x="440.84" y="-238.72"/>
      <point x="439.01" y="-234.96" type="curve"/>
      <point x="445.97" y="-231.7"/>
      <point x="483.58" y="-228.69"/>
      <point x="497.84" y="-228.69" type="curve" smooth="yes"/>
      <point x="515" y="-228.69"/>
      <point x="585.92" y="-223.26"/>
      <point x="607.48" y="-221.42" type="curve" smooth="yes"/>
      <point x="627.47" y="-219.71"/>
      <point x="705.03" y="-219.64"/>
      <point x="774.19" y="-216.02" type="curve" smooth="yes"/>
      <point x="779.47" y="-215.74"/>
      <point x="786.33" y="-215.66"/>
      <point x="794.26" y="-215.66" type="curve" smooth="yes"/>
      <point x="804.3" y="-215.66"/>
      <point x="816.06" y="-215.79"/>
      <point x="828.48" y="-215.79" type="curve" smooth="yes"/>
      <point x="853.21" y="-215.79"/>
      <point x="880.59" y="-215.29"/>
      <point x="902.36" y="-212.32" type="curve" smooth="yes"/>
      <point x="941.12" y="-207.03"/>
      <point x="972.3" y="-208.96"/>
      <point x="997.98" y="-205.07" type="curve" smooth="yes"/>
      <point x="1014.12" y="-202.62"/>
      <point x="1088.65" y="-208.93"/>
      <point x="1088.65" y="-183.85" type="curve" smooth="yes"/>
      <point x="1088.65" y="-160.16"/>
      <point x="1054.61" y="-162.09"/>
      <point x="1000.35" y="-155.37" type="curve" smooth="yes"/>
      <point x="982.26" y="-153.13"/>
      <point x="968.33" y="-152.45"/>
      <point x="957.18" y="-152.45" type="curve" smooth="yes"/>
      <point x="940.21" y="-152.45"/>
      <point x="929.68" y="-154.02"/>
      <point x="920.7" y="-154.02" type="curve" smooth="yes"/>
      <point x="915.8" y="-154.02"/>
      <point x="911.35" y="-153.55"/>
      <point x="906.57" y="-152.1" type="curve" smooth="yes"/>
      <point x="886.23" y="-145.94"/>
      <point x="856.13" y="-134.74"/>
      <point x="825.31" y="-134.74" type="curve" smooth="yes"/>
      <point x="820.94" y="-134.74"/>
      <point x="816.55" y="-134.97"/>
      <point x="812.18" y="-135.46" type="curve" smooth="yes"/>
      <point x="793.29" y="-137.6"/>
      <point x="773.33" y="-139.33"/>
      <point x="757.65" y="-139.33" type="curve" smooth="yes"/>
      <point x="746.5" y="-139.33"/>
      <point x="737.53" y="-138.46"/>
      <point x="732.66" y="-136.24" type="curve" smooth="yes"/>
      <point x="713.9" y="-127.71"/>
      <point x="673.56" y="-124.54"/>
      <point x="643.68" y="-124.54" type="curve" smooth="yes"/>
      <point x="621.04" y="-124.54"/>
      <point x="615.01" y="-128.93"/>
      <point x="607.09" y="-128.93" type="curve" smooth="yes"/>
      <point x="602.8" y="-128.93"/>
      <point x="597.95" y="-127.64"/>
      <point x="589.59" y="-123.65" type="curve" smooth="yes"/>
      <point x="558.88" y="-108.99"/>
      <point x="467.3" y="-116.73"/>
      <point x="439.18" y="-110.34" type="curve" smooth="yes"/>
      <point x="411.21" y="-103.98"/>
      <point x="390.26" y="-91.83"/>
      <point x="327.84" y="-91.83" type="curve" smooth="yes"/>
      <point x="323.61" y="-91.83"/>
      <point x="319.2" y="-91.89"/>
      <point x="314.58" y="-92" type="curve" smooth="yes"/>
      <point x="283.56" y="-92.78"/>
      <point x="253.5" y="-93.45"/>
      <point x="227.73" y="-93.45" type="curve" smooth="yes"/>
      <point x="194.02" y="-93.45"/>
      <point x="167.67" y="-92.31"/>
      <point x="156.12" y="-88.81" type="curve" smooth="yes"/>
      <point x="126.59" y="-79.87"/>
      <point x="106.49" y="-82.36"/>
      <point x="106.49" y="-77.04" type="curve" smooth="yes"/>
      <point x="106.49" y="-76.54"/>
      <point x="106.66" y="-75.98"/>
      <point x="107.02" y="-75.34" type="curve" smooth="yes"/>
      <point x="113.5" y="-63.54"/>
      <point x="112.27" y="-66.09"/>
      <point x="159.27" y="-62.31" type="curve" smooth="yes"/>
      <point x="203.91" y="-58.73"/>
      <point x="285.71" y="-56.96"/>
      <point x="307.82" y="-55.07" type="curve" smooth="yes"/>
      <point x="329.62" y="-53.22"/>
      <point x="351.82" y="-49.48"/>
      <point x="371.58" y="-41.79" type="curve" smooth="yes"/>
      <point x="388.34" y="-35.26"/>
      <point x="455.7" y="-20.76"/>
      <point x="473.96" y="-20.76" type="curve" smooth="yes"/>
      <point x="496.51" y="-20.76"/>
      <point x="543.58" y="-9.74"/>
      <point x="558.19" y="-9.74" type="curve" smooth="yes"/>
      <point x="558.97" y="-9.74"/>
      <point x="559.66" y="-9.77"/>
      <point x="560.25" y="-9.84" type="curve" smooth="yes"/>
      <point x="569.48" y="-10.89"/>
      <point x="592.38" y="-18.65"/>
      <point x="616.02" y="-18.65" type="curve" smooth="yes"/>
      <point x="624.69" y="-18.65"/>
      <point x="633.46" y="-17.6"/>
      <point x="641.7" y="-14.8" type="curve" smooth="yes"/>
      <point x="666.25" y="-6.43"/>
      <point x="688.26" y="-8.19"/>
      <point x="710.9" y="-6.25" type="curve" smooth="yes"/>
      <point x="731.74" y="-4.47"/>
      <point x="774.19" y="-2.72"/>
      <point x="799.09" y="1.06" type="curve" smooth="yes"/>
      <point x="813.89" y="3.3"/>
      <point x="842.98" y="17.35"/>
      <point x="842.98" y="28.61" type="curve" smooth="yes"/>
      <point x="842.98" y="34.35"/>
      <point x="835.43" y="39.36"/>
      <point x="814.61" y="41.73" type="curve" smooth="yes"/>
      <point x="767.66" y="47.06"/>
      <point x="730.32" y="56.2"/>
      <point x="686.57" y="58.06" type="curve" smooth="yes"/>
      <point x="681.18" y="58.29"/>
      <point x="676.33" y="58.39"/>
      <point x="671.91" y="58.39" type="curve" smooth="yes"/>
      <point x="647.03" y="58.39"/>
      <point x="635.84" y="55.29"/>
      <point x="618.9" y="55.29" type="curve" smooth="yes"/>
      <point x="614.03" y="55.29"/>
      <point x="608.68" y="55.55"/>
      <point x="602.39" y="56.21" type="curve" smooth="yes"/>
      <point x="573.39" y="59.25"/>
      <point x="551.23" y="63.87"/>
      <point x="527.45" y="63.87" type="curve" smooth="yes"/>
      <point x="523.58" y="63.87"/>
      <point x="519.66" y="63.75"/>
      <point x="515.66" y="63.48" type="curve" smooth="yes"/>
      <point x="512.28" y="63.25"/>
      <point x="508.17" y="63.15"/>
      <point x="503.49" y="63.15" type="curve" smooth="yes"/>
      <point x="473.89" y="63.15"/>
      <point x="421.35" y="67.12"/>
      <point x="386.46" y="67.12" type="curve" smooth="yes"/>
      <point x="348.23" y="67.12"/>
      <point x="317.67" y="75.82"/>
      <point x="298.33" y="79.58" type="curve" smooth="yes"/>
      <point x="278.33" y="83.47"/>
      <point x="261.22" y="83.28"/>
      <point x="235.97" y="91.9" type="curve" smooth="yes"/>
      <point x="204.24" y="102.72"/>
      <point x="150.39" y="106.64"/>
      <point x="150.39" y="118.6" type="curve" smooth="yes"/>
      <point x="150.39" y="120.25"/>
      <point x="151.42" y="122.06"/>
      <point x="153.68" y="124.06" type="curve" smooth="yes"/>
      <point x="178.08" y="145.68"/>
      <point x="275.47" y="178.13"/>
      <point x="325.46" y="178.13" type="curve" smooth="yes"/>
      <point x="381.63" y="178.13"/>
      <point x="390.84" y="198.7"/>
      <point x="419.4" y="201.69" type="curve" smooth="yes"/>
      <point x="453.37" y="205.26"/>
      <point x="570.03" y="212.49"/>
      <point x="591.56" y="214.33" type="curve" smooth="yes"/>
      <point x="612.25" y="216.1"/>
      <point x="879.62" y="226.8"/>
      <point x="926.47" y="234.31" type="curve" smooth="yes"/>
      <point x="972.12" y="241.64"/>
      <point x="981.36" y="245.05"/>
      <point x="1031.22" y="246.84" type="curve" smooth="yes"/>
      <point x="1035.51" y="246.99"/>
      <point x="1039.47" y="247.06"/>
      <point x="1043.16" y="247.06" type="curve" smooth="yes"/>
      <point x="1068.35" y="247.06"/>
      <point x="1081.04" y="243.93"/>
      <point x="1100.32" y="243.93" type="curve" smooth="yes"/>
      <point x="1109.81" y="243.93"/>
      <point x="1120.9" y="244.69"/>
      <point x="1135.86" y="246.96" type="curve" smooth="yes"/>
      <point x="1183.53" y="254.18"/>
      <point x="1250.25" y="264.92"/>
      <point x="1277.45" y="264.92" type="curve" smooth="yes"/>
      <point x="1311.67" y="264.92"/>
      <point x="1305.28" y="275.77"/>
      <point x="1322.53" y="275.77" type="curve" smooth="yes"/>
      <point x="1339.39" y="275.77"/>
      <point x="1358.16" y="266.07"/>
      <point x="1395.64" y="266.07" type="curve" smooth="yes"/>
      <point x="1401.17" y="266.07"/>
      <point x="1407.11" y="266.28"/>
      <point x="1413.51" y="266.77" type="curve" smooth="yes"/>
      <point x="1460.84" y="270.35"/>
      <point x="1592.46" y="271.5"/>
      <point x="1625.26" y="281.66" type="curve" smooth="yes"/>
      <point x="1632.49" y="283.9"/>
      <point x="1642.84" y="284.63"/>
      <point x="1654.47" y="284.63" type="curve" smooth="yes"/>
      <point x="1676.31" y="284.63"/>
      <point x="1702.71" y="282.06"/>
      <point x="1721.68" y="282.06" type="curve" smooth="yes"/>
      <point x="1728.26" y="282.06"/>
      <point x="1733.95" y="282.37"/>
      <point x="1738.24" y="283.2" type="curve" smooth="yes"/>
      <point x="1740.23" y="283.59"/>
      <point x="1742.37" y="283.75"/>
      <point x="1744.75" y="283.75" type="curve" smooth="yes"/>
      <point x="1754.5" y="283.75"/>
      <point x="1768.14" y="281.11"/>
      <point x="1791.25" y="281.11" type="curve" smooth="yes"/>
      <point x="1801.36" y="281.11"/>
      <point x="1813.27" y="281.61"/>
      <point x="1827.47" y="283.07" type="curve" smooth="yes"/>
      <point x="1880.23" y="288.47"/>
      <point x="1994.33" y="297.52"/>
      <point x="2044.59" y="301.12" type="curve" smooth="yes"/>
      <point x="2085.96" y="304.09"/>
      <point x="2116.18" y="307"/>
      <point x="2148.49" y="307" type="curve" smooth="yes"/>
      <point x="2155.72" y="307"/>
      <point x="2163.05" y="306.85"/>
      <point x="2170.63" y="306.53" type="curve" smooth="yes"/>
      <point x="2174.19" y="306.38"/>
      <point x="2177.65" y="306.31"/>
      <point x="2181.04" y="306.31" type="curve" smooth="yes"/>
      <point x="2219.98" y="306.31"/>
      <point x="2247.65" y="315.56"/>
      <point x="2271.87" y="315.56" type="curve" smooth="yes"/>
      <point x="2280.72" y="315.56"/>
      <point x="2299.59" y="314.68"/>
      <point x="2320.36" y="314.68" type="curve" smooth="yes"/>
      <point x="2356.7" y="314.68"/>
      <point x="2398.92" y="317.37"/>
      <point x="2403.75" y="332.18" type="curve" smooth="yes"/>
      <point x="2405.11" y="336.35"/>
      <point x="2406.17" y="340.35"/>
      <point x="2406.17" y="344.07" type="curve" smooth="yes"/>
      <point x="2406.17" y="356.55"/>
      <point x="2394.18" y="365.82"/>
      <point x="2341.11" y="367.26" type="curve" smooth="yes"/>
      <point x="2325.53" y="367.68"/>
      <point x="2306.9" y="367.82"/>
      <point x="2287.04" y="367.82" type="curve" smooth="yes"/>
      <point x="2253.09" y="367.82"/>
      <point x="2215.54" y="367.43"/>
      <point x="2183.53" y="367.43" type="curve" smooth="yes"/>
      <point x="2154.15" y="367.43"/>
      <point x="2129.44" y="367.76"/>
      <point x="2116.46" y="369.02" type="curve" smooth="yes"/>
      <point x="2082.81" y="372.3"/>
      <point x="2026.02" y="381.93"/>
      <point x="1984.59" y="381.93" type="curve" smooth="yes"/>
      <point x="1981.06" y="381.93"/>
      <point x="1977.65" y="381.86"/>
      <point x="1974.38" y="381.71" type="curve" smooth="yes"/>
      <point x="1938.45" y="380.08"/>
      <point x="1897.24" y="372.01"/>
      <point x="1874.02" y="372.01" type="curve" smooth="yes"/>
      <point x="1870.64" y="372.01"/>
      <point x="1867.65" y="372.18"/>
      <point x="1865.11" y="372.57" type="curve" smooth="yes"/>
      <point x="1840.72" y="376.26"/>
      <point x="1769.72" y="385.34"/>
      <point x="1741.52" y="385.34" type="curve" smooth="yes"/>
      <point x="1714.66" y="385.34"/>
      <point x="1658.98" y="383.53"/>
      <point x="1632.79" y="383.53" type="curve" smooth="yes"/>
      <point x="1610.82" y="383.53"/>
      <point x="1588.85" y="377.49"/>
      <point x="1569.86" y="377.49" type="curve" smooth="yes"/>
      <point x="1562.42" y="377.49"/>
      <point x="1555.43" y="378.42"/>
      <point x="1549.09" y="381" type="curve" smooth="yes"/>
      <point x="1489.46" y="405.29"/>
      <point x="1439.28" y="408.32"/>
      <point x="1403.14" y="408.32" type="curve" smooth="yes"/>
      <point x="1391.1" y="408.32"/>
      <point x="1380.61" y="407.98"/>
      <point x="1371.86" y="407.98" type="curve" smooth="yes"/>
      <point x="1361.11" y="407.98"/>
      <point x="1352.96" y="408.49"/>
      <point x="1347.74" y="410.76" type="curve" smooth="yes"/>
      <point x="1318.53" y="423.43"/>
      <point x="1314.29" y="426.92"/>
      <point x="1237.68" y="426.92" type="curve" smooth="yes"/>
      <point x="1167.52" y="426.92"/>
      <point x="1140.54" y="437.96"/>
      <point x="1100.67" y="437.96" type="curve" smooth="yes"/>
      <point x="1097.65" y="437.96"/>
      <point x="1094.56" y="437.9"/>
      <point x="1091.37" y="437.76" type="curve" smooth="yes"/>
      <point x="1064.03" y="436.6"/>
      <point x="1042.63" y="433.1"/>
      <point x="1024.28" y="433.1" type="curve" smooth="yes"/>
      <point x="1012.67" y="433.1"/>
      <point x="1002.28" y="434.5"/>
      <point x="992.4" y="438.79" type="curve" smooth="yes"/>
      <point x="979.89" y="444.22"/>
      <point x="957.15" y="445.61"/>
      <point x="932.13" y="445.61" type="curve" smooth="yes"/>
      <point x="905.73" y="445.61"/>
      <point x="876.81" y="444.06"/>
      <point x="854.7" y="444.06" type="curve" smooth="yes"/>
      <point x="841.39" y="444.06"/>
      <point x="830.54" y="444.62"/>
      <point x="824.21" y="446.42" type="curve" smooth="yes"/>
      <point x="790.28" y="456.06"/>
      <point x="765.17" y="452.33"/>
      <point x="729.59" y="455.8" type="curve" smooth="yes"/>
      <point x="691.03" y="459.55"/>
      <point x="700.33" y="455.85"/>
      <point x="672.15" y="461.09" type="curve" smooth="yes"/>
      <point x="654.2" y="464.43"/>
      <point x="651.64" y="472.54"/>
      <point x="627.23" y="472.54" type="curve" smooth="yes"/>
      <point x="620.18" y="472.54"/>
      <point x="611.31" y="471.86"/>
      <point x="599.72" y="470.2" type="curve" smooth="yes"/>
      <point x="587.72" y="468.48"/>
      <point x="578.58" y="467.85"/>
      <point x="571.11" y="467.85" type="curve" smooth="yes"/>
      <point x="551.07" y="467.85"/>
      <point x="543.04" y="472.37"/>
      <point x="524.07" y="472.37" type="curve" smooth="yes"/>
      <point x="521.5" y="472.37"/>
      <point x="518.74" y="472.29"/>
      <point x="515.72" y="472.1" type="curve" smooth="yes"/>
      <point x="508.59" y="471.66"/>
      <point x="492.27" y="471.45"/>
      <point x="471.46" y="471.45" type="curve" smooth="yes"/>
      <point x="411.56" y="471.45"/>
      <point x="314.46" y="473.14"/>
      <point x="292.21" y="475.66" type="curve" smooth="yes"/>
      <point x="285.35" y="476.44"/>
      <point x="278.4" y="476.71"/>
      <point x="271.53" y="476.71" type="curve" smooth="yes"/>
      <point x="255.39" y="476.71"/>
      <point x="239.66" y="475.2"/>
      <point x="226.48" y="475.2" type="curve" smooth="yes"/>
      <point x="215.68" y="475.2"/>
      <point x="206.59" y="476.21"/>
      <point x="200.42" y="479.9" type="curve" smooth="yes"/>
      <point x="194.24" y="483.59"/>
      <point x="190.7" y="486.53"/>
      <point x="190.03" y="487.78" type="curve"/>
      <point x="192.24" y="489.28"/>
      <point x="207.82" y="493.53"/>
      <point x="246.7" y="496.37" type="curve" smooth="yes"/>
      <point x="321.22" y="501.81"/>
      <point x="403.15" y="508.84"/>
      <point x="439.5" y="518.37" type="curve" smooth="yes"/>
      <point x="472.5" y="527.03"/>
      <point x="565.46" y="537.98"/>
      <point x="603.29" y="545.35" type="curve" smooth="yes"/>
      <point x="639.81" y="552.47"/>
      <point x="660.24" y="567.33"/>
      <point x="705.69" y="567.33" type="curve" smooth="yes"/>
      <point x="710.17" y="567.33"/>
      <point x="714.9" y="567.18"/>
      <point x="719.9" y="566.88" type="curve" smooth="yes"/>
      <point x="727.43" y="566.41"/>
      <point x="734.23" y="566.21"/>
      <point x="740.43" y="566.21" type="curve" smooth="yes"/>
      <point x="783.82" y="566.21"/>
      <point x="797.83" y="576.3"/>
      <point x="827.17" y="577.73" type="curve" smooth="yes"/>
      <point x="853.3" y="579"/>
      <point x="919.88" y="574.47"/>
      <point x="919.88" y="593.73" type="curve" smooth="yes"/>
      <point x="919.88" y="595.28"/>
      <point x="919.45" y="596.98"/>
      <point x="918.54" y="598.84" type="curve" smooth="yes"/>
      <point x="908.95" y="618.47"/>
      <point x="884.71" y="624.01"/>
      <point x="818.98" y="625.8" type="curve" smooth="yes"/>
      <point x="753.65" y="627.58"/>
      <point x="729.27" y="638.1"/>
      <point x="700.81" y="641.98" type="curve" smooth="yes"/>
      <point x="694.19" y="642.88"/>
      <point x="687.37" y="643.21"/>
      <point x="680.2" y="643.21" type="curve" smooth="yes"/>
      <point x="661.83" y="643.21"/>
      <point x="641.09" y="641.08"/>
      <point x="615.28" y="641.08" type="curve" smooth="yes"/>
      <point x="606.21" y="641.08"/>
      <point x="596.51" y="641.34"/>
      <point x="586.07" y="642.05" type="curve" smooth="yes"/>
      <point x="532.68" y="645.69"/>
      <point x="498.31" y="645.79"/>
      <point x="470.61" y="650.94" type="curve" smooth="yes"/>
      <point x="445.06" y="655.69"/>
      <point x="382.61" y="669.78"/>
      <point x="352.14" y="669.78" type="curve" smooth="yes"/>
      <point x="348.16" y="669.78"/>
      <point x="344.73" y="669.54"/>
      <point x="341.99" y="669.01" type="curve" smooth="yes"/>
      <point x="339.38" y="668.5"/>
      <point x="334.08" y="668.29"/>
      <point x="327.12" y="668.29" type="curve" smooth="yes"/>
      <point x="297.65" y="668.29"/>
      <point x="238.52" y="672.04"/>
      <point x="229.12" y="672.71" type="curve" smooth="yes"/>
      <point x="227.13" y="673.26"/>
      <point x="218.03" y="676.25"/>
      <point x="215.47" y="678.45" type="curve"/>
      <point x="217.06" y="679.36"/>
      <point x="223.93" y="682.18"/>
      <point x="239.54" y="684.49" type="curve" smooth="yes"/>
      <point x="258.81" y="687.35"/>
      <point x="282.12" y="688.04"/>
      <point x="306.04" y="688.04" type="curve" smooth="yes"/>
      <point x="328.84" y="688.04"/>
      <point x="352.19" y="687.41"/>
      <point x="373.12" y="687.41" type="curve" smooth="yes"/>
      <point x="397.51" y="687.41"/>
      <point x="418.62" y="688.27"/>
      <point x="431.75" y="692" type="curve" smooth="yes"/>
      <point x="462.33" y="700.68"/>
      <point x="498.67" y="704.29"/>
      <point x="538.11" y="706.08" type="curve" smooth="yes"/>
      <point x="561.44" y="707.14"/>
      <point x="637.5" y="713.81"/>
      <point x="637.5" y="727.26" type="curve" smooth="yes"/>
      <point x="637.5" y="729.65"/>
      <point x="635.1" y="732.25"/>
      <point x="629.58" y="735.07" type="curve" smooth="yes"/>
      <point x="605.47" y="747.41"/>
      <point x="526.24" y="759.59"/>
      <point x="492.54" y="759.59" type="curve" smooth="yes"/>
      <point x="482.14" y="759.59"/>
      <point x="471.02" y="759.42"/>
      <point x="459.74" y="759.42" type="curve" smooth="yes"/>
      <point x="436.08" y="759.42"/>
      <point x="411.67" y="760.16"/>
      <point x="391.47" y="764.75" type="curve" smooth="yes"/>
      <point x="377.88" y="767.84"/>
      <point x="361.94" y="768.51"/>
      <point x="344.89" y="768.51" type="curve" smooth="yes"/>
      <point x="331.68" y="768.51"/>
      <point x="317.79" y="768.1"/>
      <point x="303.83" y="768.1" type="curve" smooth="yes"/>
      <point x="289.28" y="768.1"/>
      <point x="274.63" y="768.54"/>
      <point x="260.55" y="770.34" type="curve" smooth="yes"/>
      <point x="134.85" y="786.41"/>
      <point x="182.87" y="787.25"/>
      <point x="138.22" y="836.73" type="curve" smooth="yes"/>
      <point x="108.25" y="869.94"/>
      <point x="90.72" y="873.65"/>
      <point x="90.72" y="883.8" type="curve" smooth="yes"/>
      <point x="90.72" y="888.79"/>
      <point x="94.97" y="895.35"/>
      <point x="104.06" y="907.75" type="curve" smooth="yes"/>
      <point x="131.38" y="945.01"/>
      <point x="213.19" y="962.8"/>
      <point x="241.28" y="972.38" type="curve" smooth="yes"/>
      <point x="264.87" y="980.43"/>
      <point x="331.03" y="980.09"/>
      <point x="355.92" y="990.7" type="curve" smooth="yes"/>
      <point x="373.17" y="998.05"/>
      <point x="452.82" y="998.82"/>
      <point x="486.37" y="1004.54" type="curve" smooth="yes"/>
      <point x="490.09" y="1005.17"/>
      <point x="494.02" y="1005.42"/>
      <point x="498.12" y="1005.42" type="curve" smooth="yes"/>
      <point x="513.98" y="1005.42"/>
      <point x="532.22" y="1001.64"/>
      <point x="549.67" y="1001.64" type="curve" smooth="yes"/>
      <point x="559.88" y="1001.64"/>
      <point x="569.82" y="1002.93"/>
      <point x="578.86" y="1007.04" type="curve" smooth="yes"/>
      <point x="592.82" y="1013.38"/>
      <point x="610.29" y="1018.35"/>
      <point x="630.41" y="1018.35" type="curve" smooth="yes"/>
      <point x="642.6" y="1018.35"/>
      <point x="655.77" y="1016.53"/>
      <point x="669.72" y="1012.09" type="curve" smooth="yes"/>
      <point x="678.38" y="1009.34"/>
      <point x="689.51" y="1008.19"/>
      <point x="702.08" y="1008.19" type="curve" smooth="yes"/>
      <point x="754.29" y="1008.19"/>
      <point x="831.21" y="1027.91"/>
      <point x="858.02" y="1033.53" type="curve" smooth="yes"/>
      <point x="890.92" y="1040.43"/>
      <point x="997.11" y="1047.77"/>
      <point x="1026.88" y="1051.47" type="curve" smooth="yes"/>
      <point x="1044.31" y="1053.63"/>
      <point x="1143.71" y="1052.04"/>
      <point x="1143.71" y="1076.43" type="curve" smooth="yes"/>
      <point x="1143.71" y="1078.68"/>
      <point x="1142.86" y="1081.16"/>
      <point x="1141.02" y="1083.88" type="curve" smooth="yes"/>
      <point x="1122.95" y="1110.58"/>
      <point x="1083.35" y="1112.13"/>
      <point x="1041.46" y="1112.13" type="curve" smooth="yes"/>
      <point x="1019.02" y="1112.13"/>
      <point x="1003.29" y="1110.32"/>
      <point x="987.66" y="1110.32" type="curve" smooth="yes"/>
      <point x="972.38" y="1110.32"/>
      <point x="957.19" y="1112.05"/>
      <point x="935.9" y="1118.88" type="curve" smooth="yes"/>
      <point x="901.14" y="1130.03"/>
      <point x="833.51" y="1136.02"/>
      <point x="788.19" y="1136.02" type="curve" smooth="yes"/>
      <point x="771.72" y="1136.02"/>
      <point x="758.2" y="1135.23"/>
      <point x="750.28" y="1133.61" type="curve" smooth="yes"/>
      <point x="746.97" y="1132.93"/>
      <point x="744.37" y="1132.64"/>
      <point x="742.25" y="1132.64" type="curve" smooth="yes"/>
      <point x="729.95" y="1132.64"/>
      <point x="733.57" y="1142.52"/>
      <point x="705.5" y="1144.65" type="curve" smooth="yes"/>
      <point x="681.66" y="1146.45"/>
      <point x="628.89" y="1150.21"/>
      <point x="598.82" y="1158.75" type="curve" smooth="yes"/>
      <point x="590.22" y="1161.19"/>
      <point x="582.67" y="1162.09"/>
      <point x="575.96" y="1162.09" type="curve" smooth="yes"/>
      <point x="557.22" y="1162.09"/>
      <point x="545.11" y="1155.07"/>
      <point x="535.36" y="1155.07" type="curve" smooth="yes"/>
      <point x="531.61" y="1155.07"/>
      <point x="528.21" y="1156.11"/>
      <point x="524.92" y="1158.99" type="curve" smooth="yes"/>
      <point x="504.65" y="1176.76"/>
      <point x="426.23" y="1195.42"/>
      <point x="393.04" y="1195.42" type="curve" smooth="yes"/>
      <point x="391.37" y="1195.42"/>
      <point x="389.81" y="1195.37"/>
      <point x="388.38" y="1195.27" type="curve" smooth="yes"/>
      <point x="386.38" y="1195.13"/>
      <point x="384.21" y="1195.07"/>
      <point x="381.89" y="1195.07" type="curve" smooth="yes"/>
      <point x="356.57" y="1195.07"/>
      <point x="313.94" y="1202.7"/>
      <point x="284.27" y="1206.07" type="curve" smooth="yes"/>
      <point x="252.34" y="1209.69"/>
      <point x="109.91" y="1227.84"/>
      <point x="70.91" y="1227.84" type="curve" smooth="yes"/>
      <point x="42.48" y="1227.84"/>
      <point x="-2.9" y="1235.62"/>
      <point x="-2.9" y="1249.96" type="curve" smooth="yes"/>
      <point x="-2.9" y="1255.85"/>
      <point x="4.75" y="1262.84"/>
      <point x="24.35" y="1270.86" type="curve" smooth="yes"/>
      <point x="101.99" y="1302.62"/>
      <point x="227.08" y="1290.24"/>
      <point x="249.25" y="1297.79" type="curve" smooth="yes"/>
      <point x="261.46" y="1301.95"/>
      <point x="394.73" y="1306.28"/>
      <point x="437.78" y="1309.95" type="curve" smooth="yes"/>
      <point x="476.72" y="1313.27"/>
      <point x="529.14" y="1332.87"/>
      <point x="563.88" y="1332.87" type="curve" smooth="yes"/>
      <point x="570.69" y="1332.87"/>
      <point x="576.82" y="1332.12"/>
      <point x="582.04" y="1330.34" type="curve" smooth="yes"/>
      <point x="603.93" y="1322.88"/>
      <point x="644.07" y="1317.88"/>
      <point x="678.96" y="1317.88" type="curve" smooth="yes"/>
      <point x="705.49" y="1317.88"/>
      <point x="728.98" y="1320.77"/>
      <point x="739.11" y="1327.68" type="curve" smooth="yes"/>
      <point x="740.87" y="1328.88"/>
      <point x="742.84" y="1329.38"/>
      <point x="745.02" y="1329.38" type="curve" smooth="yes"/>
      <point x="755.35" y="1329.38"/>
      <point x="770.57" y="1318.29"/>
      <point x="792.17" y="1318.29" type="curve" smooth="yes"/>
      <point x="799.7" y="1318.29"/>
      <point x="808.01" y="1319.64"/>
      <point x="817.16" y="1323.28" type="curve" smooth="yes"/>
      <point x="846.01" y="1334.76"/>
      <point x="927.94" y="1338.87"/>
      <point x="952.13" y="1340.7" type="curve" smooth="yes"/>
      <point x="978.12" y="1342.67"/>
      <point x="997.91" y="1355.63"/>
      <point x="1020.14" y="1355.63" type="curve" smooth="yes"/>
      <point x="1022.36" y="1355.63"/>
      <point x="1024.61" y="1355.5"/>
      <point x="1026.89" y="1355.22" type="curve" smooth="yes"/>
      <point x="1040.79" y="1353.5"/>
      <point x="1079.52" y="1351.76"/>
      <point x="1123.72" y="1351.76" type="curve" smooth="yes"/>
      <point x="1177.57" y="1351.76"/>
      <point x="1239.55" y="1354.34"/>
      <point x="1274.61" y="1362.65" type="curve" smooth="yes"/>
      <point x="1299.68" y="1368.59"/>
      <point x="1320.79" y="1370.04"/>
      <point x="1339.68" y="1370.04" type="curve" smooth="yes"/>
      <point x="1357.61" y="1370.04"/>
      <point x="1373.53" y="1368.74"/>
      <point x="1388.92" y="1368.74" type="curve" smooth="yes"/>
      <point x="1395.52" y="1368.74"/>
      <point x="1402.03" y="1368.98"/>
      <point x="1408.55" y="1369.66" type="curve" smooth="yes"/>
      <point x="1440.83" y="1373.04"/>
      <point x="1510.25" y="1371.71"/>
      <point x="1530.03" y="1389.71" type="curve" smooth="yes"/>
      <point x="1535.03" y="1394.25"/>
      <point x="1537.29" y="1399.77"/>
      <point x="1537.29" y="1405.32" type="curve" smooth="yes"/>
      <point x="1537.29" y="1419.04"/>
      <point x="1523.45" y="1432.99"/>
      <point x="1502.78" y="1432.99" type="curve" smooth="yes"/>
      <point x="1499.6" y="1432.99"/>
      <point x="1496.26" y="1432.66"/>
      <point x="1492.79" y="1431.95" type="curve" smooth="yes"/>
      <point x="1482.13" y="1429.77"/>
      <point x="1474.21" y="1428.46"/>
      <point x="1465.9" y="1428.46" type="curve" smooth="yes"/>
      <point x="1454.4" y="1428.46"/>
      <point x="1442.17" y="1430.98"/>
      <point x="1420.95" y="1437.18" type="curve" smooth="yes"/>
      <point x="1383.43" y="1448.15"/>
      <point x="1360.27" y="1452.06"/>
      <point x="1314.61" y="1452.06" type="curve" smooth="yes"/>
      <point x="1271.29" y="1452.06"/>
      <point x="1275.9" y="1459.29"/>
      <point x="1245.66" y="1459.29" type="curve" smooth="yes"/>
      <point x="1221.06" y="1459.29"/>
      <point x="1221.22" y="1451.35"/>
      <point x="1206.87" y="1451.35" type="curve" smooth="yes"/>
      <point x="1200.66" y="1451.35"/>
      <point x="1191.75" y="1452.83"/>
      <point x="1176.94" y="1457.08" type="curve" smooth="yes"/>
      <point x="1125.83" y="1471.75"/>
      <point x="1077.06" y="1479.17"/>
      <point x="1028.21" y="1479.17" type="curve" smooth="yes"/>
      <point x="980.75" y="1479.17"/>
      <point x="941.36" y="1480.96"/>
      <point x="901.9" y="1484.55" type="curve" smooth="yes"/>
      <point x="869.24" y="1487.52"/>
      <point x="866.03" y="1502.81"/>
      <point x="809.69" y="1502.81" type="curve" smooth="yes"/>
      <point x="806.58" y="1502.81"/>
      <point x="803.3" y="1502.76"/>
      <point x="799.85" y="1502.66" type="curve" smooth="yes"/>
      <point x="756.17" y="1501.42"/>
      <point x="746.35" y="1495.36"/>
      <point x="736.87" y="1495.36" type="curve" smooth="yes"/>
      <point x="731.42" y="1495.36"/>
      <point x="726.1" y="1497.36"/>
      <point x="714.53" y="1503.43" type="curve" smooth="yes"/>
      <point x="691.94" y="1515.28"/>
      <point x="699.3" y="1521.01"/>
      <point x="670.59" y="1521.01" type="curve" smooth="yes"/>
      <point x="660.56" y="1521.01"/>
      <point x="646.12" y="1520.31"/>
      <point x="624.45" y="1518.93" type="curve" smooth="yes"/>
      <point x="558.48" y="1514.71"/>
      <point x="533.9" y="1503.8"/>
      <point x="515.78" y="1503.8" type="curve" smooth="yes"/>
      <point x="509.31" y="1503.8"/>
      <point x="503.67" y="1505.19"/>
      <point x="497.25" y="1508.76" type="curve" smooth="yes"/>
      <point x="468.49" y="1524.8"/>
      <point x="359.66" y="1535.88"/>
      <point x="304.74" y="1535.88" type="curve" smooth="yes"/>
      <point x="296.82" y="1535.88"/>
      <point x="290.02" y="1535.65"/>
      <point x="284.74" y="1535.17" type="curve" smooth="yes"/>
      <point x="251.51" y="1532.15"/>
      <point x="237.56" y="1526.34"/>
      <point x="220.5" y="1526.34" type="curve" smooth="yes"/>
      <point x="215.86" y="1526.34"/>
      <point x="211" y="1526.77"/>
      <point x="205.45" y="1527.8" type="curve" smooth="yes"/>
      <point x="175.37" y="1533.39"/>
      <point x="132.93" y="1537.02"/>
      <point x="110.69" y="1537.02" type="curve" smooth="yes"/>
      <point x="91.81" y="1537.02"/>
      <point x="-37.32" y="1562.33"/>
      <point x="-56.37" y="1562.33" type="curve" smooth="yes"/>
      <point x="-64.97" y="1562.33"/>
      <point x="-105.42" y="1569.81"/>
      <point x="-114.74" y="1576.37" type="curve"/>
      <point x="-113.45" y="1576.99"/>
      <point x="-110.23" y="1578.33"/>
      <point x="-104.52" y="1579.56" type="curve" smooth="yes"/>
      <point x="-88.37" y="1583.04"/>
      <point x="-72.39" y="1584.06"/>
      <point x="-57.48" y="1584.06" type="curve" smooth="yes"/>
      <point x="-36.08" y="1584.06"/>
      <point x="-16.86" y="1581.95"/>
      <point x="-2.44" y="1581.95" type="curve" smooth="yes"/>
      <point x="3.27" y="1581.95"/>
      <point x="8.22" y="1582.28"/>
      <point x="12.27" y="1583.2" type="curve" smooth="yes"/>
      <point x="25.63" y="1586.23"/>
      <point x="175.88" y="1584.05"/>
      <point x="206.26" y="1592.34" type="curve" smooth="yes"/>
      <point x="230.89" y="1599.06"/>
      <point x="311.2" y="1608.26"/>
      <point x="338.75" y="1608.26" type="curve" smooth="yes"/>
      <point x="358.75" y="1608.26"/>
      <point x="366.46" y="1605.2"/>
      <point x="387.28" y="1605.2" type="curve" smooth="yes"/>
      <point x="394.33" y="1605.2"/>
      <point x="402.88" y="1605.55"/>
      <point x="413.92" y="1606.49" type="curve" smooth="yes"/>
      <point x="457.59" y="1610.21"/>
      <point x="456.56" y="1623.31"/>
      <point x="463.08" y="1624.79" type="curve" smooth="yes"/>
      <point x="463.96" y="1624.99"/>
      <point x="466.26" y="1625.04"/>
      <point x="469.59" y="1625.04" type="curve" smooth="yes"/>
      <point x="473.21" y="1625.04"/>
      <point x="478.04" y="1624.98"/>
      <point x="483.59" y="1624.98" type="curve" smooth="yes"/>
      <point x="511.73" y="1624.98"/>
      <point x="558.32" y="1626.57"/>
      <point x="558.32" y="1645.87" type="curve" smooth="yes"/>
      <point x="558.32" y="1665.13"/>
      <point x="514.01" y="1665.91"/>
      <point x="490.15" y="1665.91" type="curve" smooth="yes"/>
      <point x="484.4" y="1665.9" type="line" smooth="yes"/>
      <point x="479.99" y="1665.9"/>
      <point x="476.88" y="1665.94"/>
      <point x="475.78" y="1666.21" type="curve" smooth="yes"/>
      <point x="462.61" y="1672.5"/>
      <point x="438.78" y="1677.88"/>
      <point x="385.28" y="1685.18" type="curve" smooth="yes"/>
      <point x="334.07" y="1692.17"/>
      <point x="348.26" y="1697.4"/>
      <point x="300.67" y="1705.03" type="curve" smooth="yes"/>
      <point x="290.84" y="1706.61"/>
      <point x="283.26" y="1707.21"/>
      <point x="277.2" y="1707.21" type="curve" smooth="yes"/>
      <point x="257.79" y="1707.21"/>
      <point x="253.89" y="1701.06"/>
      <point x="241.43" y="1701.06" type="curve" smooth="yes"/>
      <point x="237.68" y="1701.06"/>
      <point x="233.16" y="1701.62"/>
      <point x="227.21" y="1703.07" type="curve" smooth="yes"/>
      <point x="187.87" y="1712.65"/>
      <point x="107.52" y="1711.24"/>
      <point x="87.19" y="1717.4" type="curve" smooth="yes"/>
      <point x="58.89" y="1725.98"/>
      <point x="50.72" y="1716.28"/>
      <point x="15.9" y="1728.15" type="curve" smooth="yes"/>
      <point x="-22.97" y="1741.4"/>
      <point x="-35.86" y="1737.61"/>
      <point x="-95.84" y="1755.39" type="curve" smooth="yes"/>
      <point x="-160.18" y="1774.46"/>
      <point x="-297.18" y="1756.65"/>
      <point x="-329.66" y="1764.56" type="curve" smooth="yes"/>
      <point x="-368.75" y="1774.08"/>
      <point x="-406.98" y="1770.27"/>
      <point x="-407.39" y="1770.24" type="curve" smooth="yes"/>
      <point x="-410.51" y="1769.95"/>
      <point x="-413.83" y="1767.9"/>
    </contour>
  </outline>
</glyph>
<glyph name=".notdef" format="2">
  <advance width="1229"/>
  <unicode hex="E0C9"/>
  <unicode hex="E0CB"/>
  <unicode hex="E0D3"/>
  <note>
.notdef
</note>
  <outline>
    <contour>
      <point x="1034" y="1462" type="line"/>
      <point x="193" y="1462" type="line"/>
      <point x="193" y="0" type="line"/>
      <point x="1034" y="0" type="line"/>
    </contour>
    <contour>
      <point x="930" y="104" type="line"/>
      <point x="297" y="104" type="line"/>
      <point x="297" y="1358" type="line"/>
      <point x="930" y="1358" type="line"/>
    </contour>
  </outline>
</glyph>
